<?xml version="1.0" standalone="no"?>
<!DOCTYPE svg PUBLIC "-//W3C//DTD SVG 20010904//EN"
 "http://www.w3.org/TR/2001/REC-SVG-20010904/DTD/svg10.dtd">
<svg version="1.0" xmlns="http://www.w3.org/2000/svg"
 width="530.000000pt" height="470.000000pt" viewBox="0 0 530.000000 470.000000"
 preserveAspectRatio="xMidYMid meet">
<metadata>
Created by potrace 1.16, written by Peter Selinger 2001-2019
</metadata>
<g transform="translate(0.000000,470.000000) scale(0.100000,-0.100000)"
fill="#000000" stroke="none">
<path d="M2517 4379 c-285 -23 -574 -117 -835 -269 -92 -53 -105 -62 -217
-150 -385 -301 -652 -759 -727 -1250 -17 -112 -17 -479 0 -590 105 -676 565
-1262 1197 -1522 384 -159 839 -191 1242 -87 417 107 783 345 1054 686 196
247 337 557 394 868 26 138 31 479 11 628 -45 316 -154 587 -353 877 -109 158
-333 374 -502 485 -293 190 -602 297 -945 325 -126 11 -179 11 -319 -1z m-32
-365 c-47 -131 -135 -378 -196 -549 -61 -170 -113 -313 -117 -317 -4 -4 -86
90 -182 209 -96 118 -232 286 -302 371 -100 123 -125 159 -115 168 6 7 50 37
96 68 184 121 429 222 646 266 117 24 248 39 253 29 1 -3 -36 -113 -83 -245z
m524 225 c191 -34 346 -86 530 -178 76 -39 261 -157 261 -168 0 -3 -44 -58
-97 -122 -54 -65 -112 -135 -130 -157 -112 -137 -406 -489 -412 -492 -3 -1
-17 28 -30 65 -13 38 -34 95 -46 128 -13 33 -58 157 -100 275 -42 118 -81 226
-86 240 -6 14 -35 93 -64 175 -29 83 -62 174 -74 203 -12 29 -21 55 -21 58 0
9 146 -6 269 -27z m-409 -951 c0 -650 -1 -680 -17 -660 -10 11 -49 60 -88 108
-38 48 -107 132 -152 186 -46 55 -83 103 -83 107 0 6 102 297 170 481 17 47
61 169 97 273 37 103 68 187 70 187 2 0 3 -307 3 -682z m272 267 c72 -198 145
-402 164 -453 34 -90 34 -94 17 -115 -23 -28 -313 -379 -325 -392 -4 -5 -8
304 -7 685 0 499 4 687 11 665 6 -16 69 -192 140 -390z m1165 128 c45 -49 98
-110 119 -138 357 -470 472 -1079 308 -1642 -84 -292 -233 -550 -440 -762
l-83 -86 -1 1358 c0 756 4 1357 9 1357 4 0 44 -39 88 -87z m-2637 -1270 l0
-1327 -31 30 c-47 44 -149 170 -211 259 -157 226 -275 535 -308 805 -15 126
-12 387 6 509 38 261 140 529 287 749 79 118 231 299 255 302 1 0 2 -597 2
-1327z m220 1211 c52 -64 159 -196 238 -293 79 -97 170 -208 203 -248 32 -40
59 -75 59 -79 0 -7 -105 -305 -175 -499 -20 -55 -74 -206 -120 -335 -46 -129
-100 -280 -120 -335 -20 -55 -66 -183 -102 -285 -36 -102 -69 -194 -74 -205
-4 -11 -8 523 -8 1188 -1 664 0 1207 2 1207 1 0 45 -52 97 -116z m2200 -1116
c0 -666 -2 -1209 -5 -1206 -5 4 -115 307 -250 683 -30 83 -97 269 -150 415
-179 493 -197 545 -201 570 -3 17 4 35 23 56 15 18 152 181 303 363 151 182
276 331 277 331 2 0 3 -545 3 -1212z m-1548 315 c30 -38 114 -141 187 -231
l132 -162 -83 -101 c-201 -245 -851 -1025 -864 -1039 -9 -8 1 29 21 85 20 55
40 111 45 125 4 14 15 43 23 65 9 22 52 141 96 265 44 124 96 270 116 325 20
55 77 215 127 355 140 394 134 380 142 380 2 0 28 -30 58 -67z m951 -238 c48
-132 118 -328 157 -435 39 -107 106 -294 150 -415 44 -121 99 -276 124 -345
25 -68 44 -126 42 -128 -2 -1 -75 86 -162 194 -295 366 -666 822 -731 900 -57
67 -60 75 -40 96 10 10 153 182 235 283 10 12 39 47 66 79 49 58 49 58 61 35
7 -13 51 -132 98 -264z m-323 -535 c78 -96 187 -231 244 -300 56 -69 176 -217
267 -329 167 -206 282 -349 353 -435 22 -26 35 -51 30 -54 -166 -122 -351
-215 -554 -280 -146 -47 -341 -82 -453 -82 l-54 0 -6 332 c-4 182 -7 563 -7
847 0 506 0 515 19 496 10 -11 83 -99 161 -195z m-291 -737 l1 -743 -37 0
c-51 0 -227 26 -310 45 -235 54 -522 190 -702 334 l-25 19 39 49 c22 26 86
104 143 173 57 69 111 134 120 145 10 11 55 67 102 123 47 57 201 244 344 415
142 172 270 327 285 346 l26 35 6 -100 c4 -54 7 -433 8 -841z"/>
</g>
</svg>
