<?xml version="1.0" standalone="no"?>
<!DOCTYPE svg PUBLIC "-//W3C//DTD SVG 1.1//EN" "http://www.w3.org/Graphics/SVG/1.1/DTD/svg11.dtd" >
<svg xmlns="http://www.w3.org/2000/svg" xmlns:xlink="http://www.w3.org/1999/xlink" version="1.1">
<metadata>
Created by FontForge 20170731 at Sun Oct 13 00:44:00 2002
 By ,,,
Copyright (c) 1997, 2001, 2002 Adobe Systems Incorporated.  All Rights Reserved.
</metadata>
<defs>
<font id="KoloLPStd-Regular" horiz-adv-x="838" >
  <font-face 
    font-family="Kolo LP Std Regular"
    font-weight="400"
    font-stretch="normal"
    units-per-em="1000"
    panose-1="0 0 5 0 0 0 0 0 0 0"
    ascent="789"
    descent="-211"
    x-height="791"
    cap-height="791"
    bbox="-83 -289 1344 1054"
    underline-thickness="50"
    underline-position="-200"
    unicode-range="U+0020-FB02"
  />
<missing-glyph horiz-adv-x="500" 
d="M0 0v700h500v-700h-500zM250 395l170 255h-340zM280 350l170 -255v510zM80 50h340l-170 255zM50 605v-510l170 255z" />
    <glyph glyph-name=".notdef" horiz-adv-x="500" 
d="M0 0v700h500v-700h-500zM250 395l170 255h-340zM280 350l170 -255v510zM80 50h340l-170 255zM50 605v-510l170 255z" />
    <glyph glyph-name=".null" horiz-adv-x="0" 
 />
    <glyph glyph-name="nonmarkingreturn" horiz-adv-x="333" 
 />
    <glyph glyph-name="space" unicode=" " horiz-adv-x="350" 
 />
    <glyph glyph-name="exclam" unicode="!" horiz-adv-x="254" 
d="M170 771q0 -2 -6 -173q-7 -214 -7 -364v-36q0 -15 -6.5 -19t-23.5 -4q-13 0 -20 2t-10 9t-3.5 11.5t0.5 17.5t1 19q0 151 -7 363q-1 19 -2.5 54.5t-2.5 64.5t-1 54q0 21 44 21t44 -20zM180 43q0 -29 -12 -41t-41 -12t-41 12t-12 41t12 41t41 12t41 -12t12 -41z" />
    <glyph glyph-name="quotedbl" unicode="&#x22;" horiz-adv-x="382" 
d="M323 843q0 -1 -0.5 -4t-0.5 -5q-11 -96 -14 -216q-1 -16 -5 -22t-19 -6q-16 0 -20.5 6t-5.5 22q-6 107 -21 214q0 2 -0.5 5t-0.5 5q0 28 46 28q41 0 41 -27zM149 843q0 -1 -0.5 -4t-0.5 -5q-11 -96 -14 -216q-1 -16 -5 -22t-19 -6q-16 0 -20.5 6t-5.5 22q-6 107 -21 214
q0 2 -0.5 5t-0.5 5q0 28 46 28q41 0 41 -27z" />
    <glyph glyph-name="numbersign" unicode="#" horiz-adv-x="633" 
d="M499 757v-3q-2 -25 -5.5 -53t-8.5 -61.5t-7 -52.5q114 3 115 3q13 0 13 -19q0 -42 -20 -42q-19 0 -57 1t-57 1q-14 -118 -19 -182q114 3 115 3q13 0 13 -20q0 -41 -20 -41q-38 0 -114 2q-6 -78 -10 -117q-2 -40 -5 -59q-2 -19 -32 -19q-8 0 -13 0.5t-10.5 4t-5.5 10.5v4
q2 35 11.5 100t10.5 77q-33 1 -98 1q-57 0 -85 -1q-2 -20 -5.5 -59.5t-5.5 -58.5q-2 -40 -5 -59q-2 -19 -32 -19q-8 0 -13 0.5t-10.5 4t-5.5 10.5v4q2 35 11 99t11 77q-74 -2 -112 -2q-14 0 -14 18q0 43 20 43q19 0 56.5 -1.5t56.5 -1.5q7 61 19 183q-13 0 -36 -1
t-41.5 -1.5t-35.5 -0.5q-14 0 -14 18q0 43 20 43q1 0 112 -3l9 110q1 10 2.5 29t2.5 28q3 18 33 18q8 0 13 -0.5t10.5 -4t5.5 -10.5l-1 -3q-1 -25 -4.5 -53t-9 -62t-7.5 -53q14 0 43 -0.5t43 -0.5q16 0 49 0.5t49 0.5l9 111q1 9 2.5 28t2.5 29q2 18 33 18q8 0 13 -0.5t10 -4
t5 -10.5zM284 347h32q14 0 42 0.5t41 0.5q13 116 20 184q-30 1 -90 1h-21h-74q-8 -68 -19 -185q11 0 34 -0.5t35 -0.5z" />
    <glyph glyph-name="dollar" unicode="$" horiz-adv-x="433" 
d="M305 305q0 31 -23.5 62.5t-57 58t-67 52.5t-57 56.5t-23.5 60.5q0 48 28.5 75t77.5 33q0 15 -1.5 45t-1.5 45q0 16 30 16q31 0 31 -17q0 -12 -0.5 -26.5t-1.5 -32.5t-1 -28q60 -3 86 -13q11 -5 11 -14q0 -8 -8.5 -24.5t-15.5 -16.5h-2q-73 17 -90 17q-76 0 -76 -49
q0 -28 36 -62.5t79 -64t79 -74.5t36 -92q0 -51 -40 -83.5t-95 -43.5q3 -99 3 -100q0 -16 -31 -16q-30 0 -30 17q0 14 0.5 29.5t1.5 34.5t1 30q-81 2 -129 24q-9 4 -9 13q0 8 9 24.5t17 16.5q3 0 4 -1q52 -24 117 -24q43 0 78 17t35 55z" />
    <glyph glyph-name="percent" unicode="%" horiz-adv-x="759" 
d="M343 606q0 -76 -41 -132t-114 -56q-74 0 -114.5 55.5t-40.5 132.5q0 76 41 132t114 56t114 -56t41 -132zM286 606q0 48 -26 88t-72 40t-72 -40t-26 -88q0 -47 26.5 -87.5t71.5 -40.5t71.5 40.5t26.5 87.5zM728 180q0 -76 -41 -132t-114 -56t-114 56t-41 132t41 132.5
t114 56.5q74 0 114.5 -56t40.5 -133zM670 180q0 48 -26 88.5t-71 40.5q-46 0 -72 -40.5t-26 -88.5q0 -47 26.5 -87.5t71.5 -40.5t71 40.5t26 87.5zM650 763q0 -4 -4 -10q-16 -25 -46 -70.5t-38 -57.5q-84 -129 -155 -242q-31 -49 -86.5 -141t-69.5 -115q-70 -118 -75 -125
q-5 -8 -13 -8q-12 0 -30 12t-18 23q0 5 3 10q26 41 80 121q121 187 162 254q65 103 151 246q74 125 77 129q7 9 14 9q11 0 29.5 -12.5t18.5 -22.5z" />
    <glyph glyph-name="ampersand" unicode="&#x26;" horiz-adv-x="675" 
d="M665 338q0 -6 -4 -12q-48 -97 -127 -180q2 -2 32 -34.5t53 -59t23 -30.5q0 -9 -16 -21t-25 -12q-6 0 -15 7q-19 17 -53.5 56.5t-47.5 52.5q-145 -120 -284 -120q-77 0 -128.5 38t-51.5 112q0 125 188 292q-31 40 -47.5 64.5t-34.5 66.5t-18 77q0 76 55.5 120t132.5 44
q93 0 152 -33q8 -6 8 -12q0 -10 -11.5 -27.5t-20.5 -17.5q-3 0 -7 2q-54 28 -106 28q-55 0 -91.5 -27.5t-36.5 -80.5q0 -13 3 -27.5t10 -31t13 -29.5t18 -31.5t18.5 -28.5t22 -29.5t20.5 -26t21 -25.5t17 -21q94 -116 165 -190q53 56 94 123q4 6 8 13t8.5 15.5t7.5 13.5
q4 9 14 9q11 0 26 -8.5t15 -18.5zM445 148q-136 150 -200 228q-59 -47 -103.5 -111.5t-44.5 -125.5q0 -45 35.5 -68.5t82.5 -23.5q57 0 119.5 29t110.5 72z" />
    <glyph glyph-name="quotesingle" unicode="'" horiz-adv-x="209" 
d="M148 842q0 -2 -0.5 -5t-0.5 -5q-12 -86 -21 -214q-1 -16 -5.5 -22t-20.5 -6q-15 0 -19 6t-5 22q-3 120 -14 216q0 2 -0.5 5t-0.5 4q0 27 41 27q46 0 46 -28z" />
    <glyph glyph-name="parenleft" unicode="(" horiz-adv-x="366" 
d="M367 -80q0 -9 -9 -18t-18 -9q-4 0 -10 4q-124 79 -200.5 214.5t-76.5 280.5q0 149 75 282t202 213q4 3 10 3q10 0 18.5 -9t8.5 -19q0 -6 -8 -14q-58 -52 -76 -70q-152 -159 -152 -386q0 -225 152 -386q18 -18 76 -70q8 -6 8 -16z" />
    <glyph glyph-name="parenright" unicode=")" horiz-adv-x="366" 
d="M313 391q0 -144 -77 -280.5t-200 -214.5q-4 -3 -10 -3q-10 0 -18 9t-8 19q0 7 7 14q54 46 77 70q151 158 151 386q0 225 -151 386q-12 13 -77 70q-8 6 -8 16q0 9 9.5 18t17.5 9q4 0 10 -4q126 -80 201.5 -213.5t75.5 -281.5z" />
    <glyph glyph-name="asterisk" unicode="*" horiz-adv-x="400" 
d="M378 722q0 -25 -45 -27q-84 -6 -85 -6q-18 0 -18 12q0 8 10 14l29 19q29 20 48.5 30.5t28.5 10.5q14 0 23 -18.5t9 -34.5zM239 844q0 -24 -24 -110q-5 -15 -14 -15q-10 0 -14 14q-26 89 -26 109q0 27 40 27q38 0 38 -25zM330 571q0 -13 -18.5 -27.5t-31.5 -14.5
q-17 0 -31 36q-1 3 -10.5 25t-16.5 40t-7 22q0 7 4 11q4 2 8 2q5 0 12 -5q2 -2 6.5 -6t8 -7t6.5 -5q8 -7 23.5 -19t20.5 -17q26 -21 26 -35zM172 701q0 -12 -16 -12t-86 5q-46 2 -46 28q0 16 8.5 34t22.5 18q19 0 106 -58q11 -7 11 -15zM188 651q0 -3 -7 -20.5t-16 -39.5
t-10 -25q-14 -38 -32 -38q-13 0 -32 14.5t-19 27.5q0 11 27 35q11 8 32 26.5t31 27.5q7 5 14 5q12 0 12 -13z" />
    <glyph glyph-name="plus" unicode="+" horiz-adv-x="472" 
d="M422 396q0 -34 -20 -34q-26 0 -72.5 2.5t-64.5 2.5q0 -15 2.5 -56t2.5 -65q0 -17 -34 -17t-34 18q0 23 2.5 64t2.5 56q-18 0 -64.5 -2.5t-73.5 -2.5q-19 0 -19 34t20 34q26 0 72.5 -2.5t64.5 -2.5q0 15 -2.5 56t-2.5 65q0 17 34 17t34 -18q0 -23 -2.5 -64t-2.5 -56
q17 0 64 2.5t74 2.5q19 0 19 -34z" />
    <glyph glyph-name="comma" unicode="," horiz-adv-x="230" 
d="M186 53q0 -11 -10 -23q-60 -76 -126 -175q-12 -17 -21 -17q-8 0 -18.5 8t-10.5 16q0 5 7 19q46 82 96 193q10 22 25 22q14 0 36 -15t22 -28z" />
    <glyph glyph-name="hyphen" unicode="-" horiz-adv-x="472" 
d="M422 396q0 -34 -20 -34q-27 0 -81 2.5t-81 2.5q-28 0 -85 -2.5t-86 -2.5q-19 0 -19 34t20 34q28 0 85 -2.5t86 -2.5q27 0 81 2.5t81 2.5q19 0 19 -34z" />
    <glyph glyph-name="period" unicode="." horiz-adv-x="230" 
d="M168 43q0 -29 -12 -41t-41 -12t-41 12t-12 41t12 41t41 12t41 -12t12 -41z" />
    <glyph glyph-name="slash" unicode="/" horiz-adv-x="492" 
d="M513 763q0 -4 -4 -10q-14 -21 -42 -63.5t-42 -64.5q-52 -80 -154 -242q-21 -33 -157 -256q-70 -118 -75 -125q-5 -8 -13 -8q-12 0 -30 12t-18 23q0 5 3 10q13 21 39.5 61t39.5 60q76 116 162 254q65 103 151 246q10 16 36.5 61t41.5 68q5 9 14 9q11 0 29.5 -12.5
t18.5 -22.5z" />
    <glyph glyph-name="zero" unicode="0" horiz-adv-x="780" 
d="M730 394q0 -102 -38 -194t-118 -155t-184 -63q-81 0 -147 36t-107 95t-63.5 131.5t-22.5 149.5q0 76 22.5 148.5t64 132.5t107.5 96.5t146 36.5q81 0 147.5 -36t107.5 -95.5t63 -132.5t22 -150zM658 394q0 78 -21 141q-28 89 -94 150t-153 61t-152.5 -61t-93.5 -150
q-22 -66 -22 -141q0 -79 25 -150q30 -84 94.5 -142t148.5 -58q55 0 108 29q78 45 119 134t41 187z" />
    <glyph glyph-name="one" unicode="1" horiz-adv-x="425" 
d="M241 666q0 34 -19 34q-8 0 -24.5 -8.5t-39 -23.5t-40.5 -28t-39.5 -29t-24.5 -18q-10 -6 -16 -6q-10 0 -22.5 14t-12.5 25q0 9 13 18q27 19 120 75q82 52 124 76q16 8 26 8q26 0 26 -33q0 -11 -0.5 -31.5t-0.5 -27.5q0 -31 -2.5 -142t-2.5 -162q0 -65 2.5 -194.5
t2.5 -194.5q0 -21 -37 -21t-37 21q0 64 2.5 193t2.5 194q0 43 -0.5 130t-0.5 131z" />
    <glyph glyph-name="two" unicode="2" horiz-adv-x="538" 
d="M486 58q0 -12 -14 -35t-37 -23h-359q-38 0 -48 23q-8 16 -8 30q0 15 20 39q19 23 59 64.5t47 49.5q255 273 255 406q0 125 -154 125q-54 0 -172 -30l-15 -3q-14 0 -14 27q0 20 6.5 29t25.5 15q86 26 199 26q92 0 149 -42t57 -131q0 -54 -23.5 -112t-66 -115.5t-83 -104
t-93 -103t-77.5 -87.5q-10 -12 -10 -22q0 -19 35 -22q11 -1 70 -1q126 0 232 10q19 2 19 -13z" />
    <glyph glyph-name="three" unicode="3" horiz-adv-x="588" 
d="M549 325q0 -57 -34.5 -108t-84 -85.5t-117 -64t-121 -45.5t-108.5 -28q-16 -4 -25 -4q-30 0 -30 41q0 17 28 21q67 9 85 15q46 15 78.5 26.5t83.5 36.5t83.5 50t57 62.5t24.5 79.5q0 66 -42.5 90t-115.5 24q-11 0 -32 -1t-31 -1q-19 0 -27.5 7.5t-15.5 25.5q-2 6 -2 9
q0 14 23 34q5 4 29 25t31.5 28t27.5 25t30.5 29t25.5 27t27 30q13 15 13 25q0 23 -54 27q-47 4 -106 4h-26q-50 0 -120 -7q-2 0 -5 -0.5t-4 -0.5q-19 0 -19 15q0 9 5 21q7 17 15.5 24t25.5 7h295q28 0 40.5 -1.5t25 -11.5t17.5 -32q4 -16 4 -26q0 -18 -17 -37
q-27 -30 -81.5 -83.5t-77.5 -79.5q-13 -13 -13 -19q0 -10 34 -10q89 -3 144.5 -41.5t55.5 -122.5z" />
    <glyph glyph-name="four" unicode="4" horiz-adv-x="667" 
d="M444 178h-88q-44 0 -132 -1t-132 -1q-62 0 -62 41q0 23 21 67q51 106 143 234t179 217q1 1 15 15.5t22.5 23t21 17.5t20.5 9q13 0 29.5 -11t16.5 -23q0 -5 -10 -15t-24 -21.5t-16 -13.5q-86 -81 -176.5 -199.5t-132.5 -212.5q-10 -22 -10 -36q0 -28 48 -30q56 -3 170 -3
q65 0 98 1q1 35 1 104q0 46 -2.5 136t-2.5 136q0 21 37 21q38 0 38 -21q0 -45 -2.5 -135.5t-2.5 -135.5q0 -70 1 -105q15 0 44.5 1.5t44.5 1.5q10 0 15 -5t5.5 -10.5t0.5 -16.5t-0.5 -16.5t-5.5 -10.5t-15 -5q-15 0 -44 1.5t-44 1.5q3 -159 3 -160q0 -21 -38 -21
q-37 0 -37 21q0 1 3 160z" />
    <glyph glyph-name="five" unicode="5" horiz-adv-x="558" 
d="M412 722h-7q-78 9 -186 9q-34 0 -51 -1q-23 -2 -26 -22q-2 -15 -2 -70q0 -53 1 -79q1 -10 1.5 -14t4.5 -7.5t13 -3.5q16 0 46 2t45 2q260 0 260 -196q0 -59 -31 -112.5t-78 -91t-109.5 -69t-117.5 -50t-110 -31.5q-3 -1 -10 -1q-25 0 -25 38q0 18 24 25q77 20 122 37
q44 16 85 38t82.5 53t66.5 72.5t25 87.5q0 143 -203 143q-1 0 -106 -9h-9q-40 0 -40 36q0 14 0.5 40t0.5 40q0 29 -1.5 85t-1.5 84q0 32 44 32h314q23 0 23 -14q0 -17 -13 -35t-31 -18z" />
    <glyph glyph-name="six" unicode="6" horiz-adv-x="652" 
d="M350 -9h-15q-50 0 -90 5.5t-77.5 20t-62.5 38t-40 63t-15 91.5q0 124 115.5 298t231.5 270q26 21 47 21q16 0 38.5 -5.5t22.5 -14.5q0 -4 -7 -9q-32 -22 -55 -41q-97 -81 -179 -196q-12 -16 -12 -27q0 -12 20 -20q7 -2 36 -12.5t44 -16.5q180 -75 239 -202q16 -35 16 -70
q0 -63 -45 -109.5t-111 -67.5q-43 -14 -101 -16zM530 178q0 22 -10 45q-30 73 -110.5 127t-170.5 78q-9 3 -19 3q-22 0 -36 -22q-25 -40 -44 -97t-19 -99q0 -158 214 -158q44 0 85 10t75.5 39t34.5 74z" />
    <glyph glyph-name="seven" unicode="7" horiz-adv-x="540" 
d="M509 664q0 -23 -5 -51q-24 -128 -100.5 -270t-174.5 -268q-45 -57 -46 -58q-15 -16 -26.5 -19.5t-35.5 -3.5q-42 0 -42 16q0 9 12 21q50 50 73 77q96 110 173.5 245t94.5 252q2 20 2 31q0 87 -86 91q-41 2 -124 2q-33 0 -94 -5t-86 -6h-3q-10 -1 -15 4.5t-5 15.5
q0 19 9 35t27 16h320q63 0 97.5 -31.5t34.5 -93.5z" />
    <glyph glyph-name="eight" unicode="8" horiz-adv-x="651" 
d="M613 225q0 -114 -80.5 -176t-198.5 -62q-48 0 -86.5 4t-78.5 17t-66 34.5t-43 59t-17 88.5q0 76 42 139.5t113 125.5q9 9 9 14t-15.5 16t-34 24.5t-34 41.5t-15.5 64q0 92 67 140.5t162 48.5q84 0 151 -48t67 -129q0 -44 -16 -78t-34.5 -50t-34.5 -28.5t-16 -17.5
q0 -7 14 -13q76 -39 110.5 -86.5t34.5 -128.5zM488 621q0 58 -45.5 90t-105.5 32q-67 0 -114.5 -30.5t-47.5 -94.5q0 -27 16.5 -49.5t48.5 -39.5t52.5 -25t52.5 -19q13 -5 24 -5q15 0 34 12q85 53 85 129zM544 220q0 138 -212 208q-31 9 -42 9q-17 0 -31 -10
q-62 -41 -105 -102.5t-43 -127.5q0 -42 18 -72.5t49.5 -46.5t66 -23t74.5 -7q95 0 160 41.5t65 130.5z" />
    <glyph glyph-name="nine" unicode="9" horiz-adv-x="652" 
d="M309 797h15q50 0 90 -5.5t77.5 -20t62.5 -38t40 -63t15 -91.5q0 -124 -115.5 -298t-231.5 -270q-26 -21 -47 -21q-16 0 -38.5 5.5t-22.5 14.5q0 4 7 9q32 22 55 41q97 81 179 196q12 16 12 27q0 12 -20 20q-7 2 -36 12.5t-44 16.5q-180 75 -239 202q-16 35 -16 70
q0 63 45 109.5t111 67.5q43 14 101 16zM538 575q0 158 -214 158q-44 0 -85 -10t-75.5 -39t-34.5 -74q0 -22 10 -45q30 -73 110.5 -127t170.5 -78q9 -3 19 -3q22 0 36 22q25 40 44 97t19 99z" />
    <glyph glyph-name="colon" unicode=":" horiz-adv-x="230" 
d="M168 395q0 -29 -12 -41t-41 -12t-41 12t-12 41t12 41t41 12t41 -12t12 -41zM168 43q0 -29 -12 -41t-41 -12t-41 12t-12 41t12 41t41 12t41 -12t12 -41z" />
    <glyph glyph-name="semicolon" unicode=";" horiz-adv-x="230" 
d="M172 395q0 -29 -12 -41t-41 -12t-41 12t-12 41t12 41t41 12t41 -12t12 -41zM186 53q0 -11 -10 -23q-60 -76 -126 -175q-12 -17 -21 -17q-8 0 -18.5 8t-10.5 16q0 5 7 19q46 82 96 193q10 22 25 22q14 0 36 -15t22 -28z" />
    <glyph glyph-name="less" unicode="&#x3c;" horiz-adv-x="600" 
d="M554 99v-66l-508 230v58l508 230v-66l-425 -193z" />
    <glyph glyph-name="equal" unicode="=" horiz-adv-x="482" 
d="M442 472q0 -34 -19 -34q-29 0 -87 2.5t-87 2.5q-30 0 -90 -2.5t-90 -2.5q-19 0 -19 34t20 34q29 0 89 -2.5t90 -2.5q29 0 87 2.5t87 2.5q19 0 19 -34zM442 323q0 -34 -19 -34q-29 0 -87 2.5t-87 2.5q-30 0 -90 -2.5t-90 -2.5q-19 0 -19 34t20 34q29 0 89 -2.5t90 -2.5
q29 0 87 2.5t87 2.5q19 0 19 -34z" />
    <glyph glyph-name="greater" unicode="&#x3e;" horiz-adv-x="600" 
d="M46 99l425 193l-425 193v66l508 -230v-58l-508 -230v66z" />
    <glyph glyph-name="question" unicode="?" horiz-adv-x="466" 
d="M448 673q0 -35 -29.5 -78.5t-71 -86t-83 -86t-71 -90.5t-29.5 -87q0 -13 5.5 -31t5.5 -22q0 -9 -13.5 -14.5t-24.5 -5.5q-17 0 -28 26.5t-11 47.5q0 40 28 89t68 94.5t80 88.5t68 82.5t28 64.5q0 28 -26.5 45.5t-55 22.5t-56.5 5q-69 0 -176 -35q-1 0 -3.5 -1t-4.5 -1.5
t-4 -0.5q-12 0 -21 15.5t-9 27.5q0 13 18 20q36 15 105.5 24.5t119.5 9.5q44 0 84.5 -10t73.5 -39.5t33 -74.5zM206 43q0 -29 -12 -41t-41 -12t-41 12t-12 41t12 41t41 12t41 -12t12 -41z" />
    <glyph glyph-name="at" unicode="@" 
d="M788 394q0 -174 -99.5 -294t-269.5 -120t-269.5 120t-99.5 294q0 176 98.5 295.5t270.5 119.5q173 0 271 -119t98 -296zM723 394q0 97 -32.5 176t-103 130t-168.5 51q-145 0 -224.5 -103.5t-79.5 -253.5t79.5 -253t224.5 -103q146 0 225 102.5t79 253.5zM419 689
q23 0 44 -29q84 -119 194 -430q1 -3 1 -7q0 -14 -33 -14q-12 0 -16.5 0.5t-10.5 3.5t-11 11q-19 30 -27 40q-66 81 -227 140q-2 1 -7 1q-9 0 -16 -16q-25 -60 -55 -160q-3 -9 -7.5 -13.5t-10 -5.5t-16.5 -1q-35 0 -35 15q0 4 1 6q93 278 193 431q19 28 39 28zM347 467
q0 -9 13 -15q96 -38 153 -73q10 -6 15 -6q6 0 6 7q0 11 -43.5 103.5t-57.5 114.5q-7 10 -12 10q-7 0 -14 -12q-10 -16 -35 -67.5t-25 -61.5z" />
    <glyph glyph-name="A" unicode="A" horiz-adv-x="709" 
d="M729 15q0 -18 -28 -18h-6h-6h-5.5t-5 0.5t-4.5 1t-5 1t-4.5 2t-4 3l-3.5 3.5t-4 5q-3 5 -8.5 15.5t-9.5 15.5q-21 34 -39 58q-131 171 -369 256q-22 8 -35 8q-12 0 -22 -10t-12.5 -16.5t-9.5 -23.5q-28 -77 -66 -207q-10 -38 -14 -57q-2 -5 -4 -16t-4 -16q-5 -16 -13 -20
t-28 -4q-39 0 -39 18q0 5 1 7q72 244 178 479q72 163 132 254q31 46 59 46q34 0 67 -49q63 -98 134 -255q90 -202 176 -471q2 -6 2 -10zM584 242q0 11 -8 31q-95 247 -174 384q0 1 -3.5 6.5t-5 8t-5.5 8t-6.5 8.5t-6.5 7.5t-7 7t-7 4t-8 1.5q-19 0 -51 -56
q-18 -32 -59.5 -115t-41.5 -94q0 -12 21 -21q6 -2 46 -17t61 -24q111 -50 214 -133q24 -18 32 -18q9 0 9 12z" />
    <glyph glyph-name="B" unicode="B" horiz-adv-x="609" 
d="M583 145q0 -75 -57 -110t-137 -35h-273q-48 0 -48 40q0 58 2 175t2 176t-2 176t-2 175q0 47 52 47h200q22 0 39 -1t40.5 -4t40.5 -10.5t32.5 -18t24 -28.5t8.5 -41q0 -36 -22 -67t-44 -50t-22 -24t3 -10q2 -4 28.5 -48t33.5 -56.5t29 -52t30 -61t20.5 -55t17 -61.5
t4.5 -56zM426 681q0 15 -6.5 24.5t-20 14t-21.5 6t-22 2.5q-52 4 -101 4q-61 0 -90 -3q-17 -2 -21.5 -8t-5.5 -24q-2 -64 -2 -193q0 -18 12 -18q4 0 14 4q264 110 264 191zM505 162q0 75 -51 185q-43 91 -79 145q-11 17 -23 17q-7 0 -23 -7q-32 -15 -92.5 -39.5t-76.5 -31.5
q-14 -6 -19 -11.5t-5 -18.5q0 -70 2 -212q0 -85 1 -101q1 -15 6 -21t20 -7q27 -3 111 -3q56 0 120 4q50 4 79.5 25.5t29.5 75.5z" />
    <glyph glyph-name="C" unicode="C" horiz-adv-x="550" 
d="M40 485q0 145 87.5 229.5t233.5 84.5q93 0 146 -20q17 -7 17 -20q0 -14 -8.5 -29.5t-20.5 -15.5q-4 0 -10 2q-68 20 -131 20q-107 0 -172.5 -74.5t-65.5 -183.5q0 -136 89 -247t221 -158q24 -9 79 -19q10 -2 14 -3.5t7 -6.5t3 -14q0 -41 -28 -41h-7q-184 26 -319 169.5
t-135 326.5z" />
    <glyph glyph-name="D" unicode="D" horiz-adv-x="693" 
d="M113 789h302q110 0 174 -51.5t64 -158.5q0 -91 -48 -185.5t-123 -171t-162.5 -136.5t-172.5 -92q-23 -9 -41 -9q-38 0 -38 39q0 68 2 203t2 202q0 53 -2 158t-2 157q0 45 45 45zM139 361v-180q0 -69 1 -83q2 -30 18 -30q9 0 27 9q65 32 131 82t125.5 112t97 138t37.5 147
q0 79 -46.5 124t-126.5 49q-32 2 -98 2q-111 0 -136 -4q-10 -2 -14.5 -3t-7.5 -5.5t-3.5 -8.5t-1.5 -15q-1 -14 -1 -86q0 -3 -1 -73t-1 -105v-70z" />
    <glyph glyph-name="E" unicode="E" horiz-adv-x="545" 
d="M529 32q0 -14 -8 -19t-24 -8q-77 -12 -180 -12q-28 0 -42.5 0.5t-43.5 2.5t-47 7.5t-39.5 14t-36 24t-22.5 35.5q-17 42 -17 117q0 44 2 131t2 130q0 51 -2 152t-2 152q0 32 42 32q15 0 100.5 -2t130.5 -2q23 0 69 2t68 2q18 0 18 -30q0 -33 -17 -33q-14 0 -40.5 1
t-39.5 1q-49 2 -145 2h-68q-26 -1 -35 -13.5t-11 -39.5q-3 -49 -3 -98q0 -14 1.5 -21t8 -12t20.5 -5q115 0 172 1q9 0 26.5 1t31.5 1.5t26 0.5q10 0 15 -5t5.5 -10.5t0.5 -16.5t-0.5 -16.5t-5.5 -10t-15 -4.5q-42 0 -127.5 1.5t-128.5 1.5q-31 0 -31 -29q0 -38 -0.5 -113.5
t-0.5 -113.5q0 -107 37 -142.5t145 -35.5q84 0 168 18q10 2 15 2q14 0 21 -12.5t7 -28.5z" />
    <glyph glyph-name="F" unicode="F" horiz-adv-x="531" 
d="M515 760q0 -33 -17 -33q-13 0 -41 1t-42 1q-52 2 -157 2h-22h-26h-23q-26 -1 -35 -13t-11 -40q-3 -60 -3 -121q0 -14 1.5 -21t8 -12t20.5 -5q61 0 185 2q14 0 44 1t45 1q10 0 15 -5t5.5 -10.5t0.5 -16.5t-0.5 -16.5t-5.5 -10t-15 -4.5q-46 0 -137 1.5t-137 1.5
q-31 0 -31 -29q0 -70 2.5 -208t2.5 -208q0 -21 -36 -21q-38 0 -38 20q0 64 2.5 193.5t2.5 193.5q0 59 -2.5 177t-2.5 177q0 32 44 32q12 0 98 -2t132 -2q26 0 78 2t78 2q17 0 17 -30z" />
    <glyph glyph-name="G" unicode="G" horiz-adv-x="630" 
d="M40 487q0 149 85.5 231.5t235.5 82.5q118 0 169 -20q17 -7 17 -20q0 -14 -8.5 -29.5t-20.5 -15.5q-4 0 -10 2q-70 19 -137 19q-117 0 -186 -70t-69 -187q0 -134 88.5 -246.5t219.5 -158.5q18 -7 33 -7q39 0 39 46q0 3 1 68t1 117q0 25 -1 73.5t-1 73.5q0 21 -8 31.5
t-29 10.5t-63.5 -1t-64.5 -1q-10 0 -15 4.5t-5.5 10t-0.5 16.5t0.5 16t5.5 10t15 5q31 0 94 -1.5t95 -1.5q23 0 33.5 -8t10.5 -29q0 -29 -1 -87.5t-1 -87.5q0 -43 1 -129.5t1 -129.5q0 -78 -69 -78q-78 0 -171 49q-125 67 -204.5 186.5t-79.5 255.5z" />
    <glyph glyph-name="H" unicode="H" horiz-adv-x="681" 
d="M284 547h112q76 0 114 2q16 1 23.5 6.5t7.5 20.5q0 32 -2 97t-2 97q0 21 37 21q39 0 39 -20q0 -61 -2.5 -182t-2.5 -181q0 -65 2.5 -195t2.5 -195q0 -21 -39 -21q-37 0 -37 22q0 74 2.5 222t2.5 223q0 14 -6 18.5t-22 6.5q-18 2 -123 2h-103q-103 0 -121 -2
q-11 -1 -16 -2.5t-8.5 -7t-3.5 -15.5q0 -171 2.5 -307.5t2.5 -138.5q0 -21 -37 -21q-39 0 -39 20q0 64 2.5 193.5t2.5 193.5q0 61 -2.5 183t-2.5 182q0 22 39 22q37 0 37 -21q0 -32 -2 -97t-2 -97q0 -15 7.5 -20.5t23.5 -6.5q37 -2 113 -2z" />
    <glyph glyph-name="I" unicode="I" horiz-adv-x="214" 
d="M145 18q0 -21 -38 -21t-38 20q0 64 2.5 193.5t2.5 193.5q0 61 -2.5 183t-2.5 183q0 21 38 21t38 -20q0 -61 -2.5 -182t-2.5 -181q0 -65 2.5 -195t2.5 -195z" />
    <glyph glyph-name="J" unicode="J" horiz-adv-x="523" 
d="M455 477q0 -79 -3 -158q-2 -51 -10.5 -96t-27 -89t-45.5 -75t-70.5 -50.5t-98.5 -19.5q-114 0 -193 79q-7 7 -7 14q0 12 12.5 26.5t24.5 14.5q7 0 27 -16.5t52.5 -32.5t67.5 -16q55 0 95 24t62.5 66t33.5 87.5t13 97.5q2 40 2 119q0 124 -9 217q-3 31 -14.5 47t-40.5 16
q-31 0 -88.5 -3t-70.5 -4h-2q-12 -1 -17 8t-5 22q0 18 5 26t21 8q20 0 61.5 -1.5t62.5 -1.5q17 0 52.5 1.5t53.5 1.5q39 0 44 -46q12 -96 12 -266z" />
    <glyph glyph-name="K" unicode="K" horiz-adv-x="631" 
d="M621 16q0 -18 -48 -18q-14 0 -20.5 3.5t-11.5 16.5t-17 46t-20 51q-41 92 -105.5 198.5t-120.5 159.5q-12 12 -23 12q-16 0 -78 -54q-25 -21 -32.5 -38.5t-7.5 -51.5q0 -54 2.5 -161.5t2.5 -161.5q0 -21 -37 -21t-37 20q0 64 2.5 193.5t2.5 193.5q0 61 -2.5 183t-2.5 183
q0 21 37 21t37 -21q0 -1 -3 -58q-3 -71 -3 -142v-9.5v-13v-14t1.5 -15t3.5 -12.5t6 -9.5t9 -3.5q10 0 30 15q101 78 235 210q12 11 34.5 34t33.5 34q12 12 22 12q11 0 28.5 -13t17.5 -24q0 -8 -10 -18q-22 -22 -52 -47q-19 -17 -57.5 -51t-57.5 -51q-48 -42 -49 -43
q-12 -12 -12 -21q0 -7 5 -12q8 -10 31.5 -37.5t35.5 -43.5q151 -199 229 -417q1 -1 1 -4z" />
    <glyph glyph-name="L" unicode="L" horiz-adv-x="505" 
d="M495 27q0 -10 -5 -16t-10.5 -7.5t-16.5 -3.5q-51 -8 -146 -8q-28 0 -42.5 0.5t-43.5 2.5t-47 7.5t-39.5 14t-36 24t-22.5 35.5q-17 43 -17 117q0 43 2 130.5t2 130.5q0 52 -2 158t-2 158q0 21 37 21q39 0 39 -21q0 -34 -2 -95.5t-2 -81.5q-5 -303 -5 -363
q0 -107 37 -142.5t145 -35.5q66 0 134 14q10 2 15 2q14 0 21 -13t7 -28z" />
    <glyph glyph-name="M" unicode="M" horiz-adv-x="867" 
d="M805 19q0 -22 -37 -22t-37 22q0 14 2 42q2 62 2 92q0 84 -8 254q-4 74 -16 182q-8 65 -10 76q-6 29 -18 29q-10 0 -25 -18q-8 -9 -22 -28.5t-17 -23.5q-43 -59 -121 -183q-35 -57 -64 -57q-30 0 -65 57q-66 104 -122 183q-31 44 -38 52q-15 18 -25 18q-12 0 -18 -29
q-2 -11 -10 -76q-12 -104 -16 -182q-8 -170 -8 -254q0 -30 2 -92q2 -28 2 -42q0 -22 -37 -22t-37 22q0 162 14 386q15 227 34 325q14 68 55 68q28 0 59 -35q29 -34 58 -74t63 -91t53 -77q1 -1 5 -6.5t6.5 -8.5t7 -7t8.5 -6t9 -2q14 0 35 30q19 26 53 77t63 91t58 74
q31 35 59 35q41 0 55 -68q19 -98 34 -325q14 -224 14 -386z" />
    <glyph glyph-name="N" unicode="N" horiz-adv-x="640" 
d="M62 294q0 231 31 417q0 1 1.5 8t2 10.5t2 10.5t2.5 11t3 10.5t4 10.5t5 8.5t6 7.5t7 5q8 4 18 4q30 0 74 -31q119 -80 218 -185q17 -17 51 -58q7 -9 14 -9q12 0 12 24q0 42 -7 124.5t-8 102.5v4q-1 14 10.5 19t28.5 5q12 0 17.5 -1t10.5 -6t6 -16q1 -20 4 -123
q2 -87 2 -260q0 -268 -5 -372q-1 -19 -43 -19q-30 0 -30 17v5q12 114 12 343q0 37 -22 65q-54 69 -130 143.5t-139 114.5q-27 17 -41 17q-19 0 -27 -42q-25 -139 -25 -335q0 -60 7.5 -175.5t8.5 -130.5v-5q1 -10 -7 -13t-21 -3q-42 0 -44 17q-9 85 -9 280z" />
    <glyph glyph-name="O" unicode="O" 
d="M788 394q0 -111 -43 -204t-128.5 -151.5t-197.5 -58.5t-197.5 58.5t-128.5 152t-43 203.5q0 172 100.5 293.5t268.5 121.5q114 0 199 -58t127.5 -151.5t42.5 -205.5zM713 394q0 95 -30.5 172.5t-99 127.5t-164.5 50t-164.5 -50.5t-99 -127.5t-30.5 -172q0 -94 31 -171.5
t99 -127.5t164 -50t164.5 50t99 127t30.5 172z" />
    <glyph glyph-name="P" unicode="P" horiz-adv-x="577" 
d="M557 650q0 -168 -299 -328q-18 -10 -52 -26t-47 -23q-7 -4 -10 -5.5t-6.5 -4.5t-5 -7.5t-1.5 -10.5q0 -41 2.5 -115t2.5 -103v-3q1 -18 -7.5 -22.5t-28.5 -4.5t-28.5 5.5t-8.5 22.5q0 61 2 183t2 183q0 58 -2 174t-2 174q0 50 45 50h254q76 0 133 -34.5t57 -104.5z
M478 634q0 47 -30.5 69.5t-73.5 25.5q-45 3 -113 3q-71 0 -90 -2q-21 -2 -26.5 -11.5t-6.5 -32.5q-1 -19 -1 -116q0 -36 -0.5 -107.5t-0.5 -107.5q0 -18 11 -18q5 0 15 4q48 21 95 47.5t100.5 65t87 86t33.5 94.5z" />
    <glyph glyph-name="Q" unicode="Q" horiz-adv-x="861" 
d="M891 -29q0 -11 -15.5 -22.5t-26.5 -11.5q-9 0 -20 13q-33 46 -66 78.5t-82 66.5q-104 -115 -262 -115q-112 0 -197.5 58.5t-128.5 152t-43 203.5q0 172 100.5 293.5t268.5 121.5q114 0 199 -58t127.5 -151.5t42.5 -205.5q0 -140 -69 -247q96 -63 167 -163q5 -7 5 -13z
M715 394q0 95 -31 173t-100 128.5t-165 50.5t-164.5 -51t-100 -129t-31.5 -172q0 -146 77.5 -248.5t218.5 -102.5q127 0 208 88q-93 50 -208 61q-9 1 -28 2t-28 2q-19 1 -19 18q0 14 0.5 20t6 13.5t16.5 7.5q163 0 298 -72q50 85 50 211z" />
    <glyph glyph-name="R" unicode="R" horiz-adv-x="602" 
d="M584 10q0 -14 -48 -14q-15 0 -22 3t-10 16q-4 16 -11.5 50t-12.5 51q-32 121 -70 214q-31 72 -44 92q-9 12 -19 12q-9 0 -17 -5q-16 -8 -47 -25t-47 -26q-5 -3 -33.5 -16.5t-43.5 -21.5q-9 -5 -13.5 -8.5t-7 -9.5t-2.5 -16q0 -46 5 -279v-4q1 -17 -7.5 -21.5t-28.5 -4.5
t-28.5 5t-8.5 24q0 61 2 183t2 183q0 58 -2 174t-2 174q0 49 43 49h256q80 0 125.5 -28t45.5 -101q0 -36 -21 -71.5t-39.5 -52.5t-56.5 -50q-8 -6 -8 -13q0 -5 3 -9q94 -175 167 -450l1 -2v-2zM460 658q0 39 -26 53.5t-71 17.5q-57 3 -115 3q-56 0 -83 -2q-18 -1 -22 -7
t-5 -25q-1 -31 -1 -93q0 -27 -0.5 -83t-0.5 -83q0 -31 18 -31q8 0 31 10q38 17 77.5 39.5t88 55t79 71.5t30.5 74z" />
    <glyph glyph-name="S" unicode="S" horiz-adv-x="498" 
d="M470 185q0 -61 -42 -107t-99.5 -67t-116.5 -21q-117 0 -188 37q-12 6 -12 18q0 13 10.5 30.5t21.5 17.5q5 0 11 -3q79 -38 166 -38q61 0 116.5 39.5t55.5 97.5q0 46 -33.5 94t-81.5 89.5t-96.5 82.5t-82 88t-33.5 93q0 82 56 121.5t142 39.5q31 0 78 -5.5t67 -14.5
q16 -6 16 -21q0 -13 -9 -30t-20 -17q-3 0 -9 2q-86 26 -128 26q-48 0 -83 -26.5t-35 -72.5q0 -37 34 -78.5t82 -81t96.5 -82t82.5 -98t34 -113.5z" />
    <glyph glyph-name="T" unicode="T" horiz-adv-x="587" 
d="M584 760q0 -33 -17 -33q-35 0 -106 2t-106 2q-22 0 -24 -25q-5 -80 -5 -299q0 -65 2.5 -194.5t2.5 -194.5q0 -21 -37 -21t-37 21q0 64 2.5 193t2.5 194q0 227 -5 304q-1 22 -26 22q-35 0 -104.5 -2t-104.5 -2q-17 0 -17 33q0 30 18 30q50 0 148.5 -2t148.5 -2q41 0 123 2
t124 2q17 0 17 -30z" />
    <glyph glyph-name="U" unicode="U" horiz-adv-x="735" 
d="M55 400q0 108 24 245q15 85 25 120q4 13 9 18t10.5 6t21.5 1q32 0 32 -17q0 -5 -1 -7q-55 -208 -55 -365q0 -93 29 -169t95 -127t161 -51q96 0 160 35q33 17 33 51q0 44 -0.5 132.5t-0.5 132.5q0 61 -2.5 182.5t-2.5 182.5q0 21 37 21t37 -21q0 -60 -2.5 -181t-2.5 -182
q0 -51 2.5 -153t2.5 -153q0 -23 -8.5 -35.5t-29.5 -25.5q-36 -22 -101 -36t-115 -14q-358 0 -358 410z" />
    <glyph glyph-name="V" unicode="V" horiz-adv-x="644" 
d="M629 770v-5q-38 -330 -175 -608q-39 -80 -66 -121q-34 -52 -67 -52q-32 0 -65 52q-31 49 -66 121q-137 278 -175 608v5q0 22 34 22q13 0 19.5 -0.5t13.5 -5.5t8 -14q2 -12 3 -34.5t2 -29.5q8 -70 14 -105q36 -212 129 -399q25 -51 46 -85q19 -33 38 -33q18 0 38 33
q21 34 46 85q92 182 129 399q6 37 14 106q1 7 2 29.5t3 33.5q1 10 8.5 14.5t13.5 5t19 0.5q34 0 34 -22z" />
    <glyph glyph-name="W" unicode="W" horiz-adv-x="951" 
d="M936 772v-5q-57 -441 -243 -732q-31 -49 -64 -49q-32 0 -64 50q-4 7 -70 124q-12 21 -20 21t-22 -24q-65 -115 -69 -122q-30 -49 -63 -49q-32 0 -65 50q-100 159 -165.5 354.5t-75.5 374.5v5q-1 14 8 18t25 4h9.5h9.5t7.5 -1t7 -3t4 -6t2.5 -10q22 -226 57 -332
q64 -198 138 -321q20 -33 38 -33q20 0 45 42q71 120 71 153q0 13 -26 87q-79 240 -87 397v5q-1 14 8 18t25 4h9.5h9.5t7.5 -1t7 -3t4 -6t2.5 -10q22 -226 57 -332q64 -198 138 -321q20 -33 37 -33q20 0 45 42q70 117 119 270q40 123 60 287q2 14 4.5 42.5t3.5 42.5
q1 11 7 16t10.5 5.5t19.5 0.5q38 0 38 -20z" />
    <glyph glyph-name="X" unicode="X" horiz-adv-x="619" 
d="M604 10q1 -13 -38 -13q-34 0 -37 18q-31 193 -189 396q-23 29 -31 29q-7 0 -29 -27q-160 -209 -190 -398q-3 -18 -37 -18q-39 0 -38 13v2q4 52 21.5 107.5t37 96.5t57 98t60 86.5t67.5 87.5q7 9 7 14q0 8 -47 61t-105.5 115.5t-66.5 71.5q-7 9 -7 16q0 12 16.5 25.5
t28.5 13.5q8 0 20 -12q17 -19 49 -59q22 -26 65.5 -77t65.5 -77q20 -20 25 -20q8 0 26 21q38 43 125 147q5 6 24.5 29.5t30.5 35.5q12 12 20 12q12 0 28.5 -13.5t16.5 -25.5q0 -7 -7 -16q-8 -9 -67 -71t-106 -115t-47 -62q0 -6 7 -15q57 -72 85.5 -111.5t70.5 -106.5
t62.5 -129.5t25.5 -127.5v-2z" />
    <glyph glyph-name="Y" unicode="Y" horiz-adv-x="615" 
d="M339 288v-45q0 -92 2 -137q0 -9 2 -40t2 -48q0 -21 -38 -21t-38 21q0 16 2 46t2 40q2 47 2 143v45q-81 77 -156.5 216.5t-111.5 262.5q-1 3 -1 8q0 12 35 12q13 0 18.5 -0.5t13.5 -5t10 -13.5q10 -41 24 -85q25 -73 64.5 -150t82.5 -124q35 -38 55 -38q19 0 54 38
q45 50 85.5 130t64.5 155q9 27 20 71q4 16 11 19t28 3q38 0 38 -13q0 -1 -2 -9q-37 -121 -114.5 -265.5t-154.5 -215.5z" />
    <glyph glyph-name="Z" unicode="Z" horiz-adv-x="563" 
d="M543 58q0 -11 -1 -16q-4 -25 -12.5 -33.5t-34.5 -8.5h-417q-60 0 -60 55q0 14 5 31q18 57 60.5 128.5t105.5 152t104 129t103 118.5q49 58 49 82q0 35 -80 38q-29 2 -88 2q-120 0 -189 -17q-8 -2 -14 -2q-16 0 -16 21q0 5 2 17q5 22 11 28.5t28 7.5q45 3 136 3
q123 0 205 -6q88 -7 88 -65q0 -49 -61 -119q-7 -8 -68.5 -78t-85 -98.5t-69.5 -87t-73.5 -105t-46.5 -90.5q-12 -28 -12 -46q0 -15 11.5 -23.5t21.5 -10.5t27 -3q51 -4 114 -4q117 0 226 16q10 2 16 2q15 0 15 -18z" />
    <glyph glyph-name="bracketleft" unicode="[" horiz-adv-x="307" 
d="M320 -64q0 -17 -4 -22.5t-20 -5.5h-180q-22 0 -29 6.5t-7 29.5q0 75 2 225t2 225q0 76 -2 228t-2 228q0 22 7 28.5t29 6.5h180q16 0 20 -5.5t4 -22.5q0 -29 -18 -29h-6q-52 5 -94 5h-21q-18 -1 -23.5 -7.5t-6.5 -25.5q-4 -112 -4 -409q0 -228 4 -398q0 -8 1 -14t4.5 -9.5
t5 -5.5t8 -3t8.5 -1h12h12q42 0 94 5h6q18 0 18 -29z" />
    <glyph glyph-name="backslash" unicode="\" horiz-adv-x="492" 
d="M512 29q0 -11 -18 -23t-30 -12q-8 0 -13 8q-5 7 -75 125q-136 223 -157 256q-102 162 -154 242q-14 22 -42 64.5t-42 63.5q-4 6 -4 10q0 10 18.5 22.5t29.5 12.5q9 0 14 -9q15 -23 41.5 -68t36.5 -61q86 -143 151 -246q86 -138 162 -254q7 -10 35.5 -53.5t43.5 -67.5
q3 -5 3 -10z" />
    <glyph glyph-name="bracketright" unicode="]" horiz-adv-x="307" 
d="M-13 857q0 17 4 22.5t20 5.5h180q22 0 29 -6.5t7 -29.5q0 -75 -2 -225t-2 -225q0 -76 2 -228t2 -228q0 -22 -7 -28.5t-29 -6.5h-180q-16 0 -20 5.5t-4 22.5q0 29 18 29h6q52 -5 94 -5h21q18 1 23.5 7.5t6.5 25.5q4 112 4 409q0 228 -4 398q0 8 -1 14t-4.5 9.5t-5 5.5
t-8 3t-8.5 1h-12h-12q-42 0 -94 -5h-6q-18 0 -18 29z" />
    <glyph glyph-name="asciicircum" unicode="^" horiz-adv-x="477" 
d="M14 629q0 10 15 23l162 151q16 16 48 16q27 0 47 -18l161 -149q16 -14 16 -23q0 -8 -9.5 -17t-17.5 -9q-7 0 -21 10l-177 129l-176 -129q-14 -10 -21 -10q-8 0 -17.5 9t-9.5 17z" />
    <glyph glyph-name="underscore" unicode="_" horiz-adv-x="500" 
d="M500 -125h-500v50h500v-50z" />
    <glyph glyph-name="grave" unicode="`" horiz-adv-x="297" 
d="M271 664q0 -7 -9 -16.5t-16 -9.5q-8 0 -21 9q-91 59 -180 106q-19 12 -19 22q0 13 17.5 32t30.5 19q11 0 23 -12q79 -70 159 -131q15 -13 15 -19z" />
    <glyph glyph-name="a" unicode="a" horiz-adv-x="709" 
d="M729 15q0 -18 -28 -18h-6h-6h-5.5t-5 0.5t-4.5 1t-5 1t-4.5 2t-4 3l-3.5 3.5t-4 5q-3 5 -8.5 15.5t-9.5 15.5q-21 34 -39 58q-131 171 -369 256q-22 8 -35 8q-12 0 -22 -10t-12.5 -16.5t-9.5 -23.5q-28 -77 -66 -207q-10 -38 -14 -57q-2 -5 -4 -16t-4 -16q-5 -16 -13 -20
t-28 -4q-39 0 -39 18q0 5 1 7q72 244 178 479q72 163 132 254q31 46 59 46q34 0 67 -49q63 -98 134 -255q90 -202 176 -471q2 -6 2 -10zM584 242q0 11 -8 31q-95 247 -174 384q0 1 -3.5 6.5t-5 8t-5.5 8t-6.5 8.5t-6.5 7.5t-7 7t-7 4t-8 1.5q-19 0 -51 -56
q-18 -32 -59.5 -115t-41.5 -94q0 -12 21 -21q6 -2 46 -17t61 -24q111 -50 214 -133q24 -18 32 -18q9 0 9 12z" />
    <glyph glyph-name="b" unicode="b" horiz-adv-x="609" 
d="M583 145q0 -75 -57 -110t-137 -35h-273q-48 0 -48 40q0 58 2 175t2 176t-2 176t-2 175q0 47 52 47h200q22 0 39 -1t40.5 -4t40.5 -10.5t32.5 -18t24 -28.5t8.5 -41q0 -36 -22 -67t-44 -50t-22 -24t3 -10q2 -4 28.5 -48t33.5 -56.5t29 -52t30 -61t20.5 -55t17 -61.5
t4.5 -56zM426 681q0 15 -6.5 24.5t-20 14t-21.5 6t-22 2.5q-52 4 -101 4q-61 0 -90 -3q-17 -2 -21.5 -8t-5.5 -24q-2 -64 -2 -193q0 -18 12 -18q4 0 14 4q264 110 264 191zM505 162q0 75 -51 185q-43 91 -79 145q-11 17 -23 17q-7 0 -23 -7q-32 -15 -92.5 -39.5t-76.5 -31.5
q-14 -6 -19 -11.5t-5 -18.5q0 -70 2 -212q0 -85 1 -101q1 -15 6 -21t20 -7q27 -3 111 -3q56 0 120 4q50 4 79.5 25.5t29.5 75.5z" />
    <glyph glyph-name="c" unicode="c" horiz-adv-x="550" 
d="M40 485q0 145 87.5 229.5t233.5 84.5q93 0 146 -20q17 -7 17 -20q0 -14 -8.5 -29.5t-20.5 -15.5q-4 0 -10 2q-68 20 -131 20q-107 0 -172.5 -74.5t-65.5 -183.5q0 -136 89 -247t221 -158q24 -9 79 -19q10 -2 14 -3.5t7 -6.5t3 -14q0 -41 -28 -41h-7q-184 26 -319 169.5
t-135 326.5z" />
    <glyph glyph-name="d" unicode="d" horiz-adv-x="693" 
d="M113 789h302q110 0 174 -51.5t64 -158.5q0 -91 -48 -185.5t-123 -171t-162.5 -136.5t-172.5 -92q-23 -9 -41 -9q-38 0 -38 39q0 68 2 203t2 202q0 53 -2 158t-2 157q0 45 45 45zM139 361v-180q0 -69 1 -83q2 -30 18 -30q9 0 27 9q65 32 131 82t125.5 112t97 138t37.5 147
q0 79 -46.5 124t-126.5 49q-32 2 -98 2q-111 0 -136 -4q-10 -2 -14.5 -3t-7.5 -5.5t-3.5 -8.5t-1.5 -15q-1 -14 -1 -86q0 -3 -1 -73t-1 -105v-70z" />
    <glyph glyph-name="e" unicode="e" horiz-adv-x="545" 
d="M529 32q0 -14 -8 -19t-24 -8q-77 -12 -180 -12q-28 0 -42.5 0.5t-43.5 2.5t-47 7.5t-39.5 14t-36 24t-22.5 35.5q-17 42 -17 117q0 44 2 131t2 130q0 51 -2 152t-2 152q0 32 42 32q15 0 100.5 -2t130.5 -2q23 0 69 2t68 2q18 0 18 -30q0 -33 -17 -33q-14 0 -40.5 1
t-39.5 1q-49 2 -145 2h-68q-26 -1 -35 -13.5t-11 -39.5q-3 -49 -3 -98q0 -14 1.5 -21t8 -12t20.5 -5q115 0 172 1q9 0 26.5 1t31.5 1.5t26 0.5q10 0 15 -5t5.5 -10.5t0.5 -16.5t-0.5 -16.5t-5.5 -10t-15 -4.5q-42 0 -127.5 1.5t-128.5 1.5q-31 0 -31 -29q0 -38 -0.5 -113.5
t-0.5 -113.5q0 -107 37 -142.5t145 -35.5q84 0 168 18q10 2 15 2q14 0 21 -12.5t7 -28.5z" />
    <glyph glyph-name="f" unicode="f" horiz-adv-x="531" 
d="M515 760q0 -33 -17 -33q-13 0 -41 1t-42 1q-52 2 -157 2h-22h-26h-23q-26 -1 -35 -13t-11 -40q-3 -60 -3 -121q0 -14 1.5 -21t8 -12t20.5 -5q61 0 185 2q14 0 44 1t45 1q10 0 15 -5t5.5 -10.5t0.5 -16.5t-0.5 -16.5t-5.5 -10t-15 -4.5q-46 0 -137 1.5t-137 1.5
q-31 0 -31 -29q0 -70 2.5 -208t2.5 -208q0 -21 -36 -21q-38 0 -38 20q0 64 2.5 193.5t2.5 193.5q0 59 -2.5 177t-2.5 177q0 32 44 32q12 0 98 -2t132 -2q26 0 78 2t78 2q17 0 17 -30z" />
    <glyph glyph-name="g" unicode="g" horiz-adv-x="630" 
d="M40 487q0 149 85.5 231.5t235.5 82.5q118 0 169 -20q17 -7 17 -20q0 -14 -8.5 -29.5t-20.5 -15.5q-4 0 -10 2q-70 19 -137 19q-117 0 -186 -70t-69 -187q0 -134 88.5 -246.5t219.5 -158.5q18 -7 33 -7q39 0 39 46q0 3 1 68t1 117q0 25 -1 73.5t-1 73.5q0 21 -8 31.5
t-29 10.5t-63.5 -1t-64.5 -1q-10 0 -15 4.5t-5.5 10t-0.5 16.5t0.5 16t5.5 10t15 5q31 0 94 -1.5t95 -1.5q23 0 33.5 -8t10.5 -29q0 -29 -1 -87.5t-1 -87.5q0 -43 1 -129.5t1 -129.5q0 -78 -69 -78q-78 0 -171 49q-125 67 -204.5 186.5t-79.5 255.5z" />
    <glyph glyph-name="h" unicode="h" horiz-adv-x="681" 
d="M284 547h112q76 0 114 2q16 1 23.5 6.5t7.5 20.5q0 32 -2 97t-2 97q0 21 37 21q39 0 39 -20q0 -61 -2.5 -182t-2.5 -181q0 -65 2.5 -195t2.5 -195q0 -21 -39 -21q-37 0 -37 22q0 74 2.5 222t2.5 223q0 14 -6 18.5t-22 6.5q-18 2 -123 2h-103q-103 0 -121 -2
q-11 -1 -16 -2.5t-8.5 -7t-3.5 -15.5q0 -171 2.5 -307.5t2.5 -138.5q0 -21 -37 -21q-39 0 -39 20q0 64 2.5 193.5t2.5 193.5q0 61 -2.5 183t-2.5 182q0 22 39 22q37 0 37 -21q0 -32 -2 -97t-2 -97q0 -15 7.5 -20.5t23.5 -6.5q37 -2 113 -2z" />
    <glyph glyph-name="i" unicode="i" horiz-adv-x="214" 
d="M145 18q0 -21 -38 -21t-38 20q0 64 2.5 193.5t2.5 193.5q0 61 -2.5 183t-2.5 183q0 21 38 21t38 -20q0 -61 -2.5 -182t-2.5 -181q0 -65 2.5 -195t2.5 -195z" />
    <glyph glyph-name="j" unicode="j" horiz-adv-x="523" 
d="M455 477q0 -79 -3 -158q-2 -51 -10.5 -96t-27 -89t-45.5 -75t-70.5 -50.5t-98.5 -19.5q-114 0 -193 79q-7 7 -7 14q0 12 12.5 26.5t24.5 14.5q7 0 27 -16.5t52.5 -32.5t67.5 -16q55 0 95 24t62.5 66t33.5 87.5t13 97.5q2 40 2 119q0 124 -9 217q-3 31 -14.5 47t-40.5 16
q-31 0 -88.5 -3t-70.5 -4h-2q-12 -1 -17 8t-5 22q0 18 5 26t21 8q20 0 61.5 -1.5t62.5 -1.5q17 0 52.5 1.5t53.5 1.5q39 0 44 -46q12 -96 12 -266z" />
    <glyph glyph-name="k" unicode="k" horiz-adv-x="631" 
d="M621 16q0 -18 -48 -18q-14 0 -20.5 3.5t-11.5 16.5t-17 46t-20 51q-41 92 -105.5 198.5t-120.5 159.5q-12 12 -23 12q-16 0 -78 -54q-25 -21 -32.5 -38.5t-7.5 -51.5q0 -54 2.5 -161.5t2.5 -161.5q0 -21 -37 -21t-37 20q0 64 2.5 193.5t2.5 193.5q0 61 -2.5 183t-2.5 183
q0 21 37 21t37 -21q0 -1 -3 -58q-3 -71 -3 -142v-9.5v-13v-14t1.5 -15t3.5 -12.5t6 -9.5t9 -3.5q10 0 30 15q101 78 235 210q12 11 34.5 34t33.5 34q12 12 22 12q11 0 28.5 -13t17.5 -24q0 -8 -10 -18q-22 -22 -52 -47q-19 -17 -57.5 -51t-57.5 -51q-48 -42 -49 -43
q-12 -12 -12 -21q0 -7 5 -12q8 -10 31.5 -37.5t35.5 -43.5q151 -199 229 -417q1 -1 1 -4z" />
    <glyph glyph-name="l" unicode="l" horiz-adv-x="505" 
d="M495 27q0 -10 -5 -16t-10.5 -7.5t-16.5 -3.5q-51 -8 -146 -8q-28 0 -42.5 0.5t-43.5 2.5t-47 7.5t-39.5 14t-36 24t-22.5 35.5q-17 43 -17 117q0 43 2 130.5t2 130.5q0 52 -2 158t-2 158q0 21 37 21q39 0 39 -21q0 -34 -2 -95.5t-2 -81.5q-5 -303 -5 -363
q0 -107 37 -142.5t145 -35.5q66 0 134 14q10 2 15 2q14 0 21 -13t7 -28z" />
    <glyph glyph-name="m" unicode="m" horiz-adv-x="867" 
d="M805 19q0 -22 -37 -22t-37 22q0 14 2 42q2 62 2 92q0 84 -8 254q-4 74 -16 182q-8 65 -10 76q-6 29 -18 29q-10 0 -25 -18q-8 -9 -22 -28.5t-17 -23.5q-43 -59 -121 -183q-35 -57 -64 -57q-30 0 -65 57q-66 104 -122 183q-31 44 -38 52q-15 18 -25 18q-12 0 -18 -29
q-2 -11 -10 -76q-12 -104 -16 -182q-8 -170 -8 -254q0 -30 2 -92q2 -28 2 -42q0 -22 -37 -22t-37 22q0 162 14 386q15 227 34 325q14 68 55 68q28 0 59 -35q29 -34 58 -74t63 -91t53 -77q1 -1 5 -6.5t6.5 -8.5t7 -7t8.5 -6t9 -2q14 0 35 30q19 26 53 77t63 91t58 74
q31 35 59 35q41 0 55 -68q19 -98 34 -325q14 -224 14 -386z" />
    <glyph glyph-name="n" unicode="n" horiz-adv-x="640" 
d="M62 294q0 231 31 417q0 1 1.5 8t2 10.5t2 10.5t2.5 11t3 10.5t4 10.5t5 8.5t6 7.5t7 5q8 4 18 4q30 0 74 -31q119 -80 218 -185q17 -17 51 -58q7 -9 14 -9q12 0 12 24q0 42 -7 124.5t-8 102.5v4q-1 14 10.5 19t28.5 5q12 0 17.5 -1t10.5 -6t6 -16q1 -20 4 -123
q2 -87 2 -260q0 -268 -5 -372q-1 -19 -43 -19q-30 0 -30 17v5q12 114 12 343q0 37 -22 65q-54 69 -130 143.5t-139 114.5q-27 17 -41 17q-19 0 -27 -42q-25 -139 -25 -335q0 -60 7.5 -175.5t8.5 -130.5v-5q1 -10 -7 -13t-21 -3q-42 0 -44 17q-9 85 -9 280z" />
    <glyph glyph-name="o" unicode="o" 
d="M788 394q0 -111 -43 -204t-128.5 -151.5t-197.5 -58.5t-197.5 58.5t-128.5 152t-43 203.5q0 172 100.5 293.5t268.5 121.5q114 0 199 -58t127.5 -151.5t42.5 -205.5zM713 394q0 95 -30.5 172.5t-99 127.5t-164.5 50t-164.5 -50.5t-99 -127.5t-30.5 -172q0 -94 31 -171.5
t99 -127.5t164 -50t164.5 50t99 127t30.5 172z" />
    <glyph glyph-name="p" unicode="p" horiz-adv-x="577" 
d="M557 650q0 -168 -299 -328q-18 -10 -52 -26t-47 -23q-7 -4 -10 -5.5t-6.5 -4.5t-5 -7.5t-1.5 -10.5q0 -41 2.5 -115t2.5 -103v-3q1 -18 -7.5 -22.5t-28.5 -4.5t-28.5 5.5t-8.5 22.5q0 61 2 183t2 183q0 58 -2 174t-2 174q0 50 45 50h254q76 0 133 -34.5t57 -104.5z
M478 634q0 47 -30.5 69.5t-73.5 25.5q-45 3 -113 3q-71 0 -90 -2q-21 -2 -26.5 -11.5t-6.5 -32.5q-1 -19 -1 -116q0 -36 -0.5 -107.5t-0.5 -107.5q0 -18 11 -18q5 0 15 4q48 21 95 47.5t100.5 65t87 86t33.5 94.5z" />
    <glyph glyph-name="q" unicode="q" horiz-adv-x="861" 
d="M891 -29q0 -11 -15.5 -22.5t-26.5 -11.5q-9 0 -20 13q-33 46 -66 78.5t-82 66.5q-104 -115 -262 -115q-112 0 -197.5 58.5t-128.5 152t-43 203.5q0 172 100.5 293.5t268.5 121.5q114 0 199 -58t127.5 -151.5t42.5 -205.5q0 -140 -69 -247q96 -63 167 -163q5 -7 5 -13z
M715 394q0 95 -31 173t-100 128.5t-165 50.5t-164.5 -51t-100 -129t-31.5 -172q0 -146 77.5 -248.5t218.5 -102.5q127 0 208 88q-93 50 -208 61q-9 1 -28 2t-28 2q-19 1 -19 18q0 14 0.5 20t6 13.5t16.5 7.5q163 0 298 -72q50 85 50 211z" />
    <glyph glyph-name="r" unicode="r" horiz-adv-x="602" 
d="M584 10q0 -14 -48 -14q-15 0 -22 3t-10 16q-4 16 -11.5 50t-12.5 51q-32 121 -70 214q-31 72 -44 92q-9 12 -19 12q-9 0 -17 -5q-16 -8 -47 -25t-47 -26q-5 -3 -33.5 -16.5t-43.5 -21.5q-9 -5 -13.5 -8.5t-7 -9.5t-2.5 -16q0 -46 5 -279v-4q1 -17 -7.5 -21.5t-28.5 -4.5
t-28.5 5t-8.5 24q0 61 2 183t2 183q0 58 -2 174t-2 174q0 49 43 49h256q80 0 125.5 -28t45.5 -101q0 -36 -21 -71.5t-39.5 -52.5t-56.5 -50q-8 -6 -8 -13q0 -5 3 -9q94 -175 167 -450l1 -2v-2zM460 658q0 39 -26 53.5t-71 17.5q-57 3 -115 3q-56 0 -83 -2q-18 -1 -22 -7
t-5 -25q-1 -31 -1 -93q0 -27 -0.5 -83t-0.5 -83q0 -31 18 -31q8 0 31 10q38 17 77.5 39.5t88 55t79 71.5t30.5 74z" />
    <glyph glyph-name="s" unicode="s" horiz-adv-x="498" 
d="M470 185q0 -61 -42 -107t-99.5 -67t-116.5 -21q-117 0 -188 37q-12 6 -12 18q0 13 10.5 30.5t21.5 17.5q5 0 11 -3q79 -38 166 -38q61 0 116.5 39.5t55.5 97.5q0 46 -33.5 94t-81.5 89.5t-96.5 82.5t-82 88t-33.5 93q0 82 56 121.5t142 39.5q31 0 78 -5.5t67 -14.5
q16 -6 16 -21q0 -13 -9 -30t-20 -17q-3 0 -9 2q-86 26 -128 26q-48 0 -83 -26.5t-35 -72.5q0 -37 34 -78.5t82 -81t96.5 -82t82.5 -98t34 -113.5z" />
    <glyph glyph-name="t" unicode="t" horiz-adv-x="587" 
d="M584 760q0 -33 -17 -33q-35 0 -106 2t-106 2q-22 0 -24 -25q-5 -80 -5 -299q0 -65 2.5 -194.5t2.5 -194.5q0 -21 -37 -21t-37 21q0 64 2.5 193t2.5 194q0 227 -5 304q-1 22 -26 22q-35 0 -104.5 -2t-104.5 -2q-17 0 -17 33q0 30 18 30q50 0 148.5 -2t148.5 -2q41 0 123 2
t124 2q17 0 17 -30z" />
    <glyph glyph-name="u" unicode="u" horiz-adv-x="735" 
d="M55 400q0 108 24 245q15 85 25 120q4 13 9 18t10.5 6t21.5 1q32 0 32 -17q0 -5 -1 -7q-55 -208 -55 -365q0 -93 29 -169t95 -127t161 -51q96 0 160 35q33 17 33 51q0 44 -0.5 132.5t-0.5 132.5q0 61 -2.5 182.5t-2.5 182.5q0 21 37 21t37 -21q0 -60 -2.5 -181t-2.5 -182
q0 -51 2.5 -153t2.5 -153q0 -23 -8.5 -35.5t-29.5 -25.5q-36 -22 -101 -36t-115 -14q-358 0 -358 410z" />
    <glyph glyph-name="v" unicode="v" horiz-adv-x="644" 
d="M629 770v-5q-38 -330 -175 -608q-39 -80 -66 -121q-34 -52 -67 -52q-32 0 -65 52q-31 49 -66 121q-137 278 -175 608v5q0 22 34 22q13 0 19.5 -0.5t13.5 -5.5t8 -14q2 -12 3 -34.5t2 -29.5q8 -70 14 -105q36 -212 129 -399q25 -51 46 -85q19 -33 38 -33q18 0 38 33
q21 34 46 85q92 182 129 399q6 37 14 106q1 7 2 29.5t3 33.5q1 10 8.5 14.5t13.5 5t19 0.5q34 0 34 -22z" />
    <glyph glyph-name="w" unicode="w" horiz-adv-x="951" 
d="M936 772v-5q-57 -441 -243 -732q-31 -49 -64 -49q-32 0 -64 50q-4 7 -70 124q-12 21 -20 21t-22 -24q-65 -115 -69 -122q-30 -49 -63 -49q-32 0 -65 50q-100 159 -165.5 354.5t-75.5 374.5v5q-1 14 8 18t25 4h9.5h9.5t7.5 -1t7 -3t4 -6t2.5 -10q22 -226 57 -332
q64 -198 138 -321q20 -33 38 -33q20 0 45 42q71 120 71 153q0 13 -26 87q-79 240 -87 397v5q-1 14 8 18t25 4h9.5h9.5t7.5 -1t7 -3t4 -6t2.5 -10q22 -226 57 -332q64 -198 138 -321q20 -33 37 -33q20 0 45 42q70 117 119 270q40 123 60 287q2 14 4.5 42.5t3.5 42.5
q1 11 7 16t10.5 5.5t19.5 0.5q38 0 38 -20z" />
    <glyph glyph-name="x" unicode="x" horiz-adv-x="619" 
d="M604 10q1 -13 -38 -13q-34 0 -37 18q-31 193 -189 396q-23 29 -31 29q-7 0 -29 -27q-160 -209 -190 -398q-3 -18 -37 -18q-39 0 -38 13v2q4 52 21.5 107.5t37 96.5t57 98t60 86.5t67.5 87.5q7 9 7 14q0 8 -47 61t-105.5 115.5t-66.5 71.5q-7 9 -7 16q0 12 16.5 25.5
t28.5 13.5q8 0 20 -12q17 -19 49 -59q22 -26 65.5 -77t65.5 -77q20 -20 25 -20q8 0 26 21q38 43 125 147q5 6 24.5 29.5t30.5 35.5q12 12 20 12q12 0 28.5 -13.5t16.5 -25.5q0 -7 -7 -16q-8 -9 -67 -71t-106 -115t-47 -62q0 -6 7 -15q57 -72 85.5 -111.5t70.5 -106.5
t62.5 -129.5t25.5 -127.5v-2z" />
    <glyph glyph-name="y" unicode="y" horiz-adv-x="615" 
d="M339 288v-45q0 -92 2 -137q0 -9 2 -40t2 -48q0 -21 -38 -21t-38 21q0 16 2 46t2 40q2 47 2 143v45q-81 77 -156.5 216.5t-111.5 262.5q-1 3 -1 8q0 12 35 12q13 0 18.5 -0.5t13.5 -5t10 -13.5q10 -41 24 -85q25 -73 64.5 -150t82.5 -124q35 -38 55 -38q19 0 54 38
q45 50 85.5 130t64.5 155q9 27 20 71q4 16 11 19t28 3q38 0 38 -13q0 -1 -2 -9q-37 -121 -114.5 -265.5t-154.5 -215.5z" />
    <glyph glyph-name="z" unicode="z" horiz-adv-x="563" 
d="M543 58q0 -11 -1 -16q-4 -25 -12.5 -33.5t-34.5 -8.5h-417q-60 0 -60 55q0 14 5 31q18 57 60.5 128.5t105.5 152t104 129t103 118.5q49 58 49 82q0 35 -80 38q-29 2 -88 2q-120 0 -189 -17q-8 -2 -14 -2q-16 0 -16 21q0 5 2 17q5 22 11 28.5t28 7.5q45 3 136 3
q123 0 205 -6q88 -7 88 -65q0 -49 -61 -119q-7 -8 -68.5 -78t-85 -98.5t-69.5 -87t-73.5 -105t-46.5 -90.5q-12 -28 -12 -46q0 -15 11.5 -23.5t21.5 -10.5t27 -3q51 -4 114 -4q117 0 226 16q10 2 16 2q15 0 15 -18z" />
    <glyph glyph-name="braceleft" unicode="{" horiz-adv-x="253" 
d="M130 -10v-8q0 -6 2 -10.5t5 -7.5t8 -5t9 -3t11 -1.5t10 -0.5h10.5h8.5q14 0 19 -6.5t5 -21.5q0 -26 -22 -26h-68q-31 0 -48 19t-17 51q0 4 0.5 10t0.5 10q3 23 23 115t20 143q0 29 -22.5 57t-44.5 50t-22 38q0 15 22 37.5t44.5 50t22.5 57.5q0 51 -20 143t-23 115
q0 4 -0.5 10t-0.5 10q0 17 4 30t13 20.5t16.5 12t23.5 6t24 2t27 0t25 -0.5q22 0 22 -26q0 -20 -7 -24t-27 -4q-54 0 -54 -30v-6q3 -24 25 -129q16 -78 16 -129q0 -34 -20 -65t-40 -51.5t-20 -28.5t20 -28.5t40 -51.5t20 -65q0 -49 -19.5 -146.5t-21.5 -111.5z" />
    <glyph glyph-name="bar" unicode="|" horiz-adv-x="298" 
d="M117 -139v1000h64v-1000h-64z" />
    <glyph glyph-name="braceright" unicode="}" horiz-adv-x="253" 
d="M235 393q0 -13 -13.5 -30t-30.5 -32t-30.5 -37.5t-13.5 -45.5q0 -51 19.5 -141.5t22.5 -116.5q2 -14 2 -20q0 -31 -17.5 -50.5t-48.5 -19.5h-67q-23 0 -23 26q0 6 1 10.5t1.5 7.5t3.5 5l4.5 3t5.5 1.5t6 0.5h8h8q51 0 51 28q0 5 -1 8q-3 20 -21.5 115t-18.5 143
q0 34 20 65t39.5 51.5t19.5 28.5t-19.5 28.5t-39.5 51.5t-20 65q0 48 18.5 143t21.5 115q1 2 1 6q0 11 -6 18t-19 9t-18.5 2.5t-20.5 0.5q-14 0 -19.5 6.5t-5.5 21.5q0 26 23 26q6 0 25 0.5t27 0t24 -2t23.5 -6t16.5 -12t13 -20.5t4 -30q0 -6 -2 -20q-3 -26 -22.5 -116.5
t-19.5 -141.5q0 -30 22 -57.5t44 -50t22 -37.5z" />
    <glyph glyph-name="asciitilde" unicode="~" horiz-adv-x="503" 
d="M479 751q0 -6 -11 -17q-35 -28 -67 -55q-44 -40 -81 -40q-25 0 -66.5 29t-71.5 29q-32 0 -79 -29t-52 -29q-8 0 -17.5 11.5t-9.5 18.5t12 17q17 14 61 51q50 44 93 44q29 0 74 -29t70 -29t67.5 29.5t50.5 29.5t17.5 -12t9.5 -19z" />
    <glyph glyph-name="uni00A0" unicode="&#xa0;" horiz-adv-x="350" 
 />
    <glyph glyph-name="exclamdown" unicode="&#xa1;" horiz-adv-x="254" 
d="M180 738q0 -29 -12 -41t-41 -12t-41 12t-12 41t12 41t41 12t41 -12t12 -41zM172 11q0 -21 -44 -21t-44 20q0 2 6 173q7 213 7 364v36q0 15 6.5 19t23.5 4q13 0 20 -2t10 -9t3.5 -11.5t-0.5 -17.5t-1 -19q0 -151 7 -363q1 -19 2.5 -54.5t2.5 -64.5t1 -54z" />
    <glyph glyph-name="cent" unicode="&#xa2;" horiz-adv-x="445" 
d="M388 251q0 -38 -22 -38q-31 0 -85 12q0 -19 1.5 -56.5t1.5 -55.5q0 -17 -31 -17q-30 0 -30 16q0 22 1.5 65t1.5 64q-172 61 -172 234q0 73 50.5 123t121.5 57q-3 105 -3 106q0 16 31 16t31 -17q0 -18 -1.5 -53t-1.5 -52q21 0 63 -10t42 -22t-8 -25t-19 -13q-3 0 -9 2
q-44 19 -87 19q-61 0 -105.5 -35.5t-44.5 -94.5q0 -81 48 -130.5t133 -68.5q27 -6 81 -14q12 -2 12 -12z" />
    <glyph glyph-name="sterling" unicode="&#xa3;" horiz-adv-x="468" 
d="M443 144q0 -4 -2 -8t-6 -8t-7 -6.5t-8 -6t-6 -4.5q-32 -21 -81 -21q-27 0 -64 7q-103 18 -141 18q-33 0 -78 -12q-12 -4 -19 -4q-12 0 -12 18q0 28 12 38.5t41 11.5q61 64 96 222l-87 -3q-18 0 -18 29q0 28 19 28l96 -3q4 16 14 58t16.5 65.5t21.5 58.5t32 54t45.5 33.5
t64.5 14.5q16 0 44 -4q27 -4 27 -21q0 -36 -23 -36q-7 0 -19.5 2t-18.5 2q-26 0 -46 -11t-34 -33.5t-21.5 -40t-16.5 -46.5q-13 -44 -24 -97q20 0 62 2t62 2q18 0 18 -28q0 -29 -19 -29q-23 0 -67.5 2t-67.5 2q-35 -161 -86 -226q7 2 21 2q26 0 80 -10t81 -10q44 0 69 21
q19 13 23 13q8 0 17.5 -14t9.5 -22z" />
    <glyph glyph-name="currency" unicode="&#xa4;" horiz-adv-x="600" 
d="M301 508q-65 0 -110.5 -47t-45.5 -111t45.5 -110t110.5 -46q64 0 109 46t45 110t-45 111t-109 47zM30 125l98 98q-43 53 -43 127q0 77 43 127l-98 98l46 46l96 -98q57 43 129 43q74 0 127 -43l96 98l46 -46l-96 -98q41 -55 41 -127q0 -76 -41 -127l96 -98l-46 -46l-96 98
q-51 -41 -127 -41q-78 0 -129 41l-96 -98z" />
    <glyph glyph-name="yen" unicode="&#xa5;" horiz-adv-x="534" 
d="M270 423q16 0 33 19q92 96 133 253q2 8 8.5 12t11 4.5t16.5 0.5q37 0 37 -13q0 -3 -1 -5q-26 -86 -75.5 -173t-109.5 -152q19 0 58 1.5t59 1.5q19 0 19 -30q0 -29 -20 -29q-26 0 -74.5 2t-64.5 2l1 -74q16 0 64.5 2t74.5 2q19 0 19 -30q0 -29 -20 -29q-22 0 -68 1.5
t-69 1.5l3 -96q0 -18 -37 -18q-38 0 -38 17q0 1 3 97q-16 0 -44 -1t-51.5 -1.5t-43.5 -0.5q-18 0 -18 29q0 30 19 30q26 0 74.5 -2t64.5 -2q0 49 1 74q-16 0 -65 -2t-76 -2q-18 0 -18 29q0 30 19 30t59.5 -1.5t60.5 -1.5q-130 137 -187 327v4q0 12 38 12q32 0 36 -15
q48 -174 134 -255q19 -19 34 -19z" />
    <glyph glyph-name="brokenbar" unicode="&#xa6;" horiz-adv-x="298" 
d="M117 -64v350h64v-350h-64zM117 436v350h64v-350h-64z" />
    <glyph glyph-name="section" unicode="&#xa7;" horiz-adv-x="519" 
d="M388 389q0 62 -89 93q-91 33 -123 51q-45 -31 -45 -78q0 -28 24 -51t81 -44q94 -35 114 -48q38 30 38 77zM418 753l-22 -57q-50 32 -119 32q-45 0 -74.5 -20.5t-29.5 -53.5q0 -35 29.5 -54.5t95.5 -41.5q80 -27 121 -61t41 -96q0 -72 -64 -121q38 -36 38 -89
q0 -73 -56 -111.5t-134 -38.5q-100 0 -157 42l24 57q56 -40 133 -40q49 0 80 21.5t31 59.5q0 35 -26 57.5t-96 47.5q-88 31 -131 64.5t-43 92.5q0 69 74 118q-16 11 -26.5 34.5t-10.5 48.5q0 65 52.5 103.5t131.5 38.5t138 -33z" />
    <glyph glyph-name="dieresis" unicode="&#xa8;" horiz-adv-x="457" 
d="M383 690q0 -27 -11 -38.5t-38 -11.5t-38 11.5t-11 38.5t11 38t38 11t38 -11t11 -38zM174 690q0 -27 -11 -38.5t-38 -11.5t-38 11.5t-11 38.5t11 38t38 11t38 -11t11 -38z" />
    <glyph glyph-name="copyright" unicode="&#xa9;" 
d="M788 394q0 -174 -99.5 -294t-269.5 -120t-269.5 120t-99.5 294q0 176 98.5 295.5t270.5 119.5q173 0 271 -119t98 -296zM723 394q0 97 -32.5 176t-103 130t-168.5 51q-145 0 -224.5 -103.5t-79.5 -253.5t79.5 -253t224.5 -103q146 0 225 102.5t79 253.5zM547 193
q0 -35 -20 -35h-3q-110 8 -197.5 96t-87.5 199q0 95 55 144.5t150 49.5q59 0 88 -12q13 -5 13 -21q0 -12 -6 -25t-15 -13q-1 0 -29.5 7.5t-54.5 7.5q-64 0 -100 -38.5t-36 -103.5q0 -73 48 -129.5t121 -86.5q9 -4 18.5 -7t20.5 -5.5t18 -4.5q17 -5 17 -23z" />
    <glyph glyph-name="ordfeminine" unicode="&#xaa;" horiz-adv-x="494" 
d="M11 338q0 4 1 6q36 113 88 233t105 198q19 28 39 28q23 0 44 -29q92 -132 194 -430q1 -3 1 -7q0 -14 -33 -14q-32 0 -41 15q-22 34 -27 40q-65 81 -224 140q-2 1 -7 1q-9 0 -16 -16q-14 -33 -38 -117q-1 -2 -5 -18.5t-7 -24.5q-6 -20 -39 -20q-35 0 -35 15zM172 581
q0 -9 13 -15q96 -38 153 -73q10 -6 15 -6q6 0 6 7q0 11 -43.5 104t-57.5 114q-7 10 -12 10q-7 0 -14 -12q-10 -16 -35 -67.5t-25 -61.5z" />
    <glyph glyph-name="guillemotleft" unicode="&#xab;" horiz-adv-x="455" 
d="M423 576q0 -8 -9 -21q-89 -118 -111 -153q15 -24 111 -153q9 -13 9 -20q0 -9 -9.5 -17.5t-18.5 -8.5q-8 0 -20 14l-78 84q-10 10 -28.5 29.5t-28.5 29.5q-14 14 -14 43q0 28 13 42q10 11 31 32t31 32q12 13 37 39.5t37 39.5q12 14 20 14q9 0 18.5 -8.5t9.5 -17.5z
M235 576q0 -10 -9 -21q-86 -112 -111 -153q19 -29 111 -153q9 -11 9 -20t-9.5 -17.5t-18.5 -8.5q-8 0 -20 14l-78 84q-10 11 -30.5 31.5t-26.5 27.5q-14 14 -14 43q0 28 13 42l29 29t33 35q13 13 37 39.5t37 39.5q12 14 20 14q9 0 18.5 -8.5t9.5 -17.5z" />
    <glyph glyph-name="logicalnot" unicode="&#xac;" horiz-adv-x="600" 
d="M488 147v214h-440v64h504v-278h-64z" />
    <glyph glyph-name="uni00AD" unicode="&#xad;" horiz-adv-x="472" 
d="M422 396q0 -34 -20 -34q-27 0 -81 2.5t-81 2.5q-28 0 -85 -2.5t-86 -2.5q-19 0 -19 34t20 34q28 0 85 -2.5t86 -2.5q27 0 81 2.5t81 2.5q19 0 19 -34z" />
    <glyph glyph-name="registered" unicode="&#xae;" horiz-adv-x="620" 
d="M48 517q0 125 69 208.5t193 83.5t193 -83.5t69 -208.5q0 -124 -69 -207.5t-193 -83.5q-121 0 -191.5 84t-70.5 207zM103 518q0 -100 54.5 -171t152.5 -71q99 0 153 71t54 171q0 99 -54.5 170t-152.5 71q-97 0 -152 -71t-55 -170zM230 693h107q77 0 77 -54
q0 -21 -13 -39.5t-26 -29t-13 -12.5q0 -3 5 -12q35 -63 57 -151q1 -5 3 -11.5t3 -10.5t1 -5q0 -8 -24 -8q-26 0 -28 9q-22 95 -54 157q-3 4 -7 4t-8 -3q-26 -16 -44 -24q-8 -4 -8 -16q0 -18 1 -56.5t1 -57.5q0 -12 -26 -12t-26 13q0 25 1 75.5t1 76.5q0 24 -1 73t-1 74
q0 20 22 20zM259 638v-78q0 -10 2 -10q5 0 11 3q87 47 87 77q0 12 -13.5 15t-45.5 3h-31q-10 -1 -10 -10z" />
    <glyph glyph-name="macron" unicode="&#xaf;" horiz-adv-x="472" 
d="M422 673q0 -34 -20 -34q-27 0 -81 2.5t-81 2.5q-28 0 -85 -2.5t-86 -2.5q-19 0 -19 34t20 34q28 0 85 -2.5t86 -2.5q27 0 81 2.5t81 2.5q19 0 19 -34z" />
    <glyph glyph-name="degree" unicode="&#xb0;" horiz-adv-x="355" 
d="M335 648q0 -65 -46.5 -111t-111.5 -46t-111 46.5t-46 110.5q0 65 46 111t111 46t111.5 -46t46.5 -111zM277 648q0 41 -29 70.5t-71 29.5q-41 0 -70.5 -29.5t-29.5 -70.5t29.5 -70.5t70.5 -29.5q42 0 71 29.5t29 70.5z" />
    <glyph glyph-name="plusminus" unicode="&#xb1;" horiz-adv-x="600" 
d="M268 377v180h64v-180h220v-64h-220v-180h-64v180h-220v64h220zM48 16v64h504v-64h-504z" />
    <glyph glyph-name="two.superior" unicode="&#xb2;" horiz-adv-x="473" 
d="M427 384q0 -24 -8 -38q-10 -18 -31 -18h-295q-29 0 -37 14q-6 8 -6 38q0 11 15 24q18 16 83 67q113 92 151 139q36 46 36 78t-28.5 42.5t-77.5 10.5q-31 0 -75 -14t-50 -14q-17 2 -17 29q0 31 24 37q88 22 138 22q75 0 117.5 -26t42.5 -80q0 -16 -4.5 -33t-15.5 -35
t-21.5 -33t-29.5 -34.5t-32 -32.5t-37.5 -33t-37 -30.5t-39 -31.5t-36.5 -29q-5 -5 -2.5 -8.5t10.5 -4.5q47 -1 111 -1q50 0 136 10q16 2 16 -15z" />
    <glyph glyph-name="three.superior" unicode="&#xb3;" horiz-adv-x="428" 
d="M82 790l231 -1q21 0 30 -4.5t14 -22.5q7 -25 -11 -40l-114 -95q-17 -14 1 -17q14 -2 34 -3q125 -10 125 -98q0 -43 -32 -80t-84 -61t-100.5 -39t-99.5 -24q-29 -5 -37 22q-10 32 17 36q33 4 74 13.5t86.5 26t76 43t30.5 56.5q0 25 -20 38.5t-43.5 16.5t-59.5 3h-44
q-13 0 -17.5 5t-8.5 17q-6 20 12 36q52 42 113 99q16 14 -6 16q-20 2 -80 2q-32 0 -100 -7q-9 -1 -16.5 3.5t-7.5 11.5q0 10 8 28q8 19 29 19z" />
    <glyph glyph-name="acute" unicode="&#xb4;" horiz-adv-x="297" 
d="M270 775q0 -11 -20 -22q-96 -52 -180 -106q-14 -9 -20 -9q-7 0 -16 9.5t-9 16.5q0 5 14 19q90 69 159 131q14 12 24 12q13 0 30.5 -19t17.5 -32z" />
    <glyph glyph-name="mu" unicode="&#xb5;" horiz-adv-x="576" 
d="M88 500h64v-316q0 -64 34.5 -101t95.5 -37q63 0 102.5 50.5t39.5 117.5v286h64v-500h-64v80h-4q-52 -92 -150 -92q-75 0 -114 54h-4v-234h-64v692z" />
    <glyph glyph-name="paragraph" unicode="&#xb6;" horiz-adv-x="577" 
d="M509 26q0 -18 -8.5 -23.5t-28.5 -5.5t-28.5 4.5t-7.5 22.5v3q0 29 2.5 103t2.5 115q0 8 -3.5 13.5t-7 7.5t-12.5 7q-7 4 -14.5 7.5t-16.5 7.5t-14 6q5 -230 5 -277q0 -20 -39 -20q-38 0 -38 21q0 58 2.5 163.5t2.5 147.5q-286 157 -286 321q0 70 57.5 104.5t132.5 34.5
h254q45 0 45 -49q0 -58 -2 -174t-2 -174q0 -61 2 -183t2 -183zM441 590v96q-1 17 -2 24t-8 13.5t-21 7.5h-37q-2 -84 -2 -125v-85q0 -26 0.5 -79.5t0.5 -80.5q53 -24 58 -24q11 0 11 18v235zM306 401q0 111 -4 331h-23.5h-27t-26 -1t-27.5 -2.5t-25 -5t-24.5 -8.5
t-19.5 -12.5t-16.5 -17t-9.5 -22.5t-4 -29q0 -116 207 -237v4z" />
    <glyph glyph-name="periodcentered" unicode="&#xb7;" horiz-adv-x="216" 
d="M161 432q0 -29 -12 -41t-41 -12t-41 12t-12 41t12 41t41 12t41 -12t12 -41z" />
    <glyph glyph-name="cedilla" unicode="&#xb8;" horiz-adv-x="230" 
d="M180 -90q0 -9 -10 -21q-70 -90 -117 -163q-10 -15 -19 -15q-8 0 -18 7t-10 15q0 4 7 18q53 98 89 179q10 21 23 21t34 -14t21 -27z" />
    <glyph glyph-name="one.superior" unicode="&#xb9;" horiz-adv-x="359" 
d="M190 669q0 11 -5 22.5t-13 11.5q-9 0 -42 -19.5t-53 -35.5q-6 -6 -15 -6q-11 0 -23.5 11.5t-12.5 22.5q0 9 13 18q134 82 169 101q16 8 26 8q25 0 25 -33q0 -44 -1 -70q-5 -140 -5 -177q0 -32 2.5 -91.5t2.5 -87.5q0 -21 -36 -21t-36 21q0 25 2.5 84.5t2.5 92.5
q0 26 -0.5 75t-0.5 73z" />
    <glyph glyph-name="ordmasculine" unicode="&#xba;" horiz-adv-x="550" 
d="M504 555q0 -98 -66 -168t-163 -70t-163 70t-66 168t66 168t163 70t163 -70t66 -168zM436 555q0 73 -44.5 124.5t-116.5 51.5t-117 -51.5t-45 -124.5t45 -124.5t117 -51.5t116.5 51.5t44.5 124.5z" />
    <glyph glyph-name="guillemotright" unicode="&#xbb;" horiz-adv-x="455" 
d="M229 402q0 -28 -13 -42q-11 -13 -33 -35l-29 -29q-12 -13 -36.5 -39.5t-37.5 -39.5q-12 -14 -20 -14q-9 0 -18.5 8.5t-9.5 17.5q0 7 9 20q92 124 111 153q-26 41 -111 153q-9 13 -9 21q0 9 9.5 17.5t18.5 8.5q8 0 20 -14q12 -12 25 -26t28.5 -31.5t24.5 -26.5
q9 -10 28 -29.5t29 -29.5q14 -15 14 -43zM268 588l78 -84q10 -11 30.5 -31.5t26.5 -27.5q14 -15 14 -43t-13 -42q-10 -11 -31 -32t-31 -32q-13 -13 -37.5 -39.5t-36.5 -39.5q-12 -14 -20 -14q-9 0 -18.5 8.5t-9.5 17.5t9 20q92 124 111 153q-25 41 -111 153q-9 11 -9 21
q0 9 9.5 17.5t18.5 8.5q8 0 20 -14z" />
    <glyph glyph-name="onequarter" unicode="&#xbc;" horiz-adv-x="756" 
d="M660 0h-65v103h-200v38l194 254h71v-244h60v-48h-60v-103zM595 151v120q0 9 3 63h-2q-5 -8 -16 -27t-17 -28l-98 -127l1 -1h129zM196 266h-68v330h-2l-71 -35l-11 51l92 44h60v-390zM192 -11h-55l379 672h55z" />
    <glyph glyph-name="onehalf" unicode="&#xbd;" horiz-adv-x="756" 
d="M181 266h-68v330h-2l-71 -35l-11 51l92 44h60v-390zM172 -11h-55l380 672h55zM438 0v36l63 59q68 62 97 100t29 75q0 30 -19.5 50t-56.5 20q-44 0 -84 -31l-21 44q47 42 121 42q65 0 98.5 -34t33.5 -78q0 -36 -20 -71.5t-43.5 -60t-70.5 -66.5l-31 -29v-2h172v-54h-268z
" />
    <glyph glyph-name="threequarters" unicode="&#xbe;" horiz-adv-x="756" 
d="M671 0h-65v103h-200v38l194 254h71v-244h60v-48h-60v-103zM606 151v120q0 6 3 63h-2q-5 -9 -15.5 -27.5t-16.5 -27.5l-99 -127l1 -1h129zM67 584l-18 45q46 32 113 32q61 0 91.5 -27t30.5 -67q0 -30 -20.5 -54t-55.5 -36v-2q42 -6 67.5 -32.5t25.5 -64.5q0 -49 -42 -83
t-115 -34q-71 0 -114 28l18 49q39 -27 93 -27q43 0 66 21.5t22 47.5q0 36 -31.5 53.5t-75.5 17.5h-27v45h27q34 0 63 16t29 48q0 21 -16 36t-48 15q-43 0 -83 -27zM229 -11h-55l380 672h55z" />
    <glyph glyph-name="questiondown" unicode="&#xbf;" horiz-adv-x="466" 
d="M357 744q0 -29 -12 -41t-41 -12t-41 12t-12 41t12 41t41 12t41 -12t12 -41zM443 43q0 -11 -18 -19q-36 -15 -106 -24.5t-120 -9.5q-44 0 -84 10t-73 39.5t-33 74.5q0 35 29.5 78.5t71 86t83 86t71 90.5t29.5 87q0 12 -5.5 30t-5.5 22q0 9 13.5 14.5t24.5 5.5
q17 0 28 -26.5t11 -46.5q0 -40 -28 -89.5t-68 -94.5t-80 -88t-68 -82.5t-28 -64.5q0 -21 14.5 -36.5t38 -23t44 -10.5t40.5 -3q76 0 177 35q8 2 12 2q11 0 20.5 -15.5t9.5 -27.5z" />
    <glyph glyph-name="Agrave" unicode="&#xc0;" horiz-adv-x="709" 
d="M729 15q0 -18 -28 -18h-6h-6h-5.5t-5 0.5t-4.5 1t-5 1t-4.5 2t-4 3l-3.5 3.5t-4 5q-3 5 -8.5 15.5t-9.5 15.5q-21 34 -39 58q-131 171 -369 256q-22 8 -35 8q-12 0 -22 -10t-12.5 -16.5t-9.5 -23.5q-28 -77 -66 -207q-10 -38 -14 -57q-2 -5 -4 -16t-4 -16q-5 -16 -13 -20
t-28 -4q-39 0 -39 18q0 5 1 7q72 244 178 479q72 163 132 254q31 46 59 46q34 0 67 -49q63 -98 134 -255q90 -202 176 -471q2 -6 2 -10zM584 242q0 11 -8 31q-95 247 -174 384q0 1 -3.5 6.5t-5 8t-5.5 8t-6.5 8.5t-6.5 7.5t-7 7t-7 4t-8 1.5q-19 0 -51 -56
q-18 -32 -59.5 -115t-41.5 -94q0 -12 21 -21q6 -2 46 -17t61 -24q111 -50 214 -133q24 -18 32 -18q9 0 9 12zM484 870q0 -8 -9 -17t-16 -9t-20 9q-84 54 -180 106q-20 11 -20 22q0 13 17.5 31.5t30.5 18.5q9 0 24 -11q77 -69 159 -132q14 -11 14 -18z" />
    <glyph glyph-name="Aacute" unicode="&#xc1;" horiz-adv-x="709" 
d="M729 15q0 -18 -28 -18h-6h-6h-5.5t-5 0.5t-4.5 1t-5 1t-4.5 2t-4 3l-3.5 3.5t-4 5q-3 5 -8.5 15.5t-9.5 15.5q-21 34 -39 58q-131 171 -369 256q-22 8 -35 8q-12 0 -22 -10t-12.5 -16.5t-9.5 -23.5q-28 -77 -66 -207q-10 -38 -14 -57q-2 -5 -4 -16t-4 -16q-5 -16 -13 -20
t-28 -4q-39 0 -39 18q0 5 1 7q72 244 178 479q72 163 132 254q31 46 59 46q34 0 67 -49q63 -98 134 -255q90 -202 176 -471q2 -6 2 -10zM584 242q0 11 -8 31q-95 247 -174 384q0 1 -3.5 6.5t-5 8t-5.5 8t-6.5 8.5t-6.5 7.5t-7 7t-7 4t-8 1.5q-19 0 -51 -56
q-18 -32 -59.5 -115t-41.5 -94q0 -12 21 -21q6 -2 46 -17t61 -24q111 -50 214 -133q24 -18 32 -18q9 0 9 12zM487 985q0 -11 -20 -22q-96 -52 -180 -106q-12 -8 -20 -8q-7 0 -16 9t-9 16q0 5 14 19q80 61 159 131q14 12 23 12q13 0 31 -19t18 -32z" />
    <glyph glyph-name="Acircumflex" unicode="&#xc2;" horiz-adv-x="709" 
d="M176 870l141 123q15 13 42 13q28 0 42 -12q24 -21 71 -62t70 -62q13 -10 13 -18t-8.5 -17t-16.5 -9t-20 8q-116 81 -151 101q-35 -20 -151 -101q-12 -8 -20 -8t-16.5 9t-8.5 17t13 18zM729 15q0 -18 -28 -18h-6h-6h-5.5t-5 0.5t-4.5 1t-5 1t-4.5 2t-4 3l-3.5 3.5t-4 5
q-3 5 -8.5 15.5t-9.5 15.5q-21 34 -39 58q-131 171 -369 256q-22 8 -35 8q-12 0 -22 -10t-12.5 -16.5t-9.5 -23.5q-28 -77 -66 -207q-10 -38 -14 -57q-2 -5 -4 -16t-4 -16q-5 -16 -13 -20t-28 -4q-39 0 -39 18q0 5 1 7q72 244 178 479q72 163 132 254q31 46 59 46
q34 0 67 -49q63 -98 134 -255q90 -202 176 -471q2 -6 2 -10zM584 242q0 11 -8 31q-95 247 -174 384q0 1 -3.5 6.5t-5 8t-5.5 8t-6.5 8.5t-6.5 7.5t-7 7t-7 4t-8 1.5q-19 0 -51 -56q-18 -32 -59.5 -115t-41.5 -94q0 -12 21 -21q6 -2 46 -17t61 -24q111 -50 214 -133
q24 -18 32 -18q9 0 9 12z" />
    <glyph glyph-name="Atilde" unicode="&#xc3;" horiz-adv-x="709" 
d="M729 15q0 -18 -28 -18h-6h-6h-5.5t-5 0.5t-4.5 1t-5 1t-4.5 2t-4 3l-3.5 3.5t-4 5q-3 5 -8.5 15.5t-9.5 15.5q-21 34 -39 58q-131 171 -369 256q-22 8 -35 8q-12 0 -22 -10t-12.5 -16.5t-9.5 -23.5q-28 -77 -66 -207q-10 -38 -14 -57q-2 -5 -4 -16t-4 -16q-5 -16 -13 -20
t-28 -4q-39 0 -39 18q0 5 1 7q72 244 178 479q72 163 132 254q31 46 59 46q34 0 67 -49q63 -98 134 -255q90 -202 176 -471q2 -6 2 -10zM584 242q0 11 -8 31q-95 247 -174 384q0 1 -3.5 6.5t-5 8t-5.5 8t-6.5 8.5t-6.5 7.5t-7 7t-7 4t-8 1.5q-19 0 -51 -56
q-18 -32 -59.5 -115t-41.5 -94q0 -12 21 -21q6 -2 46 -17t61 -24q111 -50 214 -133q24 -18 32 -18q9 0 9 12zM586 959q0 -4 -10 -14q-40 -32 -60 -49q-32 -28 -65 -28q-26 0 -64 24t-61 24q-27 0 -71 -28t-48 -28q-7 0 -15.5 11t-8.5 19q0 9 11 16q36 30 54 46q39 35 77 35
q27 0 66 -25t61 -25q23 0 61.5 27t45.5 27t17 -12.5t10 -19.5z" />
    <glyph glyph-name="Adieresis" unicode="&#xc4;" horiz-adv-x="709" 
d="M729 15q0 -18 -28 -18h-6h-6h-5.5t-5 0.5t-4.5 1t-5 1t-4.5 2t-4 3l-3.5 3.5t-4 5q-3 5 -8.5 15.5t-9.5 15.5q-21 34 -39 58q-131 171 -369 256q-22 8 -35 8q-12 0 -22 -10t-12.5 -16.5t-9.5 -23.5q-28 -77 -66 -207q-10 -38 -14 -57q-2 -5 -4 -16t-4 -16q-5 -16 -13 -20
t-28 -4q-39 0 -39 18q0 5 1 7q72 244 178 479q72 163 132 254q31 46 59 46q34 0 67 -49q63 -98 134 -255q90 -202 176 -471q2 -6 2 -10zM584 242q0 11 -8 31q-95 247 -174 384q0 1 -3.5 6.5t-5 8t-5.5 8t-6.5 8.5t-6.5 7.5t-7 7t-7 4t-8 1.5q-19 0 -51 -56
q-18 -32 -59.5 -115t-41.5 -94q0 -12 21 -21q6 -2 46 -17t61 -24q111 -50 214 -133q24 -18 32 -18q9 0 9 12zM504 900q0 -27 -11 -38t-38 -11t-38 11t-11 38t11 38t38 11t38 -11t11 -38zM295 900q0 -27 -11 -38t-38 -11t-38 11t-11 38t11 38t38 11t38 -11t11 -38z" />
    <glyph glyph-name="Aring" unicode="&#xc5;" horiz-adv-x="709" 
d="M405 769l12 -18q158 -252 310 -726q2 -6 2 -10q0 -18 -28 -18h-7h-7.5t-6.5 0.5t-6.5 1t-5.5 1.5t-6 3l-4.5 4.5t-4.5 5.5q-44 72 -57 89q-131 171 -369 256q-22 8 -35 8q-12 0 -22 -10t-12.5 -16.5t-9.5 -23.5q-33 -88 -68 -215q-2 -9 -8.5 -37.5t-11.5 -43.5
q-5 -16 -13.5 -20t-27.5 -4q-39 0 -39 18q0 5 1 7q60 201 146 406q83 197 164 327q1 3 4 7.5t5 6.5q-36 15 -58 48t-22 72q0 55 38.5 93t92.5 38q55 0 93 -38t38 -93q0 -38 -21 -70.5t-56 -48.5zM430 888q0 33 -23 56t-56 23q-32 0 -55 -23t-23 -56q0 -32 23 -55t55 -23
q33 0 56 23t23 55zM584 242q0 11 -8 31q-95 249 -174 384q-29 51 -48 51q-4 0 -8 -2t-7.5 -4.5t-8 -7.5t-7 -8.5t-6.5 -9.5l-6 -9t-5.5 -8.5t-3.5 -6.5q-18 -32 -59.5 -115t-41.5 -94q0 -12 21 -21q6 -2 46 -17t61 -24q111 -50 214 -133q24 -18 32 -18q9 0 9 12z" />
    <glyph glyph-name="AE" unicode="&#xc6;" horiz-adv-x="1033" 
d="M637 547h104q35 0 104.5 1.5t103.5 1.5q10 0 15 -5t5.5 -10t0.5 -16t-0.5 -16.5t-5.5 -10t-15 -4.5q-37 0 -109 2q-70 1 -210 1q-31 0 -31 -27q0 -122 87 -227t207 -154q32 -13 95 -25q10 -2 14 -3.5t7 -6.5t3 -14q0 -41 -28 -41h-7q-154 19 -283 135q35 -112 35 -113
q0 -18 -28 -18h-6.5h-6h-5.5t-6 0.5t-5.5 1.5t-5.5 2t-4.5 2.5t-4.5 4t-4 5.5q-37 63 -57 89q-131 171 -369 256q-22 8 -35 8q-12 0 -22 -9t-13.5 -17.5t-8.5 -23.5q-39 -108 -68 -214q-4 -14 -10.5 -41.5t-9.5 -40.5q-4 -16 -13 -20t-28 -4q-39 0 -39 18q0 5 1 7
q62 211 156 430q81 188 154 303q29 46 59 46q35 0 66 -49q51 -78 111 -203q17 126 102 190.5t215 64.5q95 0 146 -20q17 -7 17 -20q0 -14 -8.5 -29.5t-20.5 -15.5q-4 0 -10 2q-73 20 -130 20q-79 0 -141 -45t-84 -120q-2 -6 -2 -10q0 -18 26 -18zM584 242q0 11 -8 31
q-94 245 -174 384q-29 51 -50 51q-18 0 -50 -56q-18 -32 -59.5 -115t-41.5 -94q0 -12 21 -21q6 -2 46 -17t61 -24q111 -50 214 -133q24 -18 32 -18q9 0 9 12z" />
    <glyph glyph-name="Ccedilla" unicode="&#xc7;" horiz-adv-x="550" 
d="M40 485q0 145 87.5 229.5t233.5 84.5q93 0 146 -20q17 -7 17 -20q0 -14 -8.5 -29.5t-20.5 -15.5q-4 0 -10 2q-68 20 -131 20q-107 0 -172.5 -74.5t-65.5 -183.5q0 -136 89 -247t221 -158q24 -9 79 -19q10 -2 14 -3.5t7 -6.5t3 -14q0 -41 -28 -41h-7q-184 26 -319 169.5
t-135 326.5zM363 -54q0 -9 -10 -21q-70 -90 -117 -163q-10 -15 -19 -15q-8 0 -18 7t-10 15q0 4 7 18q53 98 89 179q11 21 23 21q13 0 34 -14t21 -27z" />
    <glyph glyph-name="Egrave" unicode="&#xc8;" horiz-adv-x="545" 
d="M392 868q0 -8 -9 -17t-16 -9t-20 9q-84 54 -180 106q-19 11 -19 22q0 13 17.5 31.5t30.5 18.5q10 0 23 -11q87 -77 159 -132q14 -11 14 -18zM529 32q0 -14 -8 -19t-24 -8q-77 -12 -180 -12q-28 0 -42.5 0.5t-43.5 2.5t-47 7.5t-39.5 14t-36 24t-22.5 35.5q-17 42 -17 117
q0 44 2 131t2 130q0 51 -2 152t-2 152q0 32 42 32q15 0 100.5 -2t130.5 -2q23 0 69 2t68 2q18 0 18 -30q0 -33 -17 -33q-14 0 -40.5 1t-39.5 1q-49 2 -145 2h-68q-26 -1 -35 -13.5t-11 -39.5q-3 -49 -3 -98q0 -14 1.5 -21t8 -12t20.5 -5q115 0 172 1q9 0 26.5 1t31.5 1.5
t26 0.5q10 0 15 -5t5.5 -10.5t0.5 -16.5t-0.5 -16.5t-5.5 -10t-15 -4.5q-42 0 -127.5 1.5t-128.5 1.5q-31 0 -31 -29q0 -38 -0.5 -113.5t-0.5 -113.5q0 -107 37 -142.5t145 -35.5q84 0 168 18q10 2 15 2q14 0 21 -12.5t7 -28.5z" />
    <glyph glyph-name="Eacute" unicode="&#xc9;" horiz-adv-x="545" 
d="M454 986q0 -10 -19 -22q-95 -50 -181 -106q-14 -9 -20 -9q-7 0 -16 9t-9 17t15 18q85 66 158 132q14 12 24 12q13 0 30.5 -19t17.5 -32zM529 32q0 -14 -8 -19t-24 -8q-77 -12 -180 -12q-28 0 -42.5 0.5t-43.5 2.5t-47 7.5t-39.5 14t-36 24t-22.5 35.5q-17 42 -17 117
q0 44 2 131t2 130q0 51 -2 152t-2 152q0 32 42 32q15 0 100.5 -2t130.5 -2q23 0 69 2t68 2q18 0 18 -30q0 -33 -17 -33q-14 0 -40.5 1t-39.5 1q-49 2 -145 2h-68q-26 -1 -35 -13.5t-11 -39.5q-3 -49 -3 -98q0 -14 1.5 -21t8 -12t20.5 -5q115 0 172 1q9 0 26.5 1t31.5 1.5
t26 0.5q10 0 15 -5t5.5 -10.5t0.5 -16.5t-0.5 -16.5t-5.5 -10t-15 -4.5q-42 0 -127.5 1.5t-128.5 1.5q-31 0 -31 -29q0 -38 -0.5 -113.5t-0.5 -113.5q0 -107 37 -142.5t145 -35.5q84 0 168 18q10 2 15 2q14 0 21 -12.5t7 -28.5z" />
    <glyph glyph-name="Ecircumflex" unicode="&#xca;" horiz-adv-x="545" 
d="M479 874q0 -8 -8.5 -16.5t-16.5 -8.5q-10 0 -20 8q-113 79 -151 101q-35 -20 -151 -101q-12 -8 -20 -8t-16.5 8.5t-8.5 16.5t13 19q16 14 44.5 38.5t52 45t44.5 39.5q14 13 42 13q27 0 41 -12q24 -20 71 -61.5t71 -62.5q13 -13 13 -19zM529 32q0 -14 -8 -19t-24 -8
q-77 -12 -180 -12q-28 0 -42.5 0.5t-43.5 2.5t-47 7.5t-39.5 14t-36 24t-22.5 35.5q-17 42 -17 117q0 44 2 131t2 130q0 51 -2 152t-2 152q0 32 42 32q15 0 100.5 -2t130.5 -2q23 0 69 2t68 2q18 0 18 -30q0 -33 -17 -33q-14 0 -40.5 1t-39.5 1q-49 2 -145 2h-68
q-26 -1 -35 -13.5t-11 -39.5q-3 -49 -3 -98q0 -14 1.5 -21t8 -12t20.5 -5q115 0 172 1q9 0 26.5 1t31.5 1.5t26 0.5q10 0 15 -5t5.5 -10.5t0.5 -16.5t-0.5 -16.5t-5.5 -10t-15 -4.5q-42 0 -127.5 1.5t-128.5 1.5q-31 0 -31 -29q0 -38 -0.5 -113.5t-0.5 -113.5
q0 -107 37 -142.5t145 -35.5q84 0 168 18q10 2 15 2q14 0 21 -12.5t7 -28.5z" />
    <glyph glyph-name="Edieresis" unicode="&#xcb;" horiz-adv-x="545" 
d="M439 907q0 -27 -11 -38t-38 -11t-38 11t-11 38q0 28 11 39t38 11t38 -11t11 -39zM230 907q0 -27 -11 -38t-38 -11t-38 11t-11 38q0 28 11 39t38 11t38 -11t11 -39zM529 32q0 -14 -8 -19t-24 -8q-77 -12 -180 -12q-28 0 -42.5 0.5t-43.5 2.5t-47 7.5t-39.5 14t-36 24
t-22.5 35.5q-17 42 -17 117q0 44 2 131t2 130q0 51 -2 152t-2 152q0 32 42 32q15 0 100.5 -2t130.5 -2q23 0 69 2t68 2q18 0 18 -30q0 -33 -17 -33q-14 0 -40.5 1t-39.5 1q-49 2 -145 2h-68q-26 -1 -35 -13.5t-11 -39.5q-3 -49 -3 -98q0 -14 1.5 -21t8 -12t20.5 -5
q115 0 172 1q9 0 26.5 1t31.5 1.5t26 0.5q10 0 15 -5t5.5 -10.5t0.5 -16.5t-0.5 -16.5t-5.5 -10t-15 -4.5q-42 0 -127.5 1.5t-128.5 1.5q-31 0 -31 -29q0 -38 -0.5 -113.5t-0.5 -113.5q0 -107 37 -142.5t145 -35.5q84 0 168 18q10 2 15 2q14 0 21 -12.5t7 -28.5z" />
    <glyph glyph-name="Igrave" unicode="&#xcc;" horiz-adv-x="214" 
d="M145 18q0 -21 -38 -21t-38 20q0 64 2.5 193.5t2.5 193.5q0 61 -2.5 183t-2.5 183q0 21 38 21t38 -20q0 -61 -2.5 -182t-2.5 -181q0 -65 2.5 -195t2.5 -195zM230 870q0 -7 -9 -16.5t-16 -9.5t-21 9q-91 59 -180 106q-19 12 -19 22q0 13 17.5 32t30.5 19q11 0 23 -12
q79 -70 159 -131q15 -13 15 -19z" />
    <glyph glyph-name="Iacute" unicode="&#xcd;" horiz-adv-x="214" 
d="M145 18q0 -21 -38 -21t-38 20q0 64 2.5 193.5t2.5 193.5q0 61 -2.5 183t-2.5 183q0 21 38 21t38 -20q0 -61 -2.5 -182t-2.5 -181q0 -65 2.5 -195t2.5 -195zM240 978q0 -10 -19 -22q-95 -50 -181 -106q-14 -9 -20 -9q-7 0 -16 9t-9 17q0 7 14 18q83 63 159 132
q15 11 24 11q13 0 30.5 -18.5t17.5 -31.5z" />
    <glyph glyph-name="Icircumflex" unicode="&#xce;" horiz-adv-x="214" 
d="M145 18q0 -21 -38 -21t-38 20q0 64 2.5 193.5t2.5 193.5q0 61 -2.5 183t-2.5 183q0 21 38 21t38 -20q0 -61 -2.5 -182t-2.5 -181q0 -65 2.5 -195t2.5 -195zM310 857q0 -8 -8.5 -17t-16.5 -9q-7 0 -21 9q-133 91 -151 101q-12 -7 -150 -101q-13 -9 -21 -9t-16.5 9t-8.5 17
q0 6 13 19q91 78 141 122q15 13 43 13t41 -12q19 -16 67 -58.5t75 -64.5q13 -13 13 -19z" />
    <glyph glyph-name="Idieresis" unicode="&#xcf;" horiz-adv-x="214" 
d="M145 18q0 -21 -38 -21t-38 20q0 64 2.5 193.5t2.5 193.5q0 61 -2.5 183t-2.5 183q0 21 38 21t38 -20q0 -61 -2.5 -182t-2.5 -181q0 -65 2.5 -195t2.5 -195zM260 902q0 -27 -11 -38t-39 -11q-27 0 -38 11t-11 38t11 38t38 11q28 0 39 -11t11 -38zM51 902q0 -27 -11 -38
t-39 -11q-27 0 -38 11t-11 38t11 38t38 11q28 0 39 -11t11 -38z" />
    <glyph glyph-name="Eth" unicode="&#xd0;" horiz-adv-x="735" 
d="M155 789h302q110 0 174 -51.5t64 -158.5q0 -91 -48 -185.5t-123 -171t-162.5 -136.5t-172.5 -92q-23 -9 -41 -9q-38 0 -38 39q0 69 2 194.5t2 164.5q-12 0 -33 -1t-38 -1.5t-33 -0.5q-19 0 -19 34t18 34l105 -3q0 49 -2 149t-2 150q0 45 45 45zM181 385v-204q0 -69 1 -83
q2 -30 18 -30q9 0 27 9q65 32 131 82t125.5 112t97 138t37.5 147q0 79 -46.5 124t-126.5 49q-32 2 -98 2q-111 0 -136 -4q-10 -2 -14.5 -3t-7.5 -5.5t-3.5 -8.5t-1.5 -15q-1 -14 -1 -86q-2 -112 -2 -166q27 0 81.5 2.5t81.5 2.5q19 0 19 -34t-20 -34q-26 0 -80.5 2.5
t-81.5 2.5z" />
    <glyph glyph-name="Ntilde" unicode="&#xd1;" horiz-adv-x="640" 
d="M541 952q0 -7 -9 -14q-5 -4 -27 -22t-33 -28q-32 -28 -65 -28q-28 0 -65 25q-36 24 -60 24q-27 0 -71 -28t-48 -28q-7 0 -15.5 11t-8.5 18q0 9 10 17q19 15 55 45q39 35 76 35q28 0 67.5 -24.5t60.5 -24.5q23 0 61.5 26.5t45.5 26.5q6 0 16 -12.5t10 -18.5zM62 294
q0 231 31 417q0 1 1.5 8t2 10.5t2 10.5t2.5 11t3 10.5t4 10.5t5 8.5t6 7.5t7 5q8 4 18 4q30 0 74 -31q119 -80 218 -185q17 -17 51 -58q7 -9 14 -9q12 0 12 24q0 42 -7 124.5t-8 102.5v4q-1 14 10.5 19t28.5 5q12 0 17.5 -1t10.5 -6t6 -16q1 -20 4 -123q2 -87 2 -260
q0 -268 -5 -372q-1 -19 -43 -19q-30 0 -30 17v5q12 114 12 343q0 37 -22 65q-54 69 -130 143.5t-139 114.5q-27 17 -41 17q-19 0 -27 -42q-25 -139 -25 -335q0 -60 7.5 -175.5t8.5 -130.5v-5q1 -10 -7 -13t-21 -3q-42 0 -44 17q-9 85 -9 280z" />
    <glyph glyph-name="Ograve" unicode="&#xd2;" 
d="M788 394q0 -111 -43 -204t-128.5 -151.5t-197.5 -58.5t-197.5 58.5t-128.5 152t-43 203.5q0 172 100.5 293.5t268.5 121.5q114 0 199 -58t127.5 -151.5t42.5 -205.5zM713 394q0 95 -30.5 172.5t-99 127.5t-164.5 50t-164.5 -50.5t-99 -127.5t-30.5 -172q0 -94 31 -171.5
t99 -127.5t164 -50t164.5 50t99 127t30.5 172zM551 885q0 -7 -8.5 -16.5t-15.5 -9.5q-9 0 -21 8q-87 56 -180 107q-19 8 -19 22q0 12 17.5 31t30.5 19q11 0 23 -12q79 -70 159 -131q14 -9 14 -18z" />
    <glyph glyph-name="Oacute" unicode="&#xd3;" 
d="M788 394q0 -111 -43 -204t-128.5 -151.5t-197.5 -58.5t-197.5 58.5t-128.5 152t-43 203.5q0 172 100.5 293.5t268.5 121.5q114 0 199 -58t127.5 -151.5t42.5 -205.5zM713 394q0 95 -30.5 172.5t-99 127.5t-164.5 50t-164.5 -50.5t-99 -127.5t-30.5 -172q0 -94 31 -171.5
t99 -127.5t164 -50t164.5 50t99 127t30.5 172zM546 1003q0 -10 -19 -22q-95 -50 -181 -106q-12 -8 -20 -8q-7 0 -16 9t-9 16t15 19q93 72 158 131q14 12 24 12q13 0 30.5 -19t17.5 -32z" />
    <glyph glyph-name="Ocircumflex" unicode="&#xd4;" 
d="M788 394q0 -111 -43 -204t-128.5 -151.5t-197.5 -58.5t-197.5 58.5t-128.5 152t-43 203.5q0 172 100.5 293.5t268.5 121.5q114 0 199 -58t127.5 -151.5t42.5 -205.5zM713 394q0 95 -30.5 172.5t-99 127.5t-164.5 50t-164.5 -50.5t-99 -127.5t-30.5 -172q0 -94 31 -171.5
t99 -127.5t164 -50t164.5 50t99 127t30.5 172zM621 872q0 -8 -8.5 -16.5t-16.5 -8.5q-9 0 -21 8q-105 75 -150 101q-35 -20 -151 -101q-12 -8 -20 -8t-17 8.5t-9 16.5q0 7 14 19q16 14 44.5 38.5t52 45t44.5 39.5q14 13 42 13q27 0 41 -12q24 -21 71 -62.5t71 -61.5
q13 -13 13 -19z" />
    <glyph glyph-name="Otilde" unicode="&#xd5;" 
d="M788 394q0 -111 -43 -204t-128.5 -151.5t-197.5 -58.5t-197.5 58.5t-128.5 152t-43 203.5q0 172 100.5 293.5t268.5 121.5q114 0 199 -58t127.5 -151.5t42.5 -205.5zM713 394q0 95 -30.5 172.5t-99 127.5t-164.5 50t-164.5 -50.5t-99 -127.5t-30.5 -172q0 -94 31 -171.5
t99 -127.5t164 -50t164.5 50t99 127t30.5 172zM632 963q0 -5 -10 -15q-40 -32 -60 -49q-32 -28 -65 -28q-26 0 -64 24t-60 24q-27 0 -71 -28t-48 -28q-7 0 -15.5 11t-8.5 19q0 7 10 17q6 5 17 14t20 16.5t17 14.5q41 35 77 35q28 0 67 -24.5t60 -24.5q23 0 62 26.5t45 26.5
t16.5 -12.5t10.5 -18.5z" />
    <glyph glyph-name="Odieresis" unicode="&#xd6;" 
d="M788 394q0 -111 -43 -204t-128.5 -151.5t-197.5 -58.5t-197.5 58.5t-128.5 152t-43 203.5q0 172 100.5 293.5t268.5 121.5q114 0 199 -58t127.5 -151.5t42.5 -205.5zM713 394q0 95 -30.5 172.5t-99 127.5t-164.5 50t-164.5 -50.5t-99 -127.5t-30.5 -172q0 -94 31 -171.5
t99 -127.5t164 -50t164.5 50t99 127t30.5 172zM572 910q0 -27 -11 -38t-38 -11q-28 0 -39 11t-11 38q0 28 11 39t39 11q27 0 38 -11t11 -39zM363 910q0 -27 -11 -38t-38 -11q-28 0 -39 11t-11 38q0 28 11 39t39 11q27 0 38 -11t11 -39z" />
    <glyph glyph-name="multiply" unicode="&#xd7;" horiz-adv-x="600" 
d="M256 292l-188 188l44 44l188 -188l188 188l44 -44l-188 -188l188 -188l-44 -44l-188 188l-188 -188l-44 44z" />
    <glyph glyph-name="Oslash" unicode="&#xd8;" 
d="M788 394q0 -111 -43 -204t-128.5 -151.5t-197.5 -58.5q-140 0 -242 94l-62 -72q-6 -6 -14 -6q-11 0 -27 14.5t-16 25.5q0 5 6 13q11 12 34.5 37t35.5 37q-84 113 -84 271q0 172 100.5 293.5t268.5 121.5q145 0 246 -96l63 72q8 8 15 8q11 0 27 -15t16 -25q0 -7 -7 -14
q-23 -25 -71 -75q80 -111 80 -270zM621 662q-79 82 -202 82q-96 0 -164.5 -50.5t-99 -127.5t-30.5 -172q0 -131 56 -220q221 239 440 488zM713 394q0 127 -54 217q-205 -221 -438 -487q78 -79 198 -79q96 0 164.5 50t99 127t30.5 172z" />
    <glyph glyph-name="Ugrave" unicode="&#xd9;" horiz-adv-x="735" 
d="M482 848q0 -8 -9 -17t-16 -9q-8 0 -20 8q-77 50 -180 107q-20 9 -20 22q0 12 17.5 31t30.5 19q10 0 24 -12q69 -62 159 -131q14 -11 14 -18zM55 400q0 108 24 245q15 85 25 120q4 13 9 18t10.5 6t21.5 1q32 0 32 -17q0 -5 -1 -7q-55 -208 -55 -365q0 -93 29 -169t95 -127
t161 -51q96 0 160 35q33 17 33 51q0 44 -0.5 132.5t-0.5 132.5q0 61 -2.5 182.5t-2.5 182.5q0 21 37 21t37 -21q0 -60 -2.5 -181t-2.5 -182q0 -51 2.5 -153t2.5 -153q0 -23 -8.5 -35.5t-29.5 -25.5q-36 -22 -101 -36t-115 -14q-358 0 -358 410z" />
    <glyph glyph-name="Uacute" unicode="&#xda;" horiz-adv-x="735" 
d="M544 958q0 -10 -19 -22q-89 -47 -180 -106q-12 -8 -21 -8q-7 0 -16 9t-9 16t15 19q80 61 159 131q12 12 23 12q13 0 30.5 -19t17.5 -32zM55 400q0 108 24 245q15 85 25 120q4 13 9 18t10.5 6t21.5 1q32 0 32 -17q0 -5 -1 -7q-55 -208 -55 -365q0 -93 29 -169t95 -127
t161 -51q96 0 160 35q33 17 33 51q0 44 -0.5 132.5t-0.5 132.5q0 61 -2.5 182.5t-2.5 182.5q0 21 37 21t37 -21q0 -60 -2.5 -181t-2.5 -182q0 -51 2.5 -153t2.5 -153q0 -23 -8.5 -35.5t-29.5 -25.5q-36 -22 -101 -36t-115 -14q-358 0 -358 410z" />
    <glyph glyph-name="Ucircumflex" unicode="&#xdb;" horiz-adv-x="735" 
d="M593 877q0 -8 -8.5 -17t-16.5 -9q-6 0 -20 9q-131 89 -151 101q-18 -10 -151 -101q-14 -9 -20 -9q-8 0 -16.5 9t-8.5 17q0 6 13 19q23 20 70 61t71 61q14 13 42 13t42 -12q16 -14 44.5 -39t52 -45.5t44.5 -38.5q13 -13 13 -19zM55 400q0 108 24 245q15 85 25 120
q4 13 9 18t10.5 6t21.5 1q32 0 32 -17q0 -5 -1 -7q-55 -208 -55 -365q0 -93 29 -169t95 -127t161 -51q96 0 160 35q33 17 33 51q0 44 -0.5 132.5t-0.5 132.5q0 61 -2.5 182.5t-2.5 182.5q0 21 37 21t37 -21q0 -60 -2.5 -181t-2.5 -182q0 -51 2.5 -153t2.5 -153
q0 -23 -8.5 -35.5t-29.5 -25.5q-36 -22 -101 -36t-115 -14q-358 0 -358 410z" />
    <glyph glyph-name="Udieresis" unicode="&#xdc;" horiz-adv-x="735" 
d="M548 894q0 -27 -11 -38t-38 -11q-28 0 -39 11t-11 38q0 28 11 39t39 11q27 0 38 -11t11 -39zM339 894q0 -27 -11 -38t-38 -11q-28 0 -39 11t-11 38q0 28 11 39t39 11q27 0 38 -11t11 -39zM55 400q0 108 24 245q15 85 25 120q4 13 9 18t10.5 6t21.5 1q32 0 32 -17
q0 -5 -1 -7q-55 -208 -55 -365q0 -93 29 -169t95 -127t161 -51q96 0 160 35q33 17 33 51q0 44 -0.5 132.5t-0.5 132.5q0 61 -2.5 182.5t-2.5 182.5q0 21 37 21t37 -21q0 -60 -2.5 -181t-2.5 -182q0 -51 2.5 -153t2.5 -153q0 -23 -8.5 -35.5t-29.5 -25.5q-36 -22 -101 -36
t-115 -14q-358 0 -358 410z" />
    <glyph glyph-name="Yacute" unicode="&#xdd;" horiz-adv-x="615" 
d="M339 288v-45q0 -92 2 -137q0 -9 2 -40t2 -48q0 -21 -38 -21t-38 21q0 16 2 46t2 40q2 47 2 143v45q-81 77 -156.5 216.5t-111.5 262.5q-1 3 -1 8q0 12 35 12q13 0 18.5 -0.5t13.5 -5t10 -13.5q10 -41 24 -85q25 -73 64.5 -150t82.5 -124q35 -38 55 -38q19 0 54 38
q45 50 85.5 130t64.5 155q9 27 20 71q4 16 11 19t28 3q38 0 38 -13q0 -1 -2 -9q-37 -121 -114.5 -265.5t-154.5 -215.5zM450 959q0 -11 -20 -22q-96 -52 -180 -106q-14 -9 -20 -9q-7 0 -16 9.5t-9 16.5q0 5 14 19q90 69 159 131q14 12 24 12q13 0 30.5 -19t17.5 -32z" />
    <glyph glyph-name="Thorn" unicode="&#xde;" horiz-adv-x="577" 
d="M514 468q0 -36 -20.5 -70.5t-41 -53t-57.5 -47.5q-57 -44 -183 -111l-69 -33q0 -23 0.5 -67.5t0.5 -67.5q0 -21 -37 -21q-38 0 -38 20q0 64 2.5 193.5t2.5 193.5q0 61 -2.5 183t-2.5 183q0 21 37 21q38 0 38 -21q0 -57 -2 -173h201q80 0 125.5 -28t45.5 -101zM436 466
q0 39 -26 53.5t-71 17.5q-57 3 -116 3q-40 0 -60 -1q-11 0 -17 -8t-6 -18q-1 -35 -1 -106q0 -55 2 -165q0 -11 7 -15t18 1q38 17 77 39t86.5 54.5t77 71t29.5 73.5z" />
    <glyph glyph-name="germandbls" unicode="&#xdf;" horiz-adv-x="996" 
d="M470 185q0 -61 -42 -107t-99.5 -67t-116.5 -21q-117 0 -188 37q-12 6 -12 18q0 13 10.5 30.5t21.5 17.5q5 0 11 -3q79 -38 166 -38q61 0 116.5 39.5t55.5 97.5q0 46 -33.5 94t-81.5 89.5t-96.5 82.5t-82 88t-33.5 93q0 82 56 121.5t142 39.5q31 0 78 -5.5t67 -14.5
q16 -6 16 -21q0 -13 -9 -30t-20 -17q-3 0 -9 2q-86 26 -128 26q-48 0 -83 -26.5t-35 -72.5q0 -37 34 -78.5t82 -81t96.5 -82t82.5 -98t34 -113.5zM968 185q0 -61 -42 -107t-99.5 -67t-116.5 -21q-117 0 -188 37q-12 6 -12 18q0 13 10.5 30.5t21.5 17.5q5 0 11 -3
q79 -38 166 -38q61 0 116.5 39.5t55.5 97.5q0 46 -33.5 94t-81.5 89.5t-96.5 82.5t-82 88t-33.5 93q0 82 56 121.5t142 39.5q31 0 78 -5.5t67 -14.5q16 -6 16 -21q0 -13 -9 -30t-20 -17q-3 0 -9 2q-86 26 -128 26q-48 0 -83 -26.5t-35 -72.5q0 -37 34 -78.5t82 -81t96.5 -82
t82.5 -98t34 -113.5z" />
    <glyph glyph-name="agrave" unicode="&#xe0;" horiz-adv-x="709" 
d="M729 15q0 -18 -28 -18h-6h-6h-5.5t-5 0.5t-4.5 1t-5 1t-4.5 2t-4 3l-3.5 3.5t-4 5q-3 5 -8.5 15.5t-9.5 15.5q-21 34 -39 58q-131 171 -369 256q-22 8 -35 8q-12 0 -22 -10t-12.5 -16.5t-9.5 -23.5q-28 -77 -66 -207q-10 -38 -14 -57q-2 -5 -4 -16t-4 -16q-5 -16 -13 -20
t-28 -4q-39 0 -39 18q0 5 1 7q72 244 178 479q72 163 132 254q31 46 59 46q34 0 67 -49q63 -98 134 -255q90 -202 176 -471q2 -6 2 -10zM584 242q0 11 -8 31q-95 247 -174 384q0 1 -3.5 6.5t-5 8t-5.5 8t-6.5 8.5t-6.5 7.5t-7 7t-7 4t-8 1.5q-19 0 -51 -56
q-18 -32 -59.5 -115t-41.5 -94q0 -12 21 -21q6 -2 46 -17t61 -24q111 -50 214 -133q24 -18 32 -18q9 0 9 12zM484 870q0 -8 -9 -17t-16 -9t-20 9q-84 54 -180 106q-20 11 -20 22q0 13 17.5 31.5t30.5 18.5q9 0 24 -11q77 -69 159 -132q14 -11 14 -18z" />
    <glyph glyph-name="aacute" unicode="&#xe1;" horiz-adv-x="709" 
d="M729 15q0 -18 -28 -18h-6h-6h-5.5t-5 0.5t-4.5 1t-5 1t-4.5 2t-4 3l-3.5 3.5t-4 5q-3 5 -8.5 15.5t-9.5 15.5q-21 34 -39 58q-131 171 -369 256q-22 8 -35 8q-12 0 -22 -10t-12.5 -16.5t-9.5 -23.5q-28 -77 -66 -207q-10 -38 -14 -57q-2 -5 -4 -16t-4 -16q-5 -16 -13 -20
t-28 -4q-39 0 -39 18q0 5 1 7q72 244 178 479q72 163 132 254q31 46 59 46q34 0 67 -49q63 -98 134 -255q90 -202 176 -471q2 -6 2 -10zM584 242q0 11 -8 31q-95 247 -174 384q0 1 -3.5 6.5t-5 8t-5.5 8t-6.5 8.5t-6.5 7.5t-7 7t-7 4t-8 1.5q-19 0 -51 -56
q-18 -32 -59.5 -115t-41.5 -94q0 -12 21 -21q6 -2 46 -17t61 -24q111 -50 214 -133q24 -18 32 -18q9 0 9 12zM487 985q0 -11 -20 -22q-96 -52 -180 -106q-12 -8 -20 -8q-7 0 -16 9t-9 16q0 5 14 19q80 61 159 131q14 12 23 12q13 0 31 -19t18 -32z" />
    <glyph glyph-name="acircumflex" unicode="&#xe2;" horiz-adv-x="709" 
d="M176 870l141 123q15 13 42 13q28 0 42 -12q24 -21 71 -62t70 -62q13 -10 13 -18t-8.5 -17t-16.5 -9t-20 8q-116 81 -151 101q-35 -20 -151 -101q-12 -8 -20 -8t-16.5 9t-8.5 17t13 18zM729 15q0 -18 -28 -18h-6h-6h-5.5t-5 0.5t-4.5 1t-5 1t-4.5 2t-4 3l-3.5 3.5t-4 5
q-3 5 -8.5 15.5t-9.5 15.5q-21 34 -39 58q-131 171 -369 256q-22 8 -35 8q-12 0 -22 -10t-12.5 -16.5t-9.5 -23.5q-28 -77 -66 -207q-10 -38 -14 -57q-2 -5 -4 -16t-4 -16q-5 -16 -13 -20t-28 -4q-39 0 -39 18q0 5 1 7q72 244 178 479q72 163 132 254q31 46 59 46
q34 0 67 -49q63 -98 134 -255q90 -202 176 -471q2 -6 2 -10zM584 242q0 11 -8 31q-95 247 -174 384q0 1 -3.5 6.5t-5 8t-5.5 8t-6.5 8.5t-6.5 7.5t-7 7t-7 4t-8 1.5q-19 0 -51 -56q-18 -32 -59.5 -115t-41.5 -94q0 -12 21 -21q6 -2 46 -17t61 -24q111 -50 214 -133
q24 -18 32 -18q9 0 9 12z" />
    <glyph glyph-name="atilde" unicode="&#xe3;" horiz-adv-x="709" 
d="M729 15q0 -18 -28 -18h-6h-6h-5.5t-5 0.5t-4.5 1t-5 1t-4.5 2t-4 3l-3.5 3.5t-4 5q-3 5 -8.5 15.5t-9.5 15.5q-21 34 -39 58q-131 171 -369 256q-22 8 -35 8q-12 0 -22 -10t-12.5 -16.5t-9.5 -23.5q-28 -77 -66 -207q-10 -38 -14 -57q-2 -5 -4 -16t-4 -16q-5 -16 -13 -20
t-28 -4q-39 0 -39 18q0 5 1 7q72 244 178 479q72 163 132 254q31 46 59 46q34 0 67 -49q63 -98 134 -255q90 -202 176 -471q2 -6 2 -10zM584 242q0 11 -8 31q-95 247 -174 384q0 1 -3.5 6.5t-5 8t-5.5 8t-6.5 8.5t-6.5 7.5t-7 7t-7 4t-8 1.5q-19 0 -51 -56
q-18 -32 -59.5 -115t-41.5 -94q0 -12 21 -21q6 -2 46 -17t61 -24q111 -50 214 -133q24 -18 32 -18q9 0 9 12zM586 959q0 -4 -10 -14q-40 -32 -60 -49q-32 -28 -65 -28q-26 0 -64 24t-61 24q-27 0 -71 -28t-48 -28q-7 0 -15.5 11t-8.5 19q0 9 11 16q36 30 54 46q39 35 77 35
q27 0 66 -25t61 -25q23 0 61.5 27t45.5 27t17 -12.5t10 -19.5z" />
    <glyph glyph-name="adieresis" unicode="&#xe4;" horiz-adv-x="709" 
d="M729 15q0 -18 -28 -18h-6h-6h-5.5t-5 0.5t-4.5 1t-5 1t-4.5 2t-4 3l-3.5 3.5t-4 5q-3 5 -8.5 15.5t-9.5 15.5q-21 34 -39 58q-131 171 -369 256q-22 8 -35 8q-12 0 -22 -10t-12.5 -16.5t-9.5 -23.5q-28 -77 -66 -207q-10 -38 -14 -57q-2 -5 -4 -16t-4 -16q-5 -16 -13 -20
t-28 -4q-39 0 -39 18q0 5 1 7q72 244 178 479q72 163 132 254q31 46 59 46q34 0 67 -49q63 -98 134 -255q90 -202 176 -471q2 -6 2 -10zM584 242q0 11 -8 31q-95 247 -174 384q0 1 -3.5 6.5t-5 8t-5.5 8t-6.5 8.5t-6.5 7.5t-7 7t-7 4t-8 1.5q-19 0 -51 -56
q-18 -32 -59.5 -115t-41.5 -94q0 -12 21 -21q6 -2 46 -17t61 -24q111 -50 214 -133q24 -18 32 -18q9 0 9 12zM504 900q0 -27 -11 -38t-38 -11t-38 11t-11 38t11 38t38 11t38 -11t11 -38zM295 900q0 -27 -11 -38t-38 -11t-38 11t-11 38t11 38t38 11t38 -11t11 -38z" />
    <glyph glyph-name="aring" unicode="&#xe5;" horiz-adv-x="709" 
d="M405 769l12 -18q158 -252 310 -726q2 -6 2 -10q0 -18 -28 -18h-7h-7.5t-6.5 0.5t-6.5 1t-5.5 1.5t-6 3l-4.5 4.5t-4.5 5.5q-44 72 -57 89q-131 171 -369 256q-22 8 -35 8q-12 0 -22 -10t-12.5 -16.5t-9.5 -23.5q-33 -88 -68 -215q-2 -9 -8.5 -37.5t-11.5 -43.5
q-5 -16 -13.5 -20t-27.5 -4q-39 0 -39 18q0 5 1 7q60 201 146 406q83 197 164 327q1 3 4 7.5t5 6.5q-36 15 -58 48t-22 72q0 55 38.5 93t92.5 38q55 0 93 -38t38 -93q0 -38 -21 -70.5t-56 -48.5zM430 888q0 33 -23 56t-56 23q-32 0 -55 -23t-23 -56q0 -32 23 -55t55 -23
q33 0 56 23t23 55zM584 242q0 11 -8 31q-95 249 -174 384q-29 51 -48 51q-4 0 -8 -2t-7.5 -4.5t-8 -7.5t-7 -8.5t-6.5 -9.5l-6 -9t-5.5 -8.5t-3.5 -6.5q-18 -32 -59.5 -115t-41.5 -94q0 -12 21 -21q6 -2 46 -17t61 -24q111 -50 214 -133q24 -18 32 -18q9 0 9 12z" />
    <glyph glyph-name="ae" unicode="&#xe6;" horiz-adv-x="1033" 
d="M637 547h104q35 0 104.5 1.5t103.5 1.5q10 0 15 -5t5.5 -10t0.5 -16t-0.5 -16.5t-5.5 -10t-15 -4.5q-37 0 -109 2q-70 1 -210 1q-31 0 -31 -27q0 -122 87 -227t207 -154q32 -13 95 -25q10 -2 14 -3.5t7 -6.5t3 -14q0 -41 -28 -41h-7q-154 19 -283 135q35 -112 35 -113
q0 -18 -28 -18h-6.5h-6h-5.5t-6 0.5t-5.5 1.5t-5.5 2t-4.5 2.5t-4.5 4t-4 5.5q-37 63 -57 89q-131 171 -369 256q-22 8 -35 8q-12 0 -22 -9t-13.5 -17.5t-8.5 -23.5q-39 -108 -68 -214q-4 -14 -10.5 -41.5t-9.5 -40.5q-4 -16 -13 -20t-28 -4q-39 0 -39 18q0 5 1 7
q62 211 156 430q81 188 154 303q29 46 59 46q35 0 66 -49q51 -78 111 -203q17 126 102 190.5t215 64.5q95 0 146 -20q17 -7 17 -20q0 -14 -8.5 -29.5t-20.5 -15.5q-4 0 -10 2q-73 20 -130 20q-79 0 -141 -45t-84 -120q-2 -6 -2 -10q0 -18 26 -18zM584 242q0 11 -8 31
q-94 245 -174 384q-29 51 -50 51q-18 0 -50 -56q-18 -32 -59.5 -115t-41.5 -94q0 -12 21 -21q6 -2 46 -17t61 -24q111 -50 214 -133q24 -18 32 -18q9 0 9 12z" />
    <glyph glyph-name="ccedilla" unicode="&#xe7;" horiz-adv-x="550" 
d="M40 485q0 145 87.5 229.5t233.5 84.5q93 0 146 -20q17 -7 17 -20q0 -14 -8.5 -29.5t-20.5 -15.5q-4 0 -10 2q-68 20 -131 20q-107 0 -172.5 -74.5t-65.5 -183.5q0 -136 89 -247t221 -158q24 -9 79 -19q10 -2 14 -3.5t7 -6.5t3 -14q0 -41 -28 -41h-7q-184 26 -319 169.5
t-135 326.5zM363 -54q0 -9 -10 -21q-70 -90 -117 -163q-10 -15 -19 -15q-8 0 -18 7t-10 15q0 4 7 18q53 98 89 179q11 21 23 21q13 0 34 -14t21 -27z" />
    <glyph glyph-name="egrave" unicode="&#xe8;" horiz-adv-x="545" 
d="M392 868q0 -8 -9 -17t-16 -9t-20 9q-84 54 -180 106q-19 11 -19 22q0 13 17.5 31.5t30.5 18.5q10 0 23 -11q87 -77 159 -132q14 -11 14 -18zM529 32q0 -14 -8 -19t-24 -8q-77 -12 -180 -12q-28 0 -42.5 0.5t-43.5 2.5t-47 7.5t-39.5 14t-36 24t-22.5 35.5q-17 42 -17 117
q0 44 2 131t2 130q0 51 -2 152t-2 152q0 32 42 32q15 0 100.5 -2t130.5 -2q23 0 69 2t68 2q18 0 18 -30q0 -33 -17 -33q-14 0 -40.5 1t-39.5 1q-49 2 -145 2h-68q-26 -1 -35 -13.5t-11 -39.5q-3 -49 -3 -98q0 -14 1.5 -21t8 -12t20.5 -5q115 0 172 1q9 0 26.5 1t31.5 1.5
t26 0.5q10 0 15 -5t5.5 -10.5t0.5 -16.5t-0.5 -16.5t-5.5 -10t-15 -4.5q-42 0 -127.5 1.5t-128.5 1.5q-31 0 -31 -29q0 -38 -0.5 -113.5t-0.5 -113.5q0 -107 37 -142.5t145 -35.5q84 0 168 18q10 2 15 2q14 0 21 -12.5t7 -28.5z" />
    <glyph glyph-name="eacute" unicode="&#xe9;" horiz-adv-x="545" 
d="M454 986q0 -10 -19 -22q-95 -50 -181 -106q-14 -9 -20 -9q-7 0 -16 9t-9 17t15 18q85 66 158 132q14 12 24 12q13 0 30.5 -19t17.5 -32zM529 32q0 -14 -8 -19t-24 -8q-77 -12 -180 -12q-28 0 -42.5 0.5t-43.5 2.5t-47 7.5t-39.5 14t-36 24t-22.5 35.5q-17 42 -17 117
q0 44 2 131t2 130q0 51 -2 152t-2 152q0 32 42 32q15 0 100.5 -2t130.5 -2q23 0 69 2t68 2q18 0 18 -30q0 -33 -17 -33q-14 0 -40.5 1t-39.5 1q-49 2 -145 2h-68q-26 -1 -35 -13.5t-11 -39.5q-3 -49 -3 -98q0 -14 1.5 -21t8 -12t20.5 -5q115 0 172 1q9 0 26.5 1t31.5 1.5
t26 0.5q10 0 15 -5t5.5 -10.5t0.5 -16.5t-0.5 -16.5t-5.5 -10t-15 -4.5q-42 0 -127.5 1.5t-128.5 1.5q-31 0 -31 -29q0 -38 -0.5 -113.5t-0.5 -113.5q0 -107 37 -142.5t145 -35.5q84 0 168 18q10 2 15 2q14 0 21 -12.5t7 -28.5z" />
    <glyph glyph-name="ecircumflex" unicode="&#xea;" horiz-adv-x="545" 
d="M479 874q0 -8 -8.5 -16.5t-16.5 -8.5q-10 0 -20 8q-113 79 -151 101q-35 -20 -151 -101q-12 -8 -20 -8t-16.5 8.5t-8.5 16.5t13 19q16 14 44.5 38.5t52 45t44.5 39.5q14 13 42 13q27 0 41 -12q24 -20 71 -61.5t71 -62.5q13 -13 13 -19zM529 32q0 -14 -8 -19t-24 -8
q-77 -12 -180 -12q-28 0 -42.5 0.5t-43.5 2.5t-47 7.5t-39.5 14t-36 24t-22.5 35.5q-17 42 -17 117q0 44 2 131t2 130q0 51 -2 152t-2 152q0 32 42 32q15 0 100.5 -2t130.5 -2q23 0 69 2t68 2q18 0 18 -30q0 -33 -17 -33q-14 0 -40.5 1t-39.5 1q-49 2 -145 2h-68
q-26 -1 -35 -13.5t-11 -39.5q-3 -49 -3 -98q0 -14 1.5 -21t8 -12t20.5 -5q115 0 172 1q9 0 26.5 1t31.5 1.5t26 0.5q10 0 15 -5t5.5 -10.5t0.5 -16.5t-0.5 -16.5t-5.5 -10t-15 -4.5q-42 0 -127.5 1.5t-128.5 1.5q-31 0 -31 -29q0 -38 -0.5 -113.5t-0.5 -113.5
q0 -107 37 -142.5t145 -35.5q84 0 168 18q10 2 15 2q14 0 21 -12.5t7 -28.5z" />
    <glyph glyph-name="edieresis" unicode="&#xeb;" horiz-adv-x="545" 
d="M439 907q0 -27 -11 -38t-38 -11t-38 11t-11 38q0 28 11 39t38 11t38 -11t11 -39zM230 907q0 -27 -11 -38t-38 -11t-38 11t-11 38q0 28 11 39t38 11t38 -11t11 -39zM529 32q0 -14 -8 -19t-24 -8q-77 -12 -180 -12q-28 0 -42.5 0.5t-43.5 2.5t-47 7.5t-39.5 14t-36 24
t-22.5 35.5q-17 42 -17 117q0 44 2 131t2 130q0 51 -2 152t-2 152q0 32 42 32q15 0 100.5 -2t130.5 -2q23 0 69 2t68 2q18 0 18 -30q0 -33 -17 -33q-14 0 -40.5 1t-39.5 1q-49 2 -145 2h-68q-26 -1 -35 -13.5t-11 -39.5q-3 -49 -3 -98q0 -14 1.5 -21t8 -12t20.5 -5
q115 0 172 1q9 0 26.5 1t31.5 1.5t26 0.5q10 0 15 -5t5.5 -10.5t0.5 -16.5t-0.5 -16.5t-5.5 -10t-15 -4.5q-42 0 -127.5 1.5t-128.5 1.5q-31 0 -31 -29q0 -38 -0.5 -113.5t-0.5 -113.5q0 -107 37 -142.5t145 -35.5q84 0 168 18q10 2 15 2q14 0 21 -12.5t7 -28.5z" />
    <glyph glyph-name="igrave" unicode="&#xec;" horiz-adv-x="214" 
d="M145 18q0 -21 -38 -21t-38 20q0 64 2.5 193.5t2.5 193.5q0 61 -2.5 183t-2.5 183q0 21 38 21t38 -20q0 -61 -2.5 -182t-2.5 -181q0 -65 2.5 -195t2.5 -195zM230 870q0 -7 -9 -16.5t-16 -9.5t-21 9q-91 59 -180 106q-19 12 -19 22q0 13 17.5 32t30.5 19q11 0 23 -12
q79 -70 159 -131q15 -13 15 -19z" />
    <glyph glyph-name="iacute" unicode="&#xed;" horiz-adv-x="214" 
d="M145 18q0 -21 -38 -21t-38 20q0 64 2.5 193.5t2.5 193.5q0 61 -2.5 183t-2.5 183q0 21 38 21t38 -20q0 -61 -2.5 -182t-2.5 -181q0 -65 2.5 -195t2.5 -195zM240 978q0 -10 -19 -22q-95 -50 -181 -106q-14 -9 -20 -9q-7 0 -16 9t-9 17q0 7 14 18q83 63 159 132
q15 11 24 11q13 0 30.5 -18.5t17.5 -31.5z" />
    <glyph glyph-name="icircumflex" unicode="&#xee;" horiz-adv-x="214" 
d="M145 18q0 -21 -38 -21t-38 20q0 64 2.5 193.5t2.5 193.5q0 61 -2.5 183t-2.5 183q0 21 38 21t38 -20q0 -61 -2.5 -182t-2.5 -181q0 -65 2.5 -195t2.5 -195zM310 857q0 -8 -8.5 -17t-16.5 -9q-7 0 -21 9q-133 91 -151 101q-12 -7 -150 -101q-13 -9 -21 -9t-16.5 9t-8.5 17
q0 6 13 19q91 78 141 122q15 13 43 13t41 -12q19 -16 67 -58.5t75 -64.5q13 -13 13 -19z" />
    <glyph glyph-name="idieresis" unicode="&#xef;" horiz-adv-x="214" 
d="M145 18q0 -21 -38 -21t-38 20q0 64 2.5 193.5t2.5 193.5q0 61 -2.5 183t-2.5 183q0 21 38 21t38 -20q0 -61 -2.5 -182t-2.5 -181q0 -65 2.5 -195t2.5 -195zM260 902q0 -27 -11 -38t-39 -11q-27 0 -38 11t-11 38t11 38t38 11q28 0 39 -11t11 -38zM51 902q0 -27 -11 -38
t-39 -11q-27 0 -38 11t-11 38t11 38t38 11q28 0 39 -11t11 -38z" />
    <glyph glyph-name="eth" unicode="&#xf0;" horiz-adv-x="735" 
d="M155 789h302q110 0 174 -51.5t64 -158.5q0 -91 -48 -185.5t-123 -171t-162.5 -136.5t-172.5 -92q-23 -9 -41 -9q-38 0 -38 39q0 69 2 194.5t2 164.5q-12 0 -33 -1t-38 -1.5t-33 -0.5q-19 0 -19 34t18 34l105 -3q0 49 -2 149t-2 150q0 45 45 45zM181 385v-204q0 -69 1 -83
q2 -30 18 -30q9 0 27 9q65 32 131 82t125.5 112t97 138t37.5 147q0 79 -46.5 124t-126.5 49q-32 2 -98 2q-111 0 -136 -4q-10 -2 -14.5 -3t-7.5 -5.5t-3.5 -8.5t-1.5 -15q-1 -14 -1 -86q-2 -112 -2 -166q27 0 81.5 2.5t81.5 2.5q19 0 19 -34t-20 -34q-26 0 -80.5 2.5
t-81.5 2.5z" />
    <glyph glyph-name="ntilde" unicode="&#xf1;" horiz-adv-x="640" 
d="M541 952q0 -7 -9 -14q-5 -4 -27 -22t-33 -28q-32 -28 -65 -28q-28 0 -65 25q-36 24 -60 24q-27 0 -71 -28t-48 -28q-7 0 -15.5 11t-8.5 18q0 9 10 17q19 15 55 45q39 35 76 35q28 0 67.5 -24.5t60.5 -24.5q23 0 61.5 26.5t45.5 26.5q6 0 16 -12.5t10 -18.5zM62 294
q0 231 31 417q0 1 1.5 8t2 10.5t2 10.5t2.5 11t3 10.5t4 10.5t5 8.5t6 7.5t7 5q8 4 18 4q30 0 74 -31q119 -80 218 -185q17 -17 51 -58q7 -9 14 -9q12 0 12 24q0 42 -7 124.5t-8 102.5v4q-1 14 10.5 19t28.5 5q12 0 17.5 -1t10.5 -6t6 -16q1 -20 4 -123q2 -87 2 -260
q0 -268 -5 -372q-1 -19 -43 -19q-30 0 -30 17v5q12 114 12 343q0 37 -22 65q-54 69 -130 143.5t-139 114.5q-27 17 -41 17q-19 0 -27 -42q-25 -139 -25 -335q0 -60 7.5 -175.5t8.5 -130.5v-5q1 -10 -7 -13t-21 -3q-42 0 -44 17q-9 85 -9 280z" />
    <glyph glyph-name="ograve" unicode="&#xf2;" 
d="M788 394q0 -111 -43 -204t-128.5 -151.5t-197.5 -58.5t-197.5 58.5t-128.5 152t-43 203.5q0 172 100.5 293.5t268.5 121.5q114 0 199 -58t127.5 -151.5t42.5 -205.5zM713 394q0 95 -30.5 172.5t-99 127.5t-164.5 50t-164.5 -50.5t-99 -127.5t-30.5 -172q0 -94 31 -171.5
t99 -127.5t164 -50t164.5 50t99 127t30.5 172zM551 885q0 -7 -8.5 -16.5t-15.5 -9.5q-9 0 -21 8q-87 56 -180 107q-19 8 -19 22q0 12 17.5 31t30.5 19q11 0 23 -12q79 -70 159 -131q14 -9 14 -18z" />
    <glyph glyph-name="oacute" unicode="&#xf3;" 
d="M788 394q0 -111 -43 -204t-128.5 -151.5t-197.5 -58.5t-197.5 58.5t-128.5 152t-43 203.5q0 172 100.5 293.5t268.5 121.5q114 0 199 -58t127.5 -151.5t42.5 -205.5zM713 394q0 95 -30.5 172.5t-99 127.5t-164.5 50t-164.5 -50.5t-99 -127.5t-30.5 -172q0 -94 31 -171.5
t99 -127.5t164 -50t164.5 50t99 127t30.5 172zM546 1003q0 -10 -19 -22q-95 -50 -181 -106q-12 -8 -20 -8q-7 0 -16 9t-9 16t15 19q93 72 158 131q14 12 24 12q13 0 30.5 -19t17.5 -32z" />
    <glyph glyph-name="ocircumflex" unicode="&#xf4;" 
d="M788 394q0 -111 -43 -204t-128.5 -151.5t-197.5 -58.5t-197.5 58.5t-128.5 152t-43 203.5q0 172 100.5 293.5t268.5 121.5q114 0 199 -58t127.5 -151.5t42.5 -205.5zM713 394q0 95 -30.5 172.5t-99 127.5t-164.5 50t-164.5 -50.5t-99 -127.5t-30.5 -172q0 -94 31 -171.5
t99 -127.5t164 -50t164.5 50t99 127t30.5 172zM621 872q0 -8 -8.5 -16.5t-16.5 -8.5q-9 0 -21 8q-105 75 -150 101q-35 -20 -151 -101q-12 -8 -20 -8t-17 8.5t-9 16.5q0 7 14 19q16 14 44.5 38.5t52 45t44.5 39.5q14 13 42 13q27 0 41 -12q24 -21 71 -62.5t71 -61.5
q13 -13 13 -19z" />
    <glyph glyph-name="otilde" unicode="&#xf5;" 
d="M788 394q0 -111 -43 -204t-128.5 -151.5t-197.5 -58.5t-197.5 58.5t-128.5 152t-43 203.5q0 172 100.5 293.5t268.5 121.5q114 0 199 -58t127.5 -151.5t42.5 -205.5zM713 394q0 95 -30.5 172.5t-99 127.5t-164.5 50t-164.5 -50.5t-99 -127.5t-30.5 -172q0 -94 31 -171.5
t99 -127.5t164 -50t164.5 50t99 127t30.5 172zM632 963q0 -5 -10 -15q-40 -32 -60 -49q-32 -28 -65 -28q-26 0 -64 24t-60 24q-27 0 -71 -28t-48 -28q-7 0 -15.5 11t-8.5 19q0 7 10 17q6 5 17 14t20 16.5t17 14.5q41 35 77 35q28 0 67 -24.5t60 -24.5q23 0 62 26.5t45 26.5
t16.5 -12.5t10.5 -18.5z" />
    <glyph glyph-name="odieresis" unicode="&#xf6;" 
d="M788 394q0 -111 -43 -204t-128.5 -151.5t-197.5 -58.5t-197.5 58.5t-128.5 152t-43 203.5q0 172 100.5 293.5t268.5 121.5q114 0 199 -58t127.5 -151.5t42.5 -205.5zM713 394q0 95 -30.5 172.5t-99 127.5t-164.5 50t-164.5 -50.5t-99 -127.5t-30.5 -172q0 -94 31 -171.5
t99 -127.5t164 -50t164.5 50t99 127t30.5 172zM572 910q0 -27 -11 -38t-38 -11q-28 0 -39 11t-11 38q0 28 11 39t39 11q27 0 38 -11t11 -39zM363 910q0 -27 -11 -38t-38 -11q-28 0 -39 11t-11 38q0 28 11 39t39 11q27 0 38 -11t11 -39z" />
    <glyph glyph-name="divide" unicode="&#xf7;" horiz-adv-x="600" 
d="M552 260h-504v64h504v-64zM236 499q0 26 19 45t45 19t45 -19.5t19 -44.5q0 -24 -19 -44t-44 -20q-26 0 -45.5 19t-19.5 45zM236 85q0 26 19 45t45 19t45 -19.5t19 -44.5q0 -24 -19 -44t-44 -20q-26 0 -45.5 19t-19.5 45z" />
    <glyph glyph-name="oslash" unicode="&#xf8;" 
d="M788 394q0 -111 -43 -204t-128.5 -151.5t-197.5 -58.5q-140 0 -242 94l-62 -72q-6 -6 -14 -6q-11 0 -27 14.5t-16 25.5q0 5 6 13q11 12 34.5 37t35.5 37q-84 113 -84 271q0 172 100.5 293.5t268.5 121.5q145 0 246 -96l63 72q8 8 15 8q11 0 27 -15t16 -25q0 -7 -7 -14
q-23 -25 -71 -75q80 -111 80 -270zM621 662q-79 82 -202 82q-96 0 -164.5 -50.5t-99 -127.5t-30.5 -172q0 -131 56 -220q221 239 440 488zM713 394q0 127 -54 217q-205 -221 -438 -487q78 -79 198 -79q96 0 164.5 50t99 127t30.5 172z" />
    <glyph glyph-name="ugrave" unicode="&#xf9;" horiz-adv-x="735" 
d="M482 848q0 -8 -9 -17t-16 -9q-8 0 -20 8q-77 50 -180 107q-20 9 -20 22q0 12 17.5 31t30.5 19q10 0 24 -12q69 -62 159 -131q14 -11 14 -18zM55 400q0 108 24 245q15 85 25 120q4 13 9 18t10.5 6t21.5 1q32 0 32 -17q0 -5 -1 -7q-55 -208 -55 -365q0 -93 29 -169t95 -127
t161 -51q96 0 160 35q33 17 33 51q0 44 -0.5 132.5t-0.5 132.5q0 61 -2.5 182.5t-2.5 182.5q0 21 37 21t37 -21q0 -60 -2.5 -181t-2.5 -182q0 -51 2.5 -153t2.5 -153q0 -23 -8.5 -35.5t-29.5 -25.5q-36 -22 -101 -36t-115 -14q-358 0 -358 410z" />
    <glyph glyph-name="uacute" unicode="&#xfa;" horiz-adv-x="735" 
d="M544 958q0 -10 -19 -22q-89 -47 -180 -106q-12 -8 -21 -8q-7 0 -16 9t-9 16t15 19q80 61 159 131q12 12 23 12q13 0 30.5 -19t17.5 -32zM55 400q0 108 24 245q15 85 25 120q4 13 9 18t10.5 6t21.5 1q32 0 32 -17q0 -5 -1 -7q-55 -208 -55 -365q0 -93 29 -169t95 -127
t161 -51q96 0 160 35q33 17 33 51q0 44 -0.5 132.5t-0.5 132.5q0 61 -2.5 182.5t-2.5 182.5q0 21 37 21t37 -21q0 -60 -2.5 -181t-2.5 -182q0 -51 2.5 -153t2.5 -153q0 -23 -8.5 -35.5t-29.5 -25.5q-36 -22 -101 -36t-115 -14q-358 0 -358 410z" />
    <glyph glyph-name="ucircumflex" unicode="&#xfb;" horiz-adv-x="735" 
d="M593 877q0 -8 -8.5 -17t-16.5 -9q-6 0 -20 9q-131 89 -151 101q-18 -10 -151 -101q-14 -9 -20 -9q-8 0 -16.5 9t-8.5 17q0 6 13 19q23 20 70 61t71 61q14 13 42 13t42 -12q16 -14 44.5 -39t52 -45.5t44.5 -38.5q13 -13 13 -19zM55 400q0 108 24 245q15 85 25 120
q4 13 9 18t10.5 6t21.5 1q32 0 32 -17q0 -5 -1 -7q-55 -208 -55 -365q0 -93 29 -169t95 -127t161 -51q96 0 160 35q33 17 33 51q0 44 -0.5 132.5t-0.5 132.5q0 61 -2.5 182.5t-2.5 182.5q0 21 37 21t37 -21q0 -60 -2.5 -181t-2.5 -182q0 -51 2.5 -153t2.5 -153
q0 -23 -8.5 -35.5t-29.5 -25.5q-36 -22 -101 -36t-115 -14q-358 0 -358 410z" />
    <glyph glyph-name="udieresis" unicode="&#xfc;" horiz-adv-x="735" 
d="M548 894q0 -27 -11 -38t-38 -11q-28 0 -39 11t-11 38q0 28 11 39t39 11q27 0 38 -11t11 -39zM339 894q0 -27 -11 -38t-38 -11q-28 0 -39 11t-11 38q0 28 11 39t39 11q27 0 38 -11t11 -39zM55 400q0 108 24 245q15 85 25 120q4 13 9 18t10.5 6t21.5 1q32 0 32 -17
q0 -5 -1 -7q-55 -208 -55 -365q0 -93 29 -169t95 -127t161 -51q96 0 160 35q33 17 33 51q0 44 -0.5 132.5t-0.5 132.5q0 61 -2.5 182.5t-2.5 182.5q0 21 37 21t37 -21q0 -60 -2.5 -181t-2.5 -182q0 -51 2.5 -153t2.5 -153q0 -23 -8.5 -35.5t-29.5 -25.5q-36 -22 -101 -36
t-115 -14q-358 0 -358 410z" />
    <glyph glyph-name="yacute" unicode="&#xfd;" horiz-adv-x="615" 
d="M339 288v-45q0 -92 2 -137q0 -9 2 -40t2 -48q0 -21 -38 -21t-38 21q0 16 2 46t2 40q2 47 2 143v45q-81 77 -156.5 216.5t-111.5 262.5q-1 3 -1 8q0 12 35 12q13 0 18.5 -0.5t13.5 -5t10 -13.5q10 -41 24 -85q25 -73 64.5 -150t82.5 -124q35 -38 55 -38q19 0 54 38
q45 50 85.5 130t64.5 155q9 27 20 71q4 16 11 19t28 3q38 0 38 -13q0 -1 -2 -9q-37 -121 -114.5 -265.5t-154.5 -215.5zM450 959q0 -11 -20 -22q-96 -52 -180 -106q-14 -9 -20 -9q-7 0 -16 9.5t-9 16.5q0 5 14 19q90 69 159 131q14 12 24 12q13 0 30.5 -19t17.5 -32z" />
    <glyph glyph-name="thorn" unicode="&#xfe;" horiz-adv-x="577" 
d="M514 468q0 -36 -20.5 -70.5t-41 -53t-57.5 -47.5q-57 -44 -183 -111l-69 -33q0 -23 0.5 -67.5t0.5 -67.5q0 -21 -37 -21q-38 0 -38 20q0 64 2.5 193.5t2.5 193.5q0 61 -2.5 183t-2.5 183q0 21 37 21q38 0 38 -21q0 -57 -2 -173h201q80 0 125.5 -28t45.5 -101zM436 466
q0 39 -26 53.5t-71 17.5q-57 3 -116 3q-40 0 -60 -1q-11 0 -17 -8t-6 -18q-1 -35 -1 -106q0 -55 2 -165q0 -11 7 -15t18 1q38 17 77 39t86.5 54.5t77 71t29.5 73.5z" />
    <glyph glyph-name="ydieresis" unicode="&#xff;" horiz-adv-x="615" 
d="M464 873q0 -27 -11 -38t-38 -11t-38 11t-11 38t11 38t38 11t38 -11t11 -38zM255 873q0 -27 -11 -38t-38 -11t-38 11t-11 38t11 38t38 11t38 -11t11 -38zM339 288v-45q0 -92 2 -137q0 -9 2 -40t2 -48q0 -21 -38 -21t-38 21q0 16 2 46t2 40q2 47 2 143v45
q-81 77 -156.5 216.5t-111.5 262.5q-1 3 -1 8q0 12 35 12q13 0 18.5 -0.5t13.5 -5t10 -13.5q10 -41 24 -85q25 -73 64.5 -150t82.5 -124q35 -38 55 -38q19 0 54 38q45 50 85.5 130t64.5 155q9 27 20 71q4 16 11 19t28 3q38 0 38 -13q0 -1 -2 -9q-37 -121 -114.5 -265.5
t-154.5 -215.5z" />
    <glyph glyph-name="dotlessi" unicode="&#x131;" horiz-adv-x="214" 
d="M145 18q0 -21 -38 -21t-38 20q0 64 2.5 193.5t2.5 193.5q0 61 -2.5 183t-2.5 183q0 21 38 21t38 -20q0 -61 -2.5 -182t-2.5 -181q0 -65 2.5 -195t2.5 -195z" />
    <glyph glyph-name="Lslash" unicode="&#x141;" horiz-adv-x="572" 
d="M562 27q0 -10 -5 -16t-10.5 -7.5t-16.5 -3.5q-51 -8 -146 -8q-28 0 -42 0.5t-43 2.5t-47 7.5t-40 14t-36.5 24t-22.5 35.5q-17 43 -17 117q0 46 3 148q-73 -61 -119 -97q-16 -13 -36 15q-23 26 -6 38q5 4 162 121q1 63 -1.5 181.5t-2.5 170.5q0 21 37 21q39 0 39 -21
q0 -34 -2 -95.5t-2 -81.5q-2 -82 -2 -124q16 13 66.5 55t82.5 67q16 13 35 -15q22 -26 6 -38q-29 -22 -93.5 -69.5t-98.5 -74.5q0 -28 -0.5 -82t-0.5 -82q0 -107 37 -142.5t145 -35.5q66 0 134 14q10 2 15 2q14 0 21 -13t7 -28z" />
    <glyph glyph-name="lslash" unicode="&#x142;" horiz-adv-x="572" 
d="M562 27q0 -10 -5 -16t-10.5 -7.5t-16.5 -3.5q-51 -8 -146 -8q-28 0 -42 0.5t-43 2.5t-47 7.5t-40 14t-36.5 24t-22.5 35.5q-17 43 -17 117q0 46 3 148q-73 -61 -119 -97q-16 -13 -36 15q-23 26 -6 38q5 4 162 121q1 63 -1.5 181.5t-2.5 170.5q0 21 37 21q39 0 39 -21
q0 -34 -2 -95.5t-2 -81.5q-2 -82 -2 -124q16 13 66.5 55t82.5 67q16 13 35 -15q22 -26 6 -38q-29 -22 -93.5 -69.5t-98.5 -74.5q0 -28 -0.5 -82t-0.5 -82q0 -107 37 -142.5t145 -35.5q66 0 134 14q10 2 15 2q14 0 21 -13t7 -28z" />
    <glyph glyph-name="OE" unicode="&#x152;" horiz-adv-x="1219" 
d="M822 543h66q106 0 159 1q15 0 44 1t43 1q10 0 15 -5t5.5 -10t0.5 -16t-0.5 -16.5t-5.5 -10t-15 -4.5q-38 0 -112 2q-69 1 -207 1q-31 0 -31 -27q0 -122 87 -227t207 -154q32 -13 95 -25q10 -2 14 -3.5t7 -6.5t3 -14q0 -41 -28 -41h-7q-119 16 -226 89.5t-167 178.5
q-34 -125 -128 -201t-222 -76q-112 0 -197.5 58.5t-128.5 152t-43 203.5q0 172 100.5 293.5t268.5 121.5q101 0 183 -48.5t131 -137.5q35 90 113.5 133t182.5 43q93 0 146 -20q17 -7 17 -20q0 -14 -8.5 -29.5t-20.5 -15.5q-4 0 -10 2q-73 20 -130 20q-79 0 -140.5 -45
t-84.5 -120q-2 -6 -2 -10q0 -18 26 -18zM713 394q0 95 -30.5 172.5t-99 127.5t-164.5 50t-164.5 -50.5t-99 -127.5t-30.5 -172q0 -94 31 -171.5t99 -127.5t164 -50t164.5 50t99 127t30.5 172z" />
    <glyph glyph-name="oe" unicode="&#x153;" horiz-adv-x="1219" 
d="M822 543h66q106 0 159 1q15 0 44 1t43 1q10 0 15 -5t5.5 -10t0.5 -16t-0.5 -16.5t-5.5 -10t-15 -4.5q-38 0 -112 2q-69 1 -207 1q-31 0 -31 -27q0 -122 87 -227t207 -154q32 -13 95 -25q10 -2 14 -3.5t7 -6.5t3 -14q0 -41 -28 -41h-7q-119 16 -226 89.5t-167 178.5
q-34 -125 -128 -201t-222 -76q-112 0 -197.5 58.5t-128.5 152t-43 203.5q0 172 100.5 293.5t268.5 121.5q101 0 183 -48.5t131 -137.5q35 90 113.5 133t182.5 43q93 0 146 -20q17 -7 17 -20q0 -14 -8.5 -29.5t-20.5 -15.5q-4 0 -10 2q-73 20 -130 20q-79 0 -140.5 -45
t-84.5 -120q-2 -6 -2 -10q0 -18 26 -18zM713 394q0 95 -30.5 172.5t-99 127.5t-164.5 50t-164.5 -50.5t-99 -127.5t-30.5 -172q0 -94 31 -171.5t99 -127.5t164 -50t164.5 50t99 127t30.5 172z" />
    <glyph glyph-name="Scaron" unicode="&#x160;" horiz-adv-x="498" 
d="M470 185q0 -61 -42 -107t-99.5 -67t-116.5 -21q-117 0 -188 37q-12 6 -12 18q0 13 10.5 30.5t21.5 17.5q5 0 11 -3q79 -38 166 -38q61 0 116.5 39.5t55.5 97.5q0 46 -33.5 94t-81.5 89.5t-96.5 82.5t-82 88t-33.5 93q0 82 56 121.5t142 39.5q31 0 78 -5.5t67 -14.5
q16 -6 16 -21q0 -13 -9 -30t-20 -17q-3 0 -9 2q-86 26 -128 26q-48 0 -83 -26.5t-35 -72.5q0 -37 34 -78.5t82 -81t96.5 -82t82.5 -98t34 -113.5zM455 1000q0 -6 -13 -19q-15 -13 -65 -56t-77 -67q-14 -13 -42 -13q-27 0 -41 12q-24 20 -71 62t-71 62q-13 13 -13 19
q0 8 9 16.5t16 8.5q9 0 21 -8q117 -82 150 -101q35 20 151 101q12 8 21 8q8 0 16.5 -8.5t8.5 -16.5z" />
    <glyph glyph-name="scaron" unicode="&#x161;" horiz-adv-x="498" 
d="M470 185q0 -61 -42 -107t-99.5 -67t-116.5 -21q-117 0 -188 37q-12 6 -12 18q0 13 10.5 30.5t21.5 17.5q5 0 11 -3q79 -38 166 -38q61 0 116.5 39.5t55.5 97.5q0 46 -33.5 94t-81.5 89.5t-96.5 82.5t-82 88t-33.5 93q0 82 56 121.5t142 39.5q31 0 78 -5.5t67 -14.5
q16 -6 16 -21q0 -13 -9 -30t-20 -17q-3 0 -9 2q-86 26 -128 26q-48 0 -83 -26.5t-35 -72.5q0 -37 34 -78.5t82 -81t96.5 -82t82.5 -98t34 -113.5zM455 1000q0 -6 -13 -19q-15 -13 -65 -56t-77 -67q-14 -13 -42 -13q-27 0 -41 12q-24 20 -71 62t-71 62q-13 13 -13 19
q0 8 9 16.5t16 8.5q9 0 21 -8q117 -82 150 -101q35 20 151 101q12 8 21 8q8 0 16.5 -8.5t8.5 -16.5z" />
    <glyph glyph-name="Ydieresis" unicode="&#x178;" horiz-adv-x="615" 
d="M464 873q0 -27 -11 -38t-38 -11t-38 11t-11 38t11 38t38 11t38 -11t11 -38zM255 873q0 -27 -11 -38t-38 -11t-38 11t-11 38t11 38t38 11t38 -11t11 -38zM339 288v-45q0 -92 2 -137q0 -9 2 -40t2 -48q0 -21 -38 -21t-38 21q0 16 2 46t2 40q2 47 2 143v45
q-81 77 -156.5 216.5t-111.5 262.5q-1 3 -1 8q0 12 35 12q13 0 18.5 -0.5t13.5 -5t10 -13.5q10 -41 24 -85q25 -73 64.5 -150t82.5 -124q35 -38 55 -38q19 0 54 38q45 50 85.5 130t64.5 155q9 27 20 71q4 16 11 19t28 3q38 0 38 -13q0 -1 -2 -9q-37 -121 -114.5 -265.5
t-154.5 -215.5z" />
    <glyph glyph-name="Zcaron" unicode="&#x17d;" horiz-adv-x="563" 
d="M543 58q0 -11 -1 -16q-4 -25 -12.5 -33.5t-34.5 -8.5h-417q-60 0 -60 55q0 14 5 31q18 57 60.5 128.5t105.5 152t104 129t103 118.5q49 58 49 82q0 35 -80 38q-29 2 -88 2q-120 0 -189 -17q-8 -2 -14 -2q-16 0 -16 21q0 5 2 17q5 22 11 28.5t28 7.5q45 3 136 3
q123 0 205 -6q88 -7 88 -65q0 -49 -61 -119q-7 -8 -68.5 -78t-85 -98.5t-69.5 -87t-73.5 -105t-46.5 -90.5q-12 -28 -12 -46q0 -15 11.5 -23.5t21.5 -10.5t27 -3q51 -4 114 -4q117 0 226 16q10 2 16 2q15 0 15 -18zM487 998q0 -6 -13 -19q-15 -13 -65 -56t-77 -67
q-14 -13 -42 -13q-27 0 -41 12q-24 21 -71 62.5t-71 61.5q-13 13 -13 19q0 8 9 16.5t16 8.5q9 0 21 -8q118 -82 150 -101q35 20 151 101q12 8 21 8q8 0 16.5 -8.5t8.5 -16.5z" />
    <glyph glyph-name="zcaron" unicode="&#x17e;" horiz-adv-x="563" 
d="M543 58q0 -11 -1 -16q-4 -25 -12.5 -33.5t-34.5 -8.5h-417q-60 0 -60 55q0 14 5 31q18 57 60.5 128.5t105.5 152t104 129t103 118.5q49 58 49 82q0 35 -80 38q-29 2 -88 2q-120 0 -189 -17q-8 -2 -14 -2q-16 0 -16 21q0 5 2 17q5 22 11 28.5t28 7.5q45 3 136 3
q123 0 205 -6q88 -7 88 -65q0 -49 -61 -119q-7 -8 -68.5 -78t-85 -98.5t-69.5 -87t-73.5 -105t-46.5 -90.5q-12 -28 -12 -46q0 -15 11.5 -23.5t21.5 -10.5t27 -3q51 -4 114 -4q117 0 226 16q10 2 16 2q15 0 15 -18zM487 998q0 -6 -13 -19q-15 -13 -65 -56t-77 -67
q-14 -13 -42 -13q-27 0 -41 12q-24 21 -71 62.5t-71 61.5q-13 13 -13 19q0 8 9 16.5t16 8.5q9 0 21 -8q118 -82 150 -101q35 20 151 101q12 8 21 8q8 0 16.5 -8.5t8.5 -16.5z" />
    <glyph glyph-name="florin" unicode="&#x192;" horiz-adv-x="482" 
d="M34 106v4q44 160 81 310q11 45 31 134.5t31 133.5q10 40 44 40q23 0 70.5 -1.5t71.5 -1.5q15 0 44 1.5t43 1.5q18 0 18 -18q0 -12 -6.5 -28.5t-16.5 -16.5q-24 0 -72 1.5t-72 1.5h-18q-20 -1 -30.5 -9t-16.5 -27q-24 -96 -24 -106q0 -11 17 -11h92q11 0 34 0.5t35 0.5
q16 0 16 -16q0 -44 -28 -44t-82 2t-82 2q-25 0 -30 -23q-20 -71 -57 -234q-2 -10 -10 -43t-13 -50q-4 -17 -40 -17q-30 0 -30 13z" />
    <glyph glyph-name="circumflex" unicode="&#x2c6;" horiz-adv-x="477" 
d="M435 664q0 -8 -8.5 -16.5t-16.5 -8.5q-9 0 -21 8q-116 81 -151 101q-32 -19 -150 -101q-12 -8 -21 -8q-7 0 -16 8.5t-9 16.5q0 6 13 19q16 14 45 38.5t52.5 45t43.5 39.5q15 13 43 13q27 0 41 -12q24 -21 71 -62.5t71 -61.5q13 -13 13 -19z" />
    <glyph glyph-name="caron" unicode="&#x2c7;" horiz-adv-x="477" 
d="M435 802q0 -6 -13 -19q-15 -13 -65 -56t-77 -67q-14 -13 -42 -13q-27 0 -41 12q-24 21 -71 62.5t-71 61.5q-13 13 -13 19q0 8 9 16.5t16 8.5q9 0 21 -8q118 -82 150 -101q35 20 151 101q12 8 21 8q8 0 16.5 -8.5t8.5 -16.5z" />
    <glyph glyph-name="uni02C9" unicode="&#x2c9;" horiz-adv-x="472" 
d="M422 673q0 -34 -20 -34q-27 0 -81 2.5t-81 2.5q-28 0 -85 -2.5t-86 -2.5q-19 0 -19 34t20 34q28 0 85 -2.5t86 -2.5q27 0 81 2.5t81 2.5q19 0 19 -34z" />
    <glyph glyph-name="breve" unicode="&#x2d8;" horiz-adv-x="415" 
d="M369 783q0 -7 -1 -10q-10 -57 -56 -91.5t-105 -34.5t-105 34.5t-55 91.5q-1 3 -1 10q0 15 26 15h6.5t4.5 -1l3 -1.5t2.5 -3t1.5 -3.5t1.5 -5t2.5 -6q22 -69 113 -69q39 0 71.5 17t43.5 52q4 15 7 17.5t17 2.5q23 0 23 -15z" />
    <glyph glyph-name="dotaccent" unicode="&#x2d9;" horiz-adv-x="230" 
d="M168 690q0 -29 -12 -41t-41 -12t-41 12t-12 41t12 41t41 12t41 -12t12 -41z" />
    <glyph glyph-name="ring" unicode="&#x2da;" horiz-adv-x="299" 
d="M281 756q0 -54 -38 -92.5t-93 -38.5q-54 0 -92.5 38.5t-38.5 92.5t38.5 92.5t92.5 38.5q55 0 93 -38.5t38 -92.5zM229 756q0 33 -23 56t-56 23q-32 0 -55 -23t-23 -56q0 -32 23 -55t55 -23q33 0 56 23t23 55z" />
    <glyph glyph-name="ogonek" unicode="&#x2db;" horiz-adv-x="273" 
d="M252 -259q0 -13 -31 -21.5t-50 -8.5q-59 0 -102 42t-43 101q0 56 33 94q9 9 15 9t13 -6.5t7 -13.5t-6 -22.5t-6 -27.5q0 -49 31.5 -87.5t79.5 -38.5q7 0 19.5 3.5t18.5 3.5t13.5 -10t7.5 -17z" />
    <glyph glyph-name="tilde" unicode="&#x2dc;" horiz-adv-x="503" 
d="M452 746q0 -7 -9 -14q-5 -4 -27 -22t-33 -28q-32 -28 -65 -28q-28 0 -65 25q-36 24 -60 24q-27 0 -71 -28t-48 -28q-7 0 -15.5 11t-8.5 18q0 9 10 17q19 15 55 45q39 35 76 35q28 0 67.5 -24.5t60.5 -24.5q23 0 61.5 26.5t45.5 26.5q6 0 16 -12.5t10 -18.5z" />
    <glyph glyph-name="hungarumlaut" unicode="&#x2dd;" horiz-adv-x="513" 
d="M471 777q0 -11 -16 -20q-81 -49 -163 -108q-11 -9 -19 -9q-7 0 -15.5 8.5t-8.5 15.5t13 17q84 72 141 129q13 13 22 13q12 0 29 -17t17 -29zM266 777q0 -11 -17 -20q-83 -51 -162 -108q-11 -9 -19 -9q-7 0 -15.5 8.5t-8.5 15.5t13 17q87 76 141 129q13 13 22 13
q12 0 29 -17t17 -29z" />
    <glyph glyph-name="uni03A9" unicode="&#x3a9;" horiz-adv-x="1028" 
d="M295 50v3q-87 57 -143.5 150t-56.5 212q0 169 123 281t299 112q90 0 168.5 -32.5t132 -87t84 -125t30.5 -145.5q0 -123 -59 -218.5t-143 -146.5v-3h221v-50h-322v37q99 47 167.5 143t68.5 233q0 60 -23 120.5t-65.5 111t-110.5 82.5t-149 32q-157 0 -256 -103t-99 -247
q0 -129 69 -227.5t166 -144.5v-37h-321v50h219z" />
    <glyph glyph-name="uni03BC" unicode="&#x3bc;" horiz-adv-x="576" 
d="M88 500h64v-316q0 -64 34.5 -101t95.5 -37q63 0 102.5 50.5t39.5 117.5v286h64v-500h-64v80h-4q-52 -92 -150 -92q-75 0 -114 54h-4v-234h-64v692z" />
    <glyph glyph-name="pi" unicode="&#x3c0;" horiz-adv-x="770" 
d="M736 536h-122v-357q0 -116 21 -179h-65q-22 29 -22 168v368h-287q-8 -130 -40 -299t-68 -237h-66q38 82 69 244t38 292q-120 0 -169 -19l-13 42q60 30 185 30h546z" />
    <glyph glyph-name="endash" unicode="&#x2013;" horiz-adv-x="659" 
d="M609 396q0 -34 -21 -34q-40 0 -120 2.5t-120 2.5q-46 0 -139.5 -2.5t-139.5 -2.5q-19 0 -19 34t18 34q47 0 142.5 -2.5t142.5 -2.5q40 0 118.5 2.5t118.5 2.5q19 0 19 -34z" />
    <glyph glyph-name="emdash" unicode="&#x2014;" horiz-adv-x="844" 
d="M794 396q0 -34 -19 -34q-57 0 -173.5 2.5t-177.5 2.5q-57 0 -175.5 -2.5t-179.5 -2.5q-19 0 -19 34t20 34q60 0 178.5 -2.5t175.5 -2.5q61 0 177.5 2.5t173.5 2.5q19 0 19 -34z" />
    <glyph glyph-name="quoteleft" unicode="&#x2018;" horiz-adv-x="230" 
d="M211 632q0 -8 -10.5 -16t-18.5 -8q-9 0 -21 17q-66 99 -126 175q-10 12 -10 23q0 13 22 28t36 15q15 0 25 -22q50 -111 96 -193q7 -14 7 -19z" />
    <glyph glyph-name="quoteright" unicode="&#x2019;" horiz-adv-x="230" 
d="M207 823q0 -11 -10 -23q-60 -76 -126 -175q-12 -17 -21 -17q-8 0 -18.5 8t-10.5 16q0 5 7 19q46 82 96 193q10 22 25 22q14 0 36 -15t22 -28z" />
    <glyph glyph-name="quotesinglbase" unicode="&#x201a;" horiz-adv-x="230" 
d="M186 53q0 -11 -10 -23q-60 -76 -126 -175q-12 -17 -21 -17q-8 0 -18.5 8t-10.5 16q0 5 7 19q46 82 96 193q10 22 25 22q14 0 36 -15t22 -28z" />
    <glyph glyph-name="quotedblleft" unicode="&#x201c;" horiz-adv-x="424" 
d="M405 632q0 -8 -10.5 -16t-18.5 -8q-9 0 -21 17q-66 99 -126 175q-10 12 -10 23q0 13 22 28t36 15q15 0 25 -22q51 -111 96 -193q7 -14 7 -19zM211 632q0 -8 -10.5 -16t-18.5 -8q-9 0 -21 17q-66 99 -126 175q-10 12 -10 23q0 13 22 28t36 15q15 0 25 -22q50 -111 96 -193
q7 -14 7 -19z" />
    <glyph glyph-name="quotedblright" unicode="&#x201d;" horiz-adv-x="424" 
d="M401 823q0 -11 -10 -23q-60 -76 -126 -175q-12 -17 -21 -17q-8 0 -18.5 8t-10.5 16q0 5 7 19q45 82 96 193q10 22 25 22q14 0 36 -15t22 -28zM207 823q0 -11 -10 -23q-60 -76 -126 -175q-12 -17 -21 -17q-8 0 -18.5 8t-10.5 16q0 5 7 19q46 82 96 193q10 22 25 22
q14 0 36 -15t22 -28z" />
    <glyph glyph-name="quotedblbase" unicode="&#x201e;" horiz-adv-x="424" 
d="M380 53q0 -11 -10 -23q-60 -76 -126 -175q-12 -17 -21 -17q-8 0 -18.5 8t-10.5 16q0 5 7 19q46 82 96 193q10 22 25 22q14 0 36 -15t22 -28zM186 53q0 -11 -10 -23q-60 -76 -126 -175q-12 -17 -21 -17q-8 0 -18.5 8t-10.5 16q0 5 7 19q46 82 96 193q10 22 25 22
q14 0 36 -15t22 -28z" />
    <glyph glyph-name="dagger" unicode="&#x2020;" horiz-adv-x="476" 
d="M456 576q0 -33 -17 -33q-23 0 -71 2t-72 2q-23 0 -26 -22v-110q0 -67 2.5 -199t2.5 -198q0 -21 -37 -21t-37 21q0 68 3 203t3 203q0 90 -1 101q-3 22 -26 22q-24 0 -71.5 -2t-71.5 -2q-17 0 -17 33t18 33q23 0 71 -2t72 -2q26 0 26 22q0 23 -2 70t-2 71q0 21 35 21
t35 -21q0 -24 -2 -71t-2 -70q0 -22 26 -22q24 0 72 2t72 2q17 0 17 -33z" />
    <glyph glyph-name="daggerdbl" unicode="&#x2021;" horiz-adv-x="476" 
d="M456 210q0 -34 -17 -34q-24 0 -72 2t-72 2q-26 0 -26 -22q0 -24 2 -70.5t2 -69.5q0 -21 -35 -21t-35 21q0 23 2 69.5t2 70.5q0 22 -26 22q-24 0 -72 -2t-72 -2q-17 0 -17 34q0 33 18 33q23 0 70.5 -2t71.5 -2q25 0 26 22q3 59 3 120q0 96 -3 143q-1 23 -26 23
q-24 0 -71.5 -2t-71.5 -2q-17 0 -17 33t18 33q23 0 71 -2t72 -2q26 0 26 22q0 23 -2 70t-2 71q0 21 35 21t35 -21q0 -24 -2 -71t-2 -70q0 -22 26 -22q24 0 72 2t72 2q17 0 17 -33t-18 -33q-23 0 -70.5 2t-71.5 2q-23 0 -26 -22q-3 -36 -3 -146q0 -90 3 -119q3 -21 26 -21
q24 0 72 2t71 2q17 0 17 -33z" />
    <glyph glyph-name="bullet" unicode="&#x2022;" horiz-adv-x="400" 
d="M327 433q0 -83 -19.5 -101.5t-104.5 -18.5q-33 0 -49.5 0.5t-34 5t-24.5 11t-13 21t-7.5 33t-1.5 49.5q0 45 3.5 67.5t20 35.5t37 15t68.5 2q47 0 68 -2t36 -15.5t18 -35t3 -67.5z" />
    <glyph glyph-name="ellipsis" unicode="&#x2026;" horiz-adv-x="694" 
d="M638 43q0 -29 -12 -41t-41 -12t-41 12t-12 41t12 41t41 12t41 -12t12 -41zM403 43q0 -29 -12 -41t-41 -12t-41 12t-12 41t12 41t41 12t41 -12t12 -41zM168 43q0 -29 -12 -41t-41 -12t-41 12t-12 41t12 41t41 12t41 -12t12 -41z" />
    <glyph glyph-name="perthousand" unicode="&#x2030;" horiz-adv-x="1096" 
d="M1064 180q0 -76 -41 -132t-114 -56t-114 56t-41 132t41 132.5t114 56.5q74 0 114.5 -56t40.5 -133zM1007 180q0 48 -26 88.5t-72 40.5q-45 0 -71 -40.5t-26 -88.5t26 -88t71 -40t71.5 40.5t26.5 87.5zM343 606q0 -76 -41 -132t-114 -56q-74 0 -114.5 55.5t-40.5 132.5
q0 76 41 132t114 56t114 -56t41 -132zM286 606q0 48 -26 88t-72 40t-72 -40t-26 -88q0 -47 26.5 -87.5t71.5 -40.5t71.5 40.5t26.5 87.5zM695 180q0 -76 -41 -132t-114 -56t-114 56t-41 132t41 132.5t114 56.5q74 0 114.5 -56t40.5 -133zM637 180q0 48 -26 88.5t-71 40.5
q-46 0 -72 -40.5t-26 -88.5q0 -47 26.5 -87.5t71.5 -40.5t71 40.5t26 87.5zM630 763q0 -4 -4 -10q-16 -25 -46 -70.5t-38 -57.5q-84 -129 -155 -242q-31 -49 -86.5 -141t-69.5 -115q-70 -118 -75 -125q-5 -8 -13 -8q-12 0 -30 12t-18 23q0 5 3 10q26 41 80 121
q121 187 162 254q65 103 151 246q74 125 77 129q7 9 14 9q11 0 29.5 -12.5t18.5 -22.5z" />
    <glyph glyph-name="guilsinglleft" unicode="&#x2039;" horiz-adv-x="267" 
d="M235 576q0 -10 -9 -21q-86 -112 -111 -153q19 -29 111 -153q9 -11 9 -20t-9.5 -17.5t-18.5 -8.5q-8 0 -20 14l-78 84q-10 11 -30.5 31.5t-26.5 27.5q-14 14 -14 43q0 28 13 42l29 29t33 35q13 13 37 39.5t37 39.5q12 14 20 14q9 0 18.5 -8.5t9.5 -17.5z" />
    <glyph glyph-name="guilsinglright" unicode="&#x203a;" horiz-adv-x="267" 
d="M229 402q0 -28 -13 -42q-11 -13 -33 -35l-29 -29q-12 -13 -36.5 -39.5t-37.5 -39.5q-12 -14 -20 -14q-9 0 -18.5 8.5t-9.5 17.5q0 7 9 20q92 124 111 153q-26 41 -111 153q-9 13 -9 21q0 9 9.5 17.5t18.5 8.5q8 0 20 -14q12 -12 25 -26t28.5 -31.5t24.5 -26.5
q9 -10 28 -29.5t29 -29.5q14 -15 14 -43z" />
    <glyph glyph-name="fraction" unicode="&#x2044;" horiz-adv-x="492" 
d="M544 814q0 -4 -4 -10q-12 -19 -26 -40.5t-31.5 -48t-26.5 -40.5q-124 -194 -185 -292q-85 -138 -184 -301q-67 -114 -83 -139q-6 -8 -14 -8q-12 0 -30 12t-18 23q0 4 4 10l87 135q25 38 189 299q45 71 173 282l87 144q7 9 14 9q12 0 30 -12t18 -23z" />
    <glyph glyph-name="Euro" unicode="&#x20ac;" horiz-adv-x="516" 
d="M87 408q-7 29 -7 68q-11 0 -33.5 -0.5t-33.5 -0.5q-18 0 -18 28q0 27 18 27q9 0 34 -0.5t37 -0.5q17 94 97 147.5t172 44.5q63 -6 120 -30q17 -7 5 -36t-32 -19q-64 28 -124.5 25.5t-109 -38.5t-62.5 -95q31 -1 84 -1q17 0 38 0.5t47 1.5t40 1q18 0 18 -27q0 -28 -19 -28
q-132 3 -135 3l-78 -1q0 -36 8 -70q30 -1 80 -1q41 0 125 2q18 0 18 -27q0 -28 -19 -28q-15 0 -63.5 2t-71.5 2l-52 -1q35 -73 110.5 -111t186.5 -56q11 -1 11.5 -5.5t-4.5 -28.5q-3 -14 -7.5 -18t-16.5 -2q-120 14 -214.5 69t-133.5 152q-14 -1 -44.5 -1.5t-45.5 -0.5
q-18 0 -18 28q0 27 18 27q10 0 36.5 -0.5t38.5 -0.5z" />
    <glyph glyph-name="afii61289" unicode="&#x2113;" horiz-adv-x="645" 
d="M574 170l37 -28q-89 -154 -247 -154q-102 0 -157 63t-59 151v13q-4 -2 -83 -62l-23 41q14 11 50.5 38t54.5 42v328q0 77 17.5 133t47 85t61.5 42t67 13q80 0 121 -54t41 -132q0 -106 -75.5 -211.5t-218.5 -227.5l1 -24q1 -92 50 -140t117 -48q64 0 117 40t81 92zM208 614
v-302q118 111 180 197t62 173q0 145 -113 145q-49 0 -89 -51.5t-40 -161.5z" />
    <glyph glyph-name="trademark" unicode="&#x2122;" horiz-adv-x="984" 
d="M905 332q0 -13 -31 -13q-33 0 -33 14q0 13 1 39.5t1 40.5q0 187 -17 289q-2 7 -4 8q-3 -1 -4 -4q-34 -40 -94 -135q-23 -41 -47 -41q-21 0 -43 36q-63 98 -96 141q-2 2 -3 2l-4 -12q-17 -113 -17 -284q0 -13 1 -40t1 -41q0 -13 -30 -13q-31 0 -31 14q0 108 8 231
q8 131 21 195q8 40 35 40q20 0 37 -20q22 -26 56 -76.5t48 -68.5q12 -16 20 -16q7 0 21 19q11 15 30.5 44.5t37 53.5t34.5 44t37 20q28 0 36 -40q11 -57 20 -195q9 -139 9 -232zM394 768q0 -26 -11 -26q-19 0 -57.5 1.5t-58.5 1.5q-13 0 -14 -15q-3 -55 -3 -165
q0 -39 1.5 -117t1.5 -116q0 -13 -33 -13q-32 0 -32 14q0 38 1.5 115t1.5 116q0 112 -3 167q-1 14 -16 14q-19 0 -57.5 -1.5t-56.5 -1.5q-12 0 -12 26q0 27 11 27q30 0 90 -1t90 -1q25 0 74 1t73 1q10 0 10 -27z" />
    <glyph glyph-name="Omega" unicode="&#x2126;" horiz-adv-x="1028" 
d="M295 50v3q-87 57 -143.5 150t-56.5 212q0 169 123 281t299 112q90 0 168.5 -32.5t132 -87t84 -125t30.5 -145.5q0 -123 -59 -218.5t-143 -146.5v-3h221v-50h-322v37q99 47 167.5 143t68.5 233q0 60 -23 120.5t-65.5 111t-110.5 82.5t-149 32q-157 0 -256 -103t-99 -247
q0 -129 69 -227.5t166 -144.5v-37h-321v50h219z" />
    <glyph glyph-name="estimated" unicode="&#x212e;" horiz-adv-x="996" 
d="M956 384h-743q-6 0 -6 -5v-225q0 -14 10 -26q119 -122 281 -122q87 0 164 36.5t132 100.5h66q-63 -74 -158.5 -117t-204.5 -43q-190 0 -324 120.5t-134 290.5q0 113 61.5 208t167 150.5t229.5 55.5q190 0 324.5 -121t134.5 -293v-10zM788 413v226q0 14 -11 27
q-119 117 -279 117q-161 0 -280 -121q-11 -11 -11 -28v-221q0 -8 6 -8h570q5 0 5 8z" />
    <glyph glyph-name="partialdiff" unicode="&#x2202;" horiz-adv-x="733" 
d="M138 776l-28 41q90 67 220 67q65 0 124 -29t105.5 -83t74 -137.5t27.5 -185.5q0 -86 -21 -166.5t-62 -148t-109 -108.5t-153 -41q-64 0 -115 25t-81 65t-45.5 85.5t-15.5 90.5q0 125 84 203t201 78q92 0 158.5 -49t91.5 -93h1q2 18 2 65q0 172 -80.5 275t-191.5 103
q-106 0 -187 -57zM320 35h1q105 0 175 85.5t87 206.5q-21 53 -84.5 104.5t-145.5 51.5q-93 0 -161 -66t-68 -162q0 -92 55 -156t141 -64z" />
    <glyph glyph-name="Delta" unicode="&#x2206;" horiz-adv-x="898" 
d="M43 0v52l369 769h77l366 -769v-52h-812zM111 51h671l-229 484q-9 19 -32.5 69.5t-43 92.5t-27.5 65h-6q-6 -15 -22 -51.5t-38 -84t-31 -66.5z" />
    <glyph glyph-name="product" unicode="&#x220f;" horiz-adv-x="956" 
d="M920 739h-163v-849h-63v849h-434v-849h-63v849h-163v55h886v-55z" />
    <glyph glyph-name="summation" unicode="&#x2211;" horiz-adv-x="760" 
d="M727 -110h-699v41l389 409l-370 412v42h662v-55h-564v-4l350 -389l-373 -394v-3h605v-59z" />
    <glyph glyph-name="minus" unicode="&#x2212;" horiz-adv-x="600" 
d="M552 260h-504v62h504v-62z" />
    <glyph glyph-name="uni2215" unicode="&#x2215;" horiz-adv-x="492" 
d="M544 814q0 -4 -4 -10q-12 -19 -26 -40.5t-31.5 -48t-26.5 -40.5q-124 -194 -185 -292q-85 -138 -184 -301q-67 -114 -83 -139q-6 -8 -14 -8q-12 0 -30 12t-18 23q0 4 4 10l87 135q25 38 189 299q45 71 173 282l87 144q7 9 14 9q12 0 30 -12t18 -23z" />
    <glyph glyph-name="uni2219" unicode="&#x2219;" horiz-adv-x="216" 
d="M161 432q0 -29 -12 -41t-41 -12t-41 12t-12 41t12 41t41 12t41 -12t12 -41z" />
    <glyph glyph-name="radical" unicode="&#x221a;" horiz-adv-x="755" 
d="M759 938l-304 -1112h-65l-224 539l-102 -38l-18 41l160 62l194 -478q15 -42 21 -65h1q2 12 9 37t8 29l266 985h54z" />
    <glyph glyph-name="infinity" unicode="&#x221e;" horiz-adv-x="1017" 
d="M946 329v-1q0 -86 -57.5 -141t-136.5 -55q-59 0 -108.5 36.5t-133.5 123.5q-36 -40 -55.5 -60t-53.5 -47.5t-68.5 -40t-73.5 -12.5q-77 0 -133 56.5t-56 136.5q0 84 57 140.5t142 56.5q35 0 68.5 -13t66 -40t55 -49t55.5 -60q36 39 46 50t42 40.5t51 40t49 21t61 10.5
q84 0 133.5 -54t49.5 -139zM267 178h1q25 0 49.5 8.5t50 28t40.5 33t42 41.5t34 35q-1 2 -18 21t-20 22.5t-18.5 20.5t-21 21.5t-20.5 18t-23.5 17.5t-23 13t-26 12t-26 6t-29.5 3q-62 0 -99.5 -46.5t-37.5 -109.5q0 -61 40 -103t106 -42zM757 479h-1q-32 0 -67.5 -18.5
t-56.5 -37.5t-53 -52.5t-40 -41.5q56 -58 84 -84t64.5 -46.5t70.5 -20.5q63 0 101 44.5t38 103.5q0 71 -40 112t-100 41z" />
    <glyph glyph-name="integral" unicode="&#x222b;" horiz-adv-x="442" 
d="M430 946l-15 -43q-21 15 -53 15q-44 0 -68 -24q-51 -51 -51 -210q0 -87 9.5 -290t9.5 -292q0 -155 -60 -230q-39 -50 -111 -50q-49 0 -84 23l15 44q33 -18 66 -18q37 0 63 26q53 58 53 207q0 90 -9.5 295t-9.5 291q0 93 15 148t52 87q44 41 107 41q40 0 71 -20z" />
    <glyph glyph-name="approxequal" unicode="&#x2248;" horiz-adv-x="778" 
d="M678 499l28 -27q-67 -113 -168 -113q-9 0 -17.5 1t-15 1.5t-16 3.5t-14.5 4t-15.5 5.5t-15 6t-17 7.5t-16.5 8.5t-18.5 10t-19.5 9.5q-84 44 -132 44q-45 0 -76 -25t-65 -72l-30 26q66 115 181 115q23 0 47 -6.5t38.5 -13.5t38 -20t30.5 -17q7 -3 27 -13t27.5 -13
t23 -8.5t29.5 -7.5t30 -2q42 0 73.5 22.5t62.5 73.5zM678 285l28 -27q-31 -52 -70.5 -82t-97.5 -30q-9 0 -17.5 1t-15 1.5t-16 3.5t-14.5 4t-15.5 5.5t-15 6t-17 7.5t-16.5 8.5t-18.5 10t-19.5 9.5q-84 43 -132 43q-45 0 -76.5 -25.5t-64.5 -72.5l-30 27q65 115 180 115
q23 0 48 -6.5t38.5 -12.5t38.5 -19.5t30 -16.5t21.5 -11t22.5 -11t20 -9t23 -8t22.5 -4t27.5 -2q42 0 72.5 22t63.5 73z" />
    <glyph glyph-name="notequal" unicode="&#x2260;" horiz-adv-x="778" 
d="M542 609l-67 -139h232v-45h-253l-98 -202h351v-45h-372l-78 -163l-38 20l69 143h-218v45h240l97 202h-337v45h358l76 158z" />
    <glyph glyph-name="lessequal" unicode="&#x2264;" horiz-adv-x="778" 
d="M703 85l-624 288v48l624 288v-54l-570 -255v-3l570 -258v-54zM706 -12h-636v44h636v-44z" />
    <glyph glyph-name="greaterequal" unicode="&#x2265;" horiz-adv-x="778" 
d="M79 709l624 -288v-48l-623 -288v54l568 257v2l-569 257v54zM705 -12h-634v44h634v-44z" />
    <glyph glyph-name="lozenge" unicode="&#x25ca;" horiz-adv-x="758" 
d="M680 397l-276 -460h-52l-276 460l276 460h52zM619 395l-216 360q-17 30 -25 51h-3q-7 -18 -27 -51l-212 -357l217 -361q22 -40 24 -50h4q9 23 25 50z" />
    <glyph glyph-name="a.alt1" unicode="&#xe000;" horiz-adv-x="584" 
d="M574 244q0 -18 -32 -18q-34 0 -46 19q-30 46 -33 50q-78 94 -282 166q-4 2 -8 2q-11 0 -20 -20q-23 -48 -53 -149q-1 -2 -5 -18.5t-7 -24.5q-9 -24 -39 -24q-38 0 -38 17q0 6 1 8q52 150 126 316q65 142 101 198q22 37 55 37q24 0 47 -35q114 -174 231 -516q2 -6 2 -8z
M196 532q0 -10 15 -16q9 -4 27.5 -11t28.5 -11q83 -34 145 -72q16 -8 19 -8q6 0 6 9q0 7 -3 14q-56 159 -123 264q-12 18 -20 18q-7 0 -22 -21q-13 -20 -43 -86t-30 -80z" />
    <glyph glyph-name="a.alt2" unicode="&#xe001;" horiz-adv-x="584" 
d="M574 244q0 -18 -32 -18q-34 0 -46 19q-30 46 -33 50q-78 94 -282 166q-4 2 -8 2q-11 0 -20 -20q-23 -48 -53 -149q-1 -2 -5 -18.5t-7 -24.5q-9 -24 -39 -24q-38 0 -38 17q0 6 1 8q52 150 126 316q65 142 101 198q22 37 55 37q24 0 47 -35q114 -174 231 -516q2 -6 2 -8z
M527 88q0 -37 -23 -37q-35 0 -106.5 2.5t-106.5 2.5q-36 0 -108 -2.5t-108 -2.5q-21 0 -21 37t23 37q37 0 110 -2.5t109 -2.5q35 0 105 2.5t105 2.5q21 0 21 -37zM437 423q0 7 -3 14q-56 159 -123 264q-12 18 -20 18q-7 0 -22 -21q-13 -20 -43 -86t-30 -80q0 -10 15 -16
q9 -4 27.5 -11t28.5 -11q83 -34 145 -72q16 -8 19 -8q6 0 6 9z" />
    <glyph glyph-name="a.alt3" unicode="&#xe002;" horiz-adv-x="693" 
d="M704 15q0 -18 -28 -18h-7h-7.5t-6.5 0.5t-6.5 1t-5.5 1.5t-6 3l-4.5 4.5t-4.5 5.5q-44 72 -57 89q-129 168 -369 254q-25 9 -36 9t-20.5 -9.5t-13 -16.5t-9.5 -23q-19 -47 -47 -145q-5 -16 -11.5 -20t-25.5 -4q-41 0 -41 18q0 5 1 7q64 179 151 365q73 151 116 217
q30 46 61 46q35 0 66 -49q92 -143 163.5 -320.5t145.5 -405.5q2 -6 2 -10zM559 242q0 11 -8 31q-10 27 -56 136q-66 159 -118 248q-29 51 -48 51q-4 0 -8 -2t-7.5 -4.5t-8 -7.5t-7 -8.5t-6.5 -9.5l-6 -9t-5.5 -8.5t-3.5 -6.5q-17 -28 -59 -113t-42 -96q0 -12 21 -21
q101 -39 107 -42q113 -51 214 -132q24 -18 32 -18q9 0 9 12z" />
    <glyph glyph-name="b.alt" unicode="&#xe003;" horiz-adv-x="609" 
d="M575 142q0 -67 -58 -104.5t-128 -37.5h-273q-48 0 -48 40q0 58 2 175t2 176t-2 176t-2 175q0 47 52 47h244q64 0 115 -28t51 -86q0 -96 -97 -189q3 -6 30 -51t34.5 -58.5t27.5 -53t27.5 -62.5t15 -56.5t7.5 -62.5zM452 655q0 67 -94 73q-60 4 -112 4q-55 0 -81 -3
q-17 -2 -21.5 -8t-5.5 -24t-1 -109q0 -36 -0.5 -110t-0.5 -110q0 -17 9 -17q7 0 16 7q76 50 127 88q32 24 53 41.5t50.5 46.5t45 60t15.5 61zM498 162q0 93 -113 284q-61 -49 -162 -114q-8 -5 -30.5 -19.5t-34.5 -22.5q-22 -15 -22 -34q0 -39 2 -115q0 -36 1 -53
q2 -16 6.5 -21.5t19.5 -6.5q26 -3 107 -3q64 0 116 4q47 3 78.5 29.5t31.5 71.5z" />
    <glyph glyph-name="c.alt" unicode="&#xe004;" horiz-adv-x="577" 
d="M555 48q0 -16 -17 -22q-26 -10 -84 -18t-93 -8q-150 0 -235.5 82.5t-85.5 231.5q0 92 40 179t106 151.5t151 108t175 56.5h7q28 0 28 -41q0 -9 -3.5 -13.5t-7 -5.5t-13.5 -3q-50 -9 -80 -20q-137 -48 -232 -158t-95 -247q0 -109 65.5 -182.5t173.5 -73.5q69 0 161 26
q6 2 10 2q12 0 20.5 -16t8.5 -29z" />
    <glyph glyph-name="d.alt" unicode="&#xe005;" horiz-adv-x="693" 
d="M653 210q0 -107 -64 -158.5t-174 -51.5h-302q-45 0 -45 45q0 53 2.5 158t2.5 157q0 68 -2.5 203t-2.5 202q0 39 38 39q18 0 41 -9q85 -32 172.5 -92t162.5 -136.5t123 -171t48 -185.5zM576 233q0 71 -37.5 146.5t-97.5 137.5t-125.5 111.5t-130.5 81.5q-18 9 -27 9
q-16 0 -18 -30v-83q-1 -50 -1 -150v-113q0 -54 2 -162q0 -73 1 -87t2.5 -19t7 -8.5t17.5 -4.5q40 -4 136 -4q66 0 98 2q80 4 126.5 49t46.5 124z" />
    <glyph glyph-name="e.alt1" unicode="&#xe006;" horiz-adv-x="448" 
d="M423 768q0 -13 -7.5 -27t-18.5 -14q-2 0 -5.5 0.5t-5.5 0.5q-48 13 -101 13q-58 0 -101.5 -27t-58.5 -81q-2 -8 -2 -13q0 -12 16 -12h82q23 0 70.5 1t71.5 1q22 0 22 -28q0 -13 -1 -19t-6.5 -11.5t-17.5 -5.5q-38 0 -112 1.5t-112 1.5q-20 0 -20 -17v-10
q17 -82 79 -142.5t146 -87.5q19 -6 53 -12q21 -5 21 -30q0 -31 -25 -31h-8q-136 18 -237.5 116.5t-101.5 231.5q0 109 65 170.5t174 61.5q80 0 121 -12q20 -6 20 -19z" />
    <glyph glyph-name="e.alt2" unicode="&#xe007;" horiz-adv-x="448" 
d="M423 768q0 -13 -7.5 -27t-18.5 -14q-2 0 -5.5 0.5t-5.5 0.5q-48 13 -101 13q-58 0 -101.5 -27t-58.5 -81q-2 -8 -2 -13q0 -12 16 -12h82q23 0 70.5 1t71.5 1q22 0 22 -28q0 -13 -1 -19t-6.5 -11.5t-17.5 -5.5q-38 0 -112 1.5t-112 1.5q-20 0 -20 -17v-10
q17 -82 79 -142.5t146 -87.5q19 -6 53 -12q21 -5 21 -30q0 -31 -25 -31h-8q-136 18 -237.5 116.5t-101.5 231.5q0 109 65 170.5t174 61.5q80 0 121 -12q20 -6 20 -19zM413 88q0 -36 -19 -36q-25 0 -75.5 2t-76.5 2t-77 -2t-77 -2q-18 0 -18 36t17 36q27 0 79 -2t78 -2
q25 0 75 2t74 2q10 0 14.5 -7t5 -12t0.5 -17z" />
    <glyph glyph-name="f.alt" unicode="&#xe008;" horiz-adv-x="505" 
d="M495 761q0 -15 -7 -28t-21 -13q-5 0 -15 2q-62 14 -134 14q-108 0 -144.5 -35.5t-36.5 -143.5q0 -21 5.5 -29.5t25.5 -8.5q55 0 167 2q52 2 78 2q10 0 15 -5t5.5 -10.5t0.5 -16.5t-0.5 -16.5t-5.5 -10t-15 -4.5q-41 0 -122.5 1.5t-122.5 1.5q-31 0 -31 -29
q0 -70 2.5 -208t2.5 -208q0 -21 -36 -21q-37 0 -37 21q0 55 2 163.5t2 163.5q0 41 -2 125t-2 125q0 77 17 117q8 20 23 35.5t36.5 24t39.5 14t46.5 7.5t43 2.5t42.5 0.5q92 0 146 -8q32 -4 32 -27z" />
    <glyph glyph-name="g.alt" unicode="&#xe009;" horiz-adv-x="630" 
d="M564 76q0 -40 -26 -50q-25 -10 -83.5 -18t-93.5 -8q-150 0 -235.5 82.5t-85.5 231.5q0 92 40 179t106 151.5t151 108t175 56.5h7q28 0 28 -41q0 -13 -5 -17t-19 -7q-65 -14 -80 -20q-137 -48 -232 -157t-95 -246q0 -109 66.5 -183.5t174.5 -74.5q73 0 105 15
q20 9 27 17.5t7 27.5q0 10 1 68.5t1 87.5q0 25 -1 73.5t-1 73.5q0 21 -8 31.5t-29 10.5t-63.5 -1t-64.5 -1q-10 0 -15 4.5t-5.5 10t-0.5 16.5q0 10 0.5 15t5 10.5t13.5 5.5h2q95 -3 189 -3q23 0 33.5 -8t10.5 -30q0 -29 -1 -87t-1 -87q0 -39 1 -118.5t1 -118.5z" />
    <glyph glyph-name="h.alt1" unicode="&#xe00a;" horiz-adv-x="638" 
d="M580 335q0 -113 -31 -242q-17 -66 -19 -71q-9 -26 -46 -26q-34 0 -34 14q0 4 2 10q60 159 60 299q0 69 -23.5 128.5t-74.5 99t-122 39.5q-75 0 -134 -35q-14 -9 -17 -28q-1 -5 -1 -17v-18v-81q0 -65 2.5 -194.5t2.5 -194.5q0 -21 -38 -21t-38 20q0 64 2.5 193.5
t2.5 193.5q0 61 -2.5 183t-2.5 183q0 21 38 21t38 -21q0 -22 -1 -65.5t-1 -65.5q0 -23 12 -23q2 0 11 3q68 29 130 29q143 0 213.5 -84t70.5 -229z" />
    <glyph glyph-name="h.alt2" unicode="&#xe00b;" horiz-adv-x="681" 
d="M286 446h108q78 0 116 2q16 1 23.5 6.5t7.5 20.5q0 86 -2 180t-2 115t37 21q39 0 39 -20q0 -61 -2.5 -182t-2.5 -181q0 -65 2.5 -195t2.5 -194q0 -22 -39 -22q-37 0 -37 21q0 57 2.5 171t2.5 171v6q0 14 -6.5 17.5t-21.5 4.5q-41 2 -124 2h-100q-82 0 -123 -2
q-10 -1 -15.5 -2t-9 -6t-3.5 -14q0 -120 2.5 -228t2.5 -119v-2q0 -20 -37 -20q-39 0 -39 21q0 50 2.5 152.5t2.5 155.5q0 56 -2.5 156.5t-2.5 146.5q0 22 39 22q37 0 37 -21v-2q0 -28 -2 -78.5t-2 -74.5q0 -15 7.5 -20.5t23.5 -6.5q38 -2 115 -2z" />
    <glyph glyph-name="i.alt1" unicode="&#xe00c;" horiz-adv-x="210" 
d="M143 250q0 -12 -6 -18t-12 -7t-20 -1t-20 1t-12 7t-6 19q0 43 2.5 128t2.5 127q0 44 -2.5 130.5t-2.5 129.5q0 17 9 21t29 4q14 0 20 -1t12 -6.5t6 -17.5q0 -44 -2.5 -132t-2.5 -132q0 -42 2.5 -126t2.5 -126z" />
    <glyph glyph-name="i.alt2" unicode="&#xe00d;" horiz-adv-x="210" 
d="M143 250q0 -12 -6 -18t-12 -7t-20 -1t-20 1t-12 7t-6 19q0 43 2.5 128t2.5 127q0 44 -2.5 130.5t-2.5 129.5q0 17 9 21t29 4q14 0 20 -1t12 -6.5t6 -17.5q0 -44 -2.5 -132t-2.5 -132q0 -42 2.5 -126t2.5 -126zM195 89q0 -37 -24 -37q-11 0 -34.5 2t-35.5 2
q-10 0 -31.5 -2t-32.5 -2q-21 0 -21 37q0 35 19 35q11 0 34.5 -2t34.5 -2q12 0 35 2t34 2q22 0 22 -35z" />
    <glyph glyph-name="j.alt" unicode="&#xe00e;" horiz-adv-x="458" 
d="M388 566q0 -132 -4 -198q-24 -382 -327 -382q-11 0 -16 6.5t-6 12.5t-1 18q0 33 22 33q64 0 112 21t76 54.5t45 83t22.5 98t5.5 109.5q0 47 -1.5 99.5t-3.5 94.5t-4 76.5t-3.5 55.5t-1.5 22q0 21 45 21q12 0 18 -0.5t12 -5.5t7 -15q3 -22 3 -204z" />
    <glyph glyph-name="k.alt" unicode="&#xe00f;" horiz-adv-x="646" 
d="M669 16q0 -18 -51 -18q-15 0 -22 3.5t-13 16.5q-6 14 -15.5 41t-14.5 40q-81 194 -155 290q-8 10 -15 10q-9 0 -21 -14q-14 -16 -40 -50q-51 -61 -81 -93q-30 -33 -61 -64l-8.5 -8.5l-10 -10l-8.5 -8.5q-13 -15 -13 -38q0 -16 1 -47.5t1 -47.5q0 -21 -37 -21t-37 20
q0 64 2.5 193.5t2.5 193.5q0 61 -2.5 183t-2.5 183q0 21 37 21t37 -21q0 -56 -2 -167.5t-2 -167.5v-115v-28t1 -29q3 -20 12 -20q7 0 17 10q31 31 69 76q137 158 230 326q24 43 58 118q8 19 29 19q15 0 34 -5t19 -15q0 -5 -4 -13q-47 -93 -117 -201q-8 -11 -23 -32.5
t-22 -32.5q-9 -14 -9 -25q0 -9 7 -21q55 -85 68 -108q92 -153 161 -319q1 -1 1 -4z" />
    <glyph glyph-name="l.alt" unicode="&#xe010;" horiz-adv-x="610" 
d="M600 42q0 -9 -5.5 -15t-10 -7.5t-16.5 -4.5q-90 -23 -214 -23q-94 0 -150 14q-74 17 -104.5 62.5t-30.5 124.5q0 43 2 130.5t2 130.5q0 52 -2 158t-2 158q0 21 37 21q39 0 39 -21q0 -34 -2 -95.5t-2 -81.5q-5 -303 -5 -363q0 -105 54 -142t165 -37q108 0 202 30q7 3 15 3
q14 0 21 -13.5t7 -28.5z" />
    <glyph glyph-name="m.alt" unicode="&#xe011;" horiz-adv-x="981" 
d="M953 15q0 -20 -38 -20q-26 0 -31 6q-4 6 -5 16q-2 14 -4.5 43t-4.5 43q-23 159 -64 286q-55 168 -115 270q-25 42 -45 42q-17 0 -37 -33q-74 -123 -138 -321q-33 -103 -52 -270q-1 -10 -2.5 -31t-2.5 -31q-1 -6 -3 -10t-3.5 -6t-7 -3t-7.5 -1h-9.5h-9.5q-11 0 -17 1
t-11 6t-5 15v5q10 204 117 482q-37 89 -76 155q-25 42 -45 42q-17 0 -37 -33q-74 -123 -138 -321q-33 -103 -52 -270q-1 -10 -2.5 -31t-2.5 -31q-1 -6 -3 -10t-3.5 -6t-7 -3t-7.5 -1h-9.5h-9.5q-11 0 -17 1t-11 6t-5 15v5q10 179 75.5 375t165.5 354q32 50 64 50
q33 0 64 -49q15 -24 70 -122q1 -1 3.5 -6t4.5 -8.5t6 -6.5t7 -3q10 0 20 21q66 117 70 124q32 50 64 50q33 0 64 -49q91 -143 135 -276q79 -232 108 -456v-5z" />
    <glyph glyph-name="n.alt" unicode="&#xe012;" horiz-adv-x="734" 
d="M670 383q0 -131 -42 -302q-15 -55 -16 -57q-6 -18 -14 -22t-30 -4q-37 0 -37 18q0 3 2 7q69 160 69 372q0 90 -29.5 166t-95 127t-157.5 51q-108 0 -156 -27q-7 -4 -11.5 -9t-6 -13t-2.5 -12t-1 -15.5v-13.5q-3 -122 -3 -242q0 -65 2.5 -194.5t2.5 -194.5q0 -21 -38 -21
t-38 22q0 64 2.5 193.5t2.5 193.5q0 56 -2.5 168t-2.5 168q0 19 8.5 26t29.5 12q12 3 45 7q82 13 172 13q346 0 346 -417z" />
    <glyph glyph-name="o.alt1" unicode="&#xe013;" horiz-adv-x="640" 
d="M595 507q0 -117 -79 -201t-196 -84q-116 0 -195.5 84t-79.5 201q0 118 79.5 202t195.5 84q117 0 196 -84t79 -202zM523 507q0 92 -56.5 157t-146.5 65t-147 -65t-57 -157q0 -91 57 -156t147 -65t146.5 64.5t56.5 156.5z" />
    <glyph glyph-name="o.alt2" unicode="&#xe014;" horiz-adv-x="640" 
d="M595 507q0 -117 -79 -201t-196 -84q-116 0 -195.5 84t-79.5 201q0 118 79.5 202t195.5 84q117 0 196 -84t79 -202zM533 87q0 -12 -1 -19t-7 -12.5t-18 -5.5q-31 0 -94.5 2.5t-95.5 2.5t-97.5 -2.5t-98.5 -2.5q-23 0 -23 37t21 37q33 0 100 -2.5t101 -2.5q31 0 94 2.5
t95 2.5q16 0 20 -9t4 -28zM523 507q0 92 -56.5 157t-146.5 65t-147 -65t-57 -157q0 -91 57 -156t147 -65t146.5 64.5t56.5 156.5z" />
    <glyph glyph-name="oe.alt" unicode="&#xe015;" horiz-adv-x="1192" 
d="M1176 32q0 -14 -8 -19t-24 -8q-79 -12 -180 -12q-47 0 -78 2t-74.5 16t-63.5 40q-17 21 -26 65q-3 11 -8 11q-7 0 -15 -11q-31 -35 -42 -45q-100 -91 -238 -91q-112 0 -197.5 58.5t-128.5 152t-43 203.5q0 172 100.5 293.5t268.5 121.5q137 0 235 -86q15 -13 41 -43
q7 -9 14 -9t7 12q0 13 -0.5 38t-0.5 38q0 32 42 32q41 0 118 -2t114 -2q23 0 69 2t69 2q17 0 17 -30q0 -33 -17 -33q-13 0 -39.5 1t-39.5 1q-49 2 -146 2h-34q-34 1 -34 0q-26 -1 -35 -13t-11 -40q-3 -50 -3 -98q0 -14 1.5 -21t8 -12t20.5 -5q112 0 168 1q87 3 88 3
q10 0 15 -5t5.5 -10.5t0.5 -16.5t-0.5 -16.5t-5.5 -10t-15 -4.5q-43 0 -128.5 1.5t-127.5 1.5q-31 0 -31 -29q0 -38 -0.5 -113.5t-0.5 -113.5q0 -107 37 -142.5t145 -35.5q84 0 168 18q10 2 15 2q14 0 21 -12.5t7 -28.5zM713 394q0 95 -30.5 172.5t-99 127.5t-164.5 50
t-164.5 -50.5t-99 -127.5t-30.5 -172q0 -94 31 -171.5t99 -127.5t164 -50t164.5 50t99 127t30.5 172z" />
    <glyph glyph-name="orn.001" unicode="&#xe016;" horiz-adv-x="800" 
d="M700 407q0 -29 -1 -55.5t-7.5 -69t-17.5 -73t-32.5 -53.5t-51.5 -23q-51 0 -114 67q-171 182 -188 348q-1 7 -1 20q0 30 11 47q30 49 178 49q55 0 92 -4t62.5 -18.5t39 -29.5t20.5 -50t8.5 -65.5t1.5 -89.5zM387 180q0 -49 -123 -49q-81 0 -111 15q-8 5 -15 11.5t-12 16
t-8.5 17.5t-6.5 21.5t-4.5 20.5t-2.5 23.5t-1.5 21t-1 21t-0.5 17.5q-1 35 -1 104q0 201 30 228q10 9 30 9q31 0 44 -56q19 -81 21 -86q44 -152 135 -277q27 -36 27 -58z" />
    <glyph glyph-name="orn.002" unicode="&#xe017;" horiz-adv-x="800" 
d="M700 420q0 -69 -1 -104q0 -1 -0.5 -17.5t-1 -21t-1.5 -21t-2.5 -23.5t-4.5 -20.5t-6.5 -21.5t-8.5 -17.5t-12 -16t-15 -11.5q-30 -15 -111 -15q-123 0 -123 49q0 22 27 58q91 125 135 277q2 5 21 86q13 56 44 56q20 0 30 -9q30 -27 30 -228zM513 568q0 -13 -1 -20
q-17 -166 -188 -348q-63 -67 -114 -67q-30 0 -51.5 23t-32.5 53.5t-17.5 73t-7.5 69t-1 55.5q0 59 1.5 89.5t8.5 65.5t20.5 50t39 29.5t62.5 18.5t92 4q148 0 178 -49q11 -17 11 -47z" />
    <glyph glyph-name="orn.003" unicode="&#xe018;" horiz-adv-x="746" 
d="M566 563q0 -11 -15 -26q-40 -38 -143 -38q-24 0 -71.5 4.5t-70.5 4.5q-47 0 -82 -13q-21 -7 -37 -7q-54 0 -54 58q0 39 31.5 68t73.5 42q36 12 83 12q63 0 136 -23t131 -58q18 -11 18 -24zM699 510q0 -10 -6 -28q-56 -146 -178.5 -245.5t-271.5 -99.5q-68 0 -115.5 35
t-47.5 101q0 39 20 74q28 50 81 74.5t116 24.5q17 0 51 -2.5t51 -2.5q119 0 204 58q6 4 37 30q20 14 32 14q27 0 27 -33z" />
    <glyph glyph-name="orn.004" unicode="&#xe019;" horiz-adv-x="746" 
d="M666 521q0 -39 -19 -74q-28 -50 -81.5 -74.5t-116.5 -24.5q-17 0 -50.5 2.5t-50.5 2.5q-120 0 -204 -58q-8 -6 -21 -16.5t-17 -13.5q-20 -14 -32 -14q-26 0 -26 33q0 14 6 28q56 145 178.5 244.5t270.5 99.5q68 0 115.5 -35t47.5 -100zM653 248q0 -39 -31 -68t-73 -43
q-41 -12 -83 -12q-64 0 -136.5 23t-130.5 58q-18 12 -18 25q0 11 15 26q38 37 143 37q24 0 71 -4t70 -4q47 0 82 12q19 8 38 8q53 0 53 -58z" />
    <glyph glyph-name="orn.005" unicode="&#xe01a;" horiz-adv-x="719" 
d="M608 511h-133v133h133v-133zM608 329h-133v133h133v-133zM426 511h-133v133h133v-133zM426 329h-133v133h133v-133zM244 511h-133v133h133v-133zM608 147h-133v133h133v-133zM244 329h-133v133h133v-133zM426 147h-133v133h133v-133zM244 147h-133v133h133v-133z" />
    <glyph glyph-name="orn.006" unicode="&#xe01b;" horiz-adv-x="719" 
d="M613 141h-507v507h507v-507zM564 419v180h-180v-180h180zM335 419v180h-180v-180h180zM564 190v180h-180v-180h180zM335 190v180h-180v-180h180z" />
    <glyph glyph-name="p.alt" unicode="&#xe01c;" horiz-adv-x="577" 
d="M557 650q0 -193 -349 -353q-4 -3 -11 -3q-11 0 -19 13.5t-8 25.5q0 13 13 19q9 5 33.5 16.5t37.5 18.5q224 116 224 247q0 88 -115 96q-34 2 -102 2q-76 0 -95 -3q-18 -3 -22.5 -12t-5.5 -31q-1 -29 -1 -86q0 -30 -0.5 -90t-0.5 -90v-93q0 -50 5 -300v-3q1 -18 -8 -22.5
t-28 -4.5q-20 0 -28.5 5.5t-8.5 22.5q0 61 2 183t2 183q0 58 -2 174t-2 174q0 50 45 50h254q75 0 132.5 -34.5t57.5 -104.5z" />
    <glyph glyph-name="q.alt1" unicode="&#xe01d;" 
d="M1344 66q0 -6 -13 -15q-133 -73 -298 -73q-189 0 -368 99q-102 -97 -246 -97q-112 0 -197.5 58.5t-128.5 152t-43 203.5q0 172 100.5 293.5t268.5 121.5q114 0 199 -58t127.5 -151.5t42.5 -205.5q0 -154 -79 -265q176 -87 348 -87q131 0 242 56q13 5 16 5q9 0 19 -14
t10 -23zM713 394q0 95 -30.5 172.5t-99 127.5t-164.5 50t-164.5 -50.5t-99 -127.5t-30.5 -172q0 -94 31 -171.5t99 -127.5t164 -50q113 0 188 68q-34 23 -91.5 71.5t-57.5 64.5q0 9 10 22t19 13q7 0 20 -11q70 -66 142 -111q64 95 64 232z" />
    <glyph glyph-name="q.alt2" unicode="&#xe01e;" horiz-adv-x="543" 
d="M558 16q0 -14 -16 -17q-31 -7 -69 -7q-55 0 -97.5 22t-68 54.5t-43.5 81.5t-25.5 92t-12.5 96q-80 17 -130 83t-50 149q0 98 66 168t163 70t163 -70t66 -168q0 -95 -62.5 -164.5t-156.5 -73.5q5 -47 12.5 -83.5t24 -74.5t39.5 -63t60.5 -40.5t86.5 -15.5q5 0 15 0.5
t15 0.5q20 0 20 -40zM436 570q0 73 -44.5 124.5t-116.5 51.5t-117 -51.5t-45 -124.5q0 -56 28.5 -102.5t79.5 -63.5q-1 21 -1 64q0 3 -0.5 13.5t0 12.5t3 7t8.5 6t16 1q31 0 31 -14q0 -34 2 -100q70 2 113 53.5t43 122.5z" />
    <glyph glyph-name="r.alt" unicode="&#xe01f;" horiz-adv-x="608" 
d="M604 16q0 -18 -51 -18q-27 0 -35 20q-4 12 -12.5 35t-13.5 35q-54 135 -102 217q-4 6 -10 6q-4 0 -11 -5q-88 -77 -120 -102q-9 -7 -44 -33.5t-51 -40.5q-16 -15 -16 -35q0 -12 1.5 -36t1.5 -36q0 -17 -8.5 -21.5t-27.5 -4.5q-20 0 -28.5 5t-8.5 24q0 61 2 183t2 183
q0 58 -2 174t-2 174q0 49 43 49h268q86 0 141 -37.5t55 -119.5q0 -48 -22 -97.5t-45.5 -80.5t-64.5 -77q-9 -9 -9 -17l3 -9q102 -178 166 -331q1 -1 1 -4zM496 626q0 96 -121 103q-63 3 -125 3q-57 0 -85 -2q-17 -1 -21.5 -7.5t-5.5 -24.5q-2 -53 -2 -242v-103
q0 -107 1 -128q0 -24 10 -24q5 0 18 8q137 95 245 220q86 100 86 197z" />
    <glyph glyph-name="s.alt" unicode="&#xe020;" horiz-adv-x="595" 
d="M549 186q0 -41 -19 -79q-30 -61 -90 -91t-133 -30q-105 0 -176.5 64t-71.5 168q0 66 28 119q8 14 20 14q13 0 28.5 -9t15.5 -21q0 -6 -4 -16q-19 -44 -19 -87q0 -76 51 -124.5t128 -48.5q68 0 117.5 38t49.5 104q0 31 -9.5 58t-22 45.5t-37 39t-41.5 32t-49 31.5
q-41 25 -66 43t-55 47t-44.5 63.5t-14.5 74.5q0 81 64.5 131.5t148.5 50.5q66 0 102 -9q9 -2 12.5 -3.5t7.5 -6t4 -12.5q0 -15 -5.5 -30.5t-17.5 -15.5q-1 0 -13 3q-43 13 -92 13q-53 0 -92.5 -32.5t-39.5 -85.5q0 -40 21.5 -74.5t45.5 -53t65 -44.5q42 -27 63 -41t53 -41
t47.5 -50.5t27.5 -58.5t12 -75z" />
    <glyph glyph-name="t.alt1" unicode="&#xe021;" horiz-adv-x="567" 
d="M574 763q0 -11 -0.5 -16t-5 -11.5t-13.5 -6.5q-11 0 -35 1t-35 1q-86 2 -130 2q-22 0 -33.5 -7.5t-23.5 -26.5q-61 -106 -111.5 -255.5t-50.5 -253.5q0 -69 34 -107.5t102 -38.5q96 0 210 47q6 3 12 3q11 0 17.5 -16t6.5 -30q0 -13 -18 -20q-114 -45 -247 -45
q-94 0 -140.5 44.5t-46.5 137.5q0 222 179 565q-46 0 -140 -2q-12 0 -35.5 -1t-34.5 -1q-3 0 -6 0.5t-4.5 1.5t-3.5 3t-3 3.5t-1.5 4.5t-1 4t-0.5 5v5v5v5q0 10 0.5 15t5 9.5t13.5 4.5q47 0 141 -1.5t141 -1.5q77 0 154.5 1.5t84.5 1.5q9 0 13.5 -4.5t5 -9t0.5 -15.5z" />
    <glyph glyph-name="t.alt2" unicode="&#xe022;" horiz-adv-x="587" 
d="M587 760q0 -33 -17 -33q-36 0 -108 2t-108 2q-22 0 -24 -25q-5 -78 -5 -299q0 -65 2.5 -194.5t2.5 -194.5q0 -21 -37 -21t-37 21q0 64 2.5 193t2.5 194q0 234 -5 304q-1 22 -26 22q-36 0 -106.5 -2t-106.5 -2q-17 0 -17 33q0 30 15 30q50 0 151.5 -2t151.5 -2q42 0 126 2
t126 2q17 0 17 -30z" />
    <glyph glyph-name="u.alt1" unicode="&#xe023;" horiz-adv-x="533" 
d="M116 513q0 -42 8.5 -80.5t27 -72.5t52 -54.5t78.5 -20.5q75 0 108 20q20 13 20 37q0 30 1 88t1 88q0 42 -2 126t-2 126q0 16 8 19.5t28 3.5q14 0 19 -0.5t11 -6t6 -16.5q0 -42 -2 -126t-2 -125q0 -36 2 -107.5t2 -107.5q0 -28 -26 -44q-25 -16 -75.5 -26t-86.5 -10
q-132 0 -187 76t-55 213q0 113 33 254q4 15 12 20t25 5q31 0 31 -16q0 -7 -1 -10q-34 -159 -34 -253z" />
    <glyph glyph-name="u.alt2" unicode="&#xe024;" horiz-adv-x="533" 
d="M116 513q0 -42 8.5 -80.5t27 -72.5t52 -54.5t78.5 -20.5q75 0 108 20q20 13 20 37q0 30 1 88t1 88q0 42 -2 126t-2 126q0 16 8 19.5t28 3.5q14 0 19 -0.5t11 -6t6 -16.5q0 -42 -2 -126t-2 -125q0 -36 2 -107.5t2 -107.5q0 -28 -26 -44q-25 -16 -75.5 -26t-86.5 -10
q-132 0 -187 76t-55 213q0 113 33 254q4 15 12 20t25 5q31 0 31 -16q0 -7 -1 -10q-34 -159 -34 -253zM470 88q0 -37 -17 -37q-16 0 -71.5 2.5t-97.5 2.5q-36 0 -93.5 -2.5t-82.5 -2.5q-16 0 -16 37t17 37q29 0 88 -2.5t89 -2.5q28 0 84 2.5t84 2.5q16 0 16 -37z" />
    <glyph glyph-name="underscore.alt" unicode="&#xe025;" horiz-adv-x="500" 
d="M700 -125h-700v50h700v-50z" />
    <glyph glyph-name="v.alt" unicode="&#xe026;" horiz-adv-x="687" 
d="M645 552q0 -92 -56 -200t-131.5 -192t-155.5 -144q-34 -25 -54 -25q-24 0 -47 36q-72 111 -117.5 326.5t-45.5 375.5q0 5 -0.5 15t0 13.5l1.5 10.5t3.5 9.5t6.5 6t11.5 4.5t17.5 1q14 0 22 -1.5t11.5 -7.5t4.5 -9.5t0 -16.5t-1 -19q0 -134 24.5 -289.5t67.5 -268.5
q18 -49 32 -73q13 -25 34 -25q16 0 38 18q21 17 70 68q79 85 133.5 183.5t54.5 191.5q0 66 -27.5 114t-82.5 93q-13 11 -13 18q0 10 13.5 24.5t23.5 14.5q4 0 12 -4q150 -94 150 -248z" />
    <glyph glyph-name="w.alt" unicode="&#xe027;" horiz-adv-x="1045" 
d="M1044 772q0 -6 -1 -9q-72 -297 -233 -588q-44 -82 -89 -149q-32 -45 -64 -45q-28 0 -57.5 38t-50.5 76.5t-28 38.5t-21 -24t-29.5 -52.5t-39 -52.5t-45.5 -24q-31 0 -59 40q-36 51 -84 138q-167 304 -240 604q-1 3 -1 9q0 20 44 20q21 0 28 -20q3 -9 7 -26t5 -21
q22 -78 35 -116q91 -282 222 -492q24 -37 43 -37q20 0 45 38q48 72 48 94q0 12 -8 26q-133 259 -198 525q-1 3 -1 8q0 22 47 22q13 0 18 -4t9 -17q3 -9 7 -26t5 -21q11 -44 34 -116q92 -285 221 -492q24 -37 43 -37q22 0 45 38q138 212 220 474q15 46 35 124q1 3 5 22.5
t7 29.5q4 14 9 18.5t19 4.5q48 0 48 -19z" />
    <glyph glyph-name="x.alt" unicode="&#xe028;" horiz-adv-x="619" 
d="M588 10q1 -13 -37 -13q-34 0 -37 18q-34 206 -177 372q-17 20 -28 20q-14 0 -33 -25q-136 -159 -170 -367q-3 -18 -37 -18q-38 0 -37 13v2q10 127 69.5 229t166.5 217q-90 83 -142.5 153.5t-73.5 161.5v3q0 14 33 14q37 0 40 -16q7 -36 15 -57q31 -86 139 -186
q17 -17 31 -17q12 0 33 19q104 95 138 184q5 13 14 57q3 16 40 16q33 0 33 -14v-3q-18 -87 -72 -159t-143 -156q106 -115 165.5 -217.5t69.5 -228.5v-2z" />
    <glyph glyph-name="y.alt" unicode="&#xe029;" horiz-adv-x="639" 
d="M572 768q0 -23 -0.5 -49t-1.5 -57.5t-1 -48.5q-2 -143 -5 -215q-18 -405 -346 -405q-121 0 -166 16q-15 5 -15 17q0 13 8.5 30t19.5 17q4 0 12 -2q73 -21 128 -21q109 0 183.5 53.5t99.5 158.5q-168 2 -260.5 69t-128.5 227q-23 104 -23 211q0 20 32 20q13 0 19 -0.5
t14 -5.5t9 -16q2 -17 3.5 -51.5t2.5 -51.5q5 -52 14.5 -94t27.5 -88t50 -80t77 -53q55 -24 134 -27h4q19 -1 26.5 10.5t9.5 32.5q1 16 1 48q2 76 2 115q0 40 -2 121t-2 121q0 20 38 20q36 0 36 -22z" />
    <glyph glyph-name="z.alt" unicode="&#xe02a;" horiz-adv-x="454" 
d="M418 513q0 -29 -33 -71q-262 -321 -262 -367q0 -13 24 -18q31 -4 69 -4q68 0 181 15h5q14 0 14 -17q0 -48 -25 -49q-117 -6 -201 -6q-100 0 -136 4q-30 3 -30 32q0 34 77.5 140.5t155 205.5t77.5 115q0 15 -42 15q-150 0 -216 -13h-5q-13 0 -13 17q0 43 22 45q21 3 117 3
q105 0 157 -4q64 -5 64 -43z" />
    <glyph glyph-name="f_i" unicode="&#xfb01;" horiz-adv-x="746" 
d="M515 760q0 -33 -17 -33q-13 0 -41 1t-42 1q-52 2 -157 2h-22h-26h-23q-26 -1 -35 -13t-11 -40q-3 -60 -3 -121q0 -14 1.5 -21t8 -12t20.5 -5q61 0 185 2q14 0 44 1t45 1q10 0 15 -5t5.5 -10.5t0.5 -16.5t-0.5 -16.5t-5.5 -10t-15 -4.5q-46 0 -137 1.5t-137 1.5
q-31 0 -31 -29q0 -70 2.5 -208t2.5 -208q0 -21 -36 -21q-38 0 -38 20q0 64 2.5 193.5t2.5 193.5q0 59 -2.5 177t-2.5 177q0 32 44 32q12 0 98 -2t132 -2q26 0 78 2t78 2q17 0 17 -30zM676 18q0 -21 -38 -21t-38 20q0 64 2.5 193.5t2.5 193.5q0 61 -2.5 183t-2.5 183
q0 21 38 21t38 -20q0 -61 -2.5 -182t-2.5 -181q0 -65 2.5 -195t2.5 -195z" />
    <glyph glyph-name="f_l" unicode="&#xfb02;" horiz-adv-x="1036" 
d="M515 760q0 -33 -17 -33q-13 0 -41 1t-42 1q-52 2 -157 2h-22h-26h-23q-26 -1 -35 -13t-11 -40q-3 -60 -3 -121q0 -14 1.5 -21t8 -12t20.5 -5q61 0 185 2q14 0 44 1t45 1q10 0 15 -5t5.5 -10.5t0.5 -16.5t-0.5 -16.5t-5.5 -10t-15 -4.5q-46 0 -137 1.5t-137 1.5
q-31 0 -31 -29q0 -70 2.5 -208t2.5 -208q0 -21 -36 -21q-38 0 -38 20q0 64 2.5 193.5t2.5 193.5q0 59 -2.5 177t-2.5 177q0 32 44 32q12 0 98 -2t132 -2q26 0 78 2t78 2q17 0 17 -30zM1026 27q0 -10 -5 -16t-10.5 -7.5t-16.5 -3.5q-51 -8 -146 -8q-28 0 -42.5 0.5t-43.5 2.5
t-47 7.5t-39.5 14t-36 24t-22.5 35.5q-17 42 -17 117q0 43 2 130.5t2 130.5q0 52 -2 158t-2 158q0 21 37 21q39 0 39 -21q0 -34 -2 -95.5t-2 -81.5q-5 -303 -5 -363q0 -107 37 -142.5t145 -35.5q66 0 134 14q10 2 15 2q14 0 21 -13t7 -28z" />
    </font>
</defs>
</svg>
